SplineFontDB: 3.0
FontName: Rammetto
FullName: Rammetto
FamilyName: Rammetto
Weight: Book
Copyright: Copyright (c) 2011 by Vernon Adams. All rights reserved.
Version: 1.000
ItalicAngle: 0
UnderlinePosition: -103
UnderlineWidth: 102
Ascent: 1638
Descent: 410
sfntRevision: 0x00010000
LayerCount: 2
Layer: 0 1 "Back"  1
Layer: 1 1 "Fore"  0
NeedsXUIDChange: 1
XUID: [1021 14 500265001 8055915]
FSType: 0
OS2Version: 2
OS2_WeightWidthSlopeOnly: 0
OS2_UseTypoMetrics: 1
CreationTime: 1319781660
ModificationTime: 1319803387
PfmFamily: 17
TTFWeight: 400
TTFWidth: 5
LineGap: 0
VLineGap: 0
Panose: 2 0 5 5 2 0 0 2 0 4
OS2TypoAscent: 799
OS2TypoAOffset: 1
OS2TypoDescent: -612
OS2TypoDOffset: 1
OS2TypoLinegap: 0
OS2WinAscent: 0
OS2WinAOffset: 1
OS2WinDescent: 0
OS2WinDOffset: 1
HheadAscent: 0
HheadAOffset: 1
HheadDescent: 0
HheadDOffset: 1
OS2SubXSize: 1434
OS2SubYSize: 1331
OS2SubXOff: 0
OS2SubYOff: 287
OS2SupXSize: 1434
OS2SupYSize: 1331
OS2SupXOff: 0
OS2SupYOff: 977
OS2StrikeYSize: 102
OS2StrikeYPos: 512
OS2FamilyClass: 2063
OS2Vendor: 'newt'
OS2CodePages: 20000193.41000000
OS2UnicodeRanges: 8000006f.5000000b.00000000.00000000
Lookup: 4 0 1 "'liga' Standard Ligatures lookup 0"  {"'liga' Standard Ligatures lookup 0 subtable"  } ['liga' ('DFLT' <'dflt' > ) ]
Lookup: 258 0 0 "'kern' Horizontal Kerning lookup 0"  {"'kern' Horizontal Kerning lookup 0 per glyph data 0"  "'kern' Horizontal Kerning lookup 0 per glyph data 1"  "'kern' Horizontal Kerning lookup 0 kerning class 2"  "'kern' Horizontal Kerning lookup 0 kerning class 3"  } ['kern' ('DFLT' <'dflt' > ) ]
DEI: 91125
KernClass2: 2+ 3 "'kern' Horizontal Kerning lookup 0 kerning class 2" 
 50 A Agrave Aacute Acircumflex Atilde Adieresis Aring
 85 D Oslash Odieresis Otilde Ocircumflex Oacute Ograve Eth O Dcroat Dcaron Ohungarumlaut
 139 G Q OE C Oslash Ccedilla Odieresis Otilde Ocircumflex Oacute Ograve Ccircumflex O Cacute Ccaron Gacute Gbreve Ohungarumlaut uni020C uni020E
 50 A Agrave Aacute Acircumflex Atilde Adieresis Aring

StartChar: P
Encoding: 80 80 4
Width: 1751
Flags: W
LayerCount: 2
Fore
SplineSet
123 1593 m 1,0,1
 619 1642 619 1642 873 1642 c 128,-1,2
 1127 1642 1127 1642 1276 1605.5 c 0,3,4
 1424 1568 1424 1568 1520 1490 c 0,5,6
 1706 1338 1706 1338 1706 991 c 0,7,8
 1706 835 1706 835 1647 705 c 128,-1,9
 1588 575 1588 575 1486 482 c 128,-1,10
 1384 389 1384 389 1247 337 c 128,-1,11
 1110 285 1110 285 954 285 c 1,12,-1
 776 289 l 1,13,-1
 776 0 l 1,14,-1
 123 0 l 1,15,-1
 123 1593 l 1,0,1
1024 1227 m 0,16,17
 938 1227 938 1227 772 1108 c 1,18,-1
 772 731 l 1,19,-1
 889 788 l 2,20,21
 1005 845 1005 845 1051 897 c 0,22,23
 1137 994 1137 994 1137 1102 c 0,24,25
 1137 1186 1137 1186 1072 1217 c 0,26,27
 1051 1227 1051 1227 1024 1227 c 0,16,17
EndSplineSet
EndChar

StartChar: W
Encoding: 87 87 5
Width: 2664
Flags: W
LayerCount: 2
Fore
SplineSet
780 1597 m 1,0,-1
 963 1028 l 1,1,-1
 1362 1563 l 2,2,3
 1382 1590 1382 1590 1392.5 1598 c 0,4,5
 1402 1606 1402 1606 1416 1606 c 0,6,7
 1442 1606 1442 1606 1473 1563 c 2,8,-1
 1845 1034 l 1,9,-1
 2025 1597 l 1,10,-1
 2597 1597 l 1,11,-1
 2075 41 l 2,12,13
 2041 -59 2041 -59 1956 -59 c 0,14,15
 1879 -59 1879 -59 1815 33 c 2,16,-1
 1368 678 l 1,17,-1
 887 31 l 2,18,19
 822 -55 822 -55 747 -55 c 0,20,21
 662 -55 662 -55 625 45 c 2,22,-1
 63 1597 l 1,23,-1
 780 1597 l 1,0,-1
EndSplineSet
EndChar

StartChar: E
Encoding: 69 69 6
Width: 1423
Flags: W
LayerCount: 2
Fore
SplineSet
123 1597 m 1,0,-1
 1274 1597 l 1,1,-1
 1274 1137 l 1,2,-1
 745 1137 l 1,3,-1
 745 1006 l 1,4,-1
 1272 1006 l 1,5,-1
 1272 614 l 1,6,-1
 745 614 l 1,7,-1
 745 463 l 1,8,-1
 1309 463 l 1,9,-1
 1309 0 l 1,10,-1
 123 0 l 1,11,-1
 123 1597 l 1,0,-1
EndSplineSet
EndChar

StartChar: M
Encoding: 77 77 7
Width: 2261
Flags: W
LayerCount: 2
Fore
SplineSet
123 1597 m 1,0,-1
 352 1597 l 1,1,-1
 1124 872 l 1,2,-1
 1917 1597 l 1,3,-1
 2138 1597 l 1,4,-1
 2138 0 l 1,5,-1
 1481 0 l 1,6,-1
 1481 518 l 1,7,-1
 1073 70 l 1,8,-1
 676 506 l 1,9,-1
 676 0 l 1,10,-1
 123 0 l 1,11,-1
 123 1597 l 1,0,-1
EndSplineSet
EndChar

StartChar: L
Encoding: 76 76 8
Width: 1313
Flags: W
LayerCount: 2
Fore
SplineSet
123 1597 m 1,0,-1
 745 1597 l 1,1,-1
 745 481 l 1,2,-1
 1282 481 l 1,3,-1
 1282 0 l 1,4,-1
 123 0 l 1,5,-1
 123 1597 l 1,0,-1
EndSplineSet
EndChar

StartChar: R
Encoding: 82 82 9
Width: 1917
Flags: W
LayerCount: 2
Fore
SplineSet
1135 1092 m 0,0,1
 1135 1233 1135 1233 1030 1233 c 0,2,3
 985 1233 985 1233 905 1200 c 2,4,-1
 772 1145 l 1,5,-1
 772 754 l 1,6,7
 1135 889 1135 889 1135 1092 c 0,0,1
1729 1075 m 0,8,9
 1729 755 1729 755 1413 567 c 1,10,-1
 1847 0 l 1,11,-1
 1057 0 l 1,12,-1
 776 463 l 1,13,-1
 776 0 l 1,14,-1
 123 0 l 1,15,-1
 123 1597 l 1,16,17
 757 1642 757 1642 954 1642 c 128,-1,18
 1151 1642 1151 1642 1253.5 1618.5 c 128,-1,19
 1356 1595 1356 1595 1434.5 1554 c 128,-1,20
 1513 1513 1513 1513 1569 1458 c 0,21,22
 1624 1403 1624 1403 1660 1340 c 0,23,24
 1728 1218 1728 1218 1729 1075 c 0,8,9
EndSplineSet
EndChar

StartChar: A
Encoding: 65 65 10
Width: 2128
Flags: W
LayerCount: 2
Fore
SplineSet
33 0 m 1,0,-1
 827 1516 l 2,1,2
 868 1597 868 1597 978 1624 c 0,3,4
 1010 1632 1010 1632 1057 1632 c 128,-1,5
 1104 1632 1104 1632 1159.5 1605.5 c 128,-1,6
 1215 1579 1215 1579 1247 1522 c 2,7,-1
 2099 0 l 1,8,-1
 1288 0 l 1,9,-1
 1225 158 l 1,10,-1
 793 158 l 1,11,-1
 739 0 l 1,12,-1
 33 0 l 1,0,-1
842 475 m 1,13,-1
 1165 475 l 1,14,-1
 1012 907 l 1,15,-1
 842 475 l 1,13,-1
EndSplineSet
EndChar

StartChar: N
Encoding: 78 78 11
Width: 1843
Flags: W
LayerCount: 2
Fore
SplineSet
123 1597 m 1,0,-1
 285 1597 l 1,1,-1
 1157 975 l 1,2,-1
 1157 1597 l 1,3,-1
 1720 1597 l 1,4,-1
 1720 0 l 1,5,-1
 1505 0 l 1,6,-1
 684 549 l 1,7,-1
 684 0 l 1,8,-1
 123 0 l 1,9,-1
 123 1597 l 1,0,-1
EndSplineSet
EndChar

StartChar: I
Encoding: 73 73 12
Width: 866
Flags: W
LayerCount: 2
Fore
SplineSet
745 0 m 1,0,-1
 123 0 l 1,1,-1
 123 1597 l 1,2,-1
 745 1597 l 1,3,-1
 745 0 l 1,0,-1
EndSplineSet
EndChar

StartChar: ampersand
Encoding: 38 38 13
Width: 2241
Flags: W
LayerCount: 2
Fore
SplineSet
1202 1266 m 0,0,1
 1202 1356 1202 1356 1075 1356 c 0,2,3
 1030 1356 1030 1356 1002 1336 c 0,4,5
 952 1301 952 1301 952 1260 c 0,6,7
 952 1229 952 1229 985 1190 c 2,8,-1
 1040 1126 l 1,9,10
 1050 1132 1050 1132 1076.5 1144.5 c 0,11,12
 1103 1156 1103 1156 1131 1174 c 0,13,14
 1202 1218 1202 1218 1202 1266 c 0,0,1
1370 739 m 1,15,16
 1625 930 1625 930 1718 1137 c 1,17,-1
 2189 1010 l 1,18,19
 2190 876 2190 876 2026 666 c 0,20,21
 1870 466 1870 466 1729 389 c 1,22,23
 1846 279 1846 279 1916 238 c 0,24,25
 2039 167 2039 167 2187 139 c 1,26,-1
 2187 0 l 1,27,-1
 1350 0 l 1,28,-1
 1257 102 l 1,29,30
 1146 25 1146 25 1055 1 c 0,31,32
 822 -61 822 -61 593 -23 c 0,33,34
 421 6 421 6 288 93 c 0,35,36
 66 239 66 239 66 502 c 0,37,38
 66 695 66 695 176 829 c 0,39,40
 288 964 288 964 492 1036 c 0,41,42
 534 1051 534 1051 551 1059 c 1,43,44
 487 1181 487 1181 487 1259.5 c 128,-1,45
 487 1338 487 1338 509.5 1389 c 128,-1,46
 532 1440 532 1440 571.5 1480.5 c 128,-1,47
 611 1521 611 1521 664 1551 c 0,48,49
 716 1581 716 1581 778 1601 c 0,50,51
 898 1640 898 1640 1040 1640 c 0,52,53
 1232 1640 1232 1640 1382 1564 c 0,54,55
 1494 1507 1494 1507 1542 1409 c 0,56,57
 1566 1358 1566 1358 1566.5 1298.5 c 128,-1,58
 1567 1239 1567 1239 1544 1191.5 c 128,-1,59
 1521 1144 1521 1144 1485.5 1104 c 128,-1,60
 1450 1064 1450 1064 1408 1031.5 c 128,-1,61
 1366 999 1366 999 1327.5 974.5 c 128,-1,62
 1289 950 1289 950 1260 933.5 c 128,-1,63
 1231 917 1231 917 1223 909 c 1,64,-1
 1370 739 l 1,15,16
772 733 m 1,65,66
 659 679 659 679 659 569 c 0,67,68
 658 480 658 480 738 444 c 0,69,70
 764 432 764 432 786.5 432 c 128,-1,71
 809 432 809 432 832 435 c 0,72,73
 856 438 856 438 882 444 c 0,74,75
 946 460 946 460 977 481 c 1,76,-1
 772 733 l 1,65,66
EndSplineSet
EndChar

StartChar: D
Encoding: 68 68 14
Width: 1810
Flags: W
LayerCount: 2
Fore
SplineSet
123 1597 m 1,0,1
 730 1642 730 1642 915.5 1642 c 128,-1,2
 1101 1642 1101 1642 1208.5 1607.5 c 128,-1,3
 1316 1573 1316 1573 1401 1512.5 c 128,-1,4
 1486 1452 1486 1452 1549 1370.5 c 128,-1,5
 1612 1289 1612 1289 1653 1195 c 0,6,7
 1735 1007 1735 1007 1735 808 c 128,-1,8
 1735 609 1735 609 1670.5 461 c 0,9,10
 1606 312 1606 312 1492 210 c 0,11,12
 1259 -1 1259 -1 889 0 c 2,13,-1
 123 0 l 1,14,-1
 123 1597 l 1,0,1
745 1090 m 1,15,-1
 745 481 l 1,16,17
 798 526 798 526 860 570.5 c 128,-1,18
 922 615 922 615 975 667 c 0,19,20
 1098 788 1098 788 1098 928 c 0,21,22
 1098 1019 1098 1019 1047 1092 c 0,23,24
 990 1174 990 1174 903.5 1174 c 128,-1,25
 817 1174 817 1174 745 1090 c 1,15,-1
EndSplineSet
EndChar

StartChar: V
Encoding: 86 86 15
Width: 1843
Flags: W
LayerCount: 2
Fore
SplineSet
750 1597 m 1,0,-1
 999 1096 l 1,1,-1
 1231 1597 l 1,2,-1
 1817 1597 l 1,3,-1
 1032 2 l 1,4,5
 1006 -47 1006 -47 941.5 -47 c 128,-1,6
 877 -47 877 -47 852 2 c 2,7,-1
 25 1597 l 1,8,-1
 750 1597 l 1,0,-1
EndSplineSet
EndChar

StartChar: H
Encoding: 72 72 16
Width: 1823
Flags: W
LayerCount: 2
Fore
SplineSet
1077 1597 m 1,0,-1
 1700 1597 l 1,1,-1
 1700 0 l 1,2,-1
 1077 0 l 1,3,-1
 1077 590 l 1,4,-1
 745 561 l 1,5,-1
 745 0 l 1,6,-1
 123 0 l 1,7,-1
 123 1597 l 1,8,-1
 745 1597 l 1,9,-1
 745 1020 l 1,10,-1
 1077 1047 l 1,11,-1
 1077 1597 l 1,0,-1
EndSplineSet
EndChar

StartChar: S
Encoding: 83 83 17
Width: 1446
Flags: W
LayerCount: 2
Fore
SplineSet
696 -39 m 0,0,1
 247 -39 247 -39 100 72 c 1,2,-1
 100 530 l 1,3,4
 104 529 104 529 129.5 521 c 128,-1,5
 155 513 155 513 193.5 501 c 128,-1,6
 232 489 232 489 279.5 475.5 c 128,-1,7
 327 462 327 462 375 450 c 0,8,9
 486 424 486 424 547 424 c 0,10,11
 647 424 647 424 647 485 c 0,12,13
 647 532 647 532 561 585 c 0,14,15
 522 609 522 609 472.5 635 c 128,-1,16
 423 661 423 661 371.5 693 c 128,-1,17
 320 725 320 725 270.5 765.5 c 128,-1,18
 221 806 221 806 182 859 c 0,19,20
 96 976 96 976 96 1133 c 0,21,22
 96 1476 96 1476 458 1594 c 0,23,24
 605 1642 605 1642 793 1642 c 0,25,26
 990 1642 990 1642 1200 1598 c 0,27,28
 1243 1589 1243 1589 1257 1585 c 1,29,-1
 1257 1126 l 1,30,31
 985 1184 985 1184 866 1184 c 0,32,33
 820 1184 820 1184 797 1168 c 128,-1,34
 774 1152 774 1152 774 1132 c 128,-1,35
 774 1112 774 1112 794 1090.5 c 128,-1,36
 814 1069 814 1069 863 1047.5 c 128,-1,37
 912 1026 912 1026 977.5 995.5 c 128,-1,38
 1043 965 1043 965 1100 930 c 128,-1,39
 1157 895 1157 895 1204 852.5 c 128,-1,40
 1251 810 1251 810 1285 756 c 0,41,42
 1356 642 1356 642 1356 501 c 128,-1,43
 1356 360 1356 360 1311 264.5 c 0,44,45
 1266 170 1266 170 1182 102 c 0,46,47
 1006 -38 1006 -38 696 -39 c 0,0,1
EndSplineSet
EndChar

StartChar: G
Encoding: 71 71 18
Width: 1724
Flags: W
LayerCount: 2
Fore
SplineSet
1400 760 m 2,0,-1
 1553 761 l 2,1,2
 1609 761 1609 761 1618 762 c 1,3,-1
 1618 20 l 1,4,5
 1267 -39 1267 -39 1058 -39 c 128,-1,6
 849 -39 849 -39 666 20.5 c 128,-1,7
 483 80 483 80 349 190 c 128,-1,8
 215 300 215 300 139 456.5 c 128,-1,9
 63 613 63 613 63 807 c 0,10,11
 63 1188 63 1188 371 1418 c 0,12,13
 670 1642 670 1642 1145 1642 c 0,14,15
 1378 1642 1378 1642 1514 1592 c 0,16,17
 1538 1583 1538 1583 1540 1583 c 1,18,-1
 1540 1100 l 1,19,20
 1393 1145 1393 1145 1270.5 1145 c 128,-1,21
 1148 1145 1148 1145 1059 1109.5 c 128,-1,22
 970 1074 970 1074 910 1018 c 0,23,24
 792 907 792 907 793 752 c 0,25,26
 793 644 793 644 852.5 575 c 128,-1,27
 912 506 912 506 1016 506 c 0,28,29
 1072 506 1072 506 1102 520 c 1,30,31
 1104 557 1104 557 1104 615 c 2,32,-1
 1104 760 l 1,33,34
 1252 760 1252 760 1400 760 c 2,0,-1
EndSplineSet
EndChar

StartChar: F
Encoding: 70 70 19
Width: 1323
Flags: W
LayerCount: 2
Fore
SplineSet
123 1597 m 1,0,-1
 1272 1597 l 1,1,-1
 1272 1145 l 1,2,-1
 745 1145 l 1,3,-1
 745 997 l 1,4,-1
 1272 997 l 1,5,-1
 1272 561 l 1,6,-1
 745 561 l 1,7,-1
 745 0 l 1,8,-1
 123 0 l 1,9,-1
 123 1597 l 1,0,-1
EndSplineSet
EndChar

StartChar: Y
Encoding: 89 89 20
Width: 1718
Flags: W
LayerCount: 2
Fore
SplineSet
530 623 m 1,0,-1
 43 1597 l 1,1,-1
 756 1597 l 1,2,-1
 915 1270 l 1,3,-1
 1079 1597 l 1,4,-1
 1675 1597 l 1,5,-1
 1178 623 l 1,6,-1
 1178 0 l 1,7,-1
 530 0 l 1,8,-1
 530 623 l 1,0,-1
EndSplineSet
EndChar

StartChar: B
Encoding: 66 66 21
Width: 1892
Flags: W
LayerCount: 2
Fore
SplineSet
123 1597 m 1,0,1
 666 1622 666 1622 903 1622 c 128,-1,2
 1140 1622 1140 1622 1291.5 1596 c 0,3,4
 1444 1570 1444 1570 1536 1522 c 0,5,6
 1708 1432 1708 1432 1708 1249 c 0,7,8
 1708 1139 1708 1139 1650.5 1064.5 c 128,-1,9
 1593 990 1593 990 1475 936 c 1,10,11
 1623 886 1623 886 1703 794 c 0,12,13
 1808 673 1808 673 1808 467 c 0,14,15
 1808 252 1808 252 1656 132 c 0,16,17
 1482 -5 1482 -5 1104 -19 c 0,18,19
 1003 -23 1003 -23 947 -23 c 128,-1,20
 891 -23 891 -23 850 -22 c 128,-1,21
 809 -21 809 -21 756.5 -19.5 c 128,-1,22
 704 -18 704 -18 642.5 -16.5 c 128,-1,23
 581 -15 581 -15 518 -12.5 c 128,-1,24
 455 -10 455 -10 394 -8 c 128,-1,25
 333 -6 333 -6 280 -3.5 c 128,-1,26
 227 -1 227 -1 186 0.5 c 128,-1,27
 145 2 145 2 123 4 c 1,28,-1
 123 1597 l 1,0,1
1143 621 m 0,29,30
 1143 705 1143 705 1044 705 c 0,31,32
 969 706 969 706 811 618 c 0,33,34
 774 598 774 598 748 584 c 1,35,-1
 748 332 l 1,36,37
 762 337 762 337 774.5 342 c 128,-1,38
 787 347 787 347 832.5 364 c 128,-1,39
 878 381 878 381 941.5 407 c 0,40,41
 1006 433 1006 433 1050 463 c 0,42,43
 1144 526 1144 526 1143 621 c 0,29,30
748 866 m 1,44,45
 918 932 918 932 974 971 c 0,46,47
 1090 1049 1090 1049 1090 1139 c 0,48,49
 1090 1202 1090 1202 1024 1220 c 0,50,51
 1006 1225 1006 1225 986 1225 c 128,-1,52
 966 1225 966 1225 939.5 1218 c 128,-1,53
 913 1211 913 1211 887 1200.5 c 128,-1,54
 861 1190 861 1190 836.5 1177 c 128,-1,55
 812 1164 812 1164 793 1153 c 0,56,57
 750 1128 750 1128 748 1126 c 1,58,-1
 748 866 l 1,44,45
EndSplineSet
EndChar

StartChar: U
Encoding: 85 85 22
Width: 1745
Flags: W
LayerCount: 2
Fore
SplineSet
901 -39 m 0,0,1
 106 -39 106 -39 106 637 c 2,2,-1
 106 1597 l 1,3,-1
 737 1597 l 1,4,-1
 737 655 l 2,5,6
 737 513 737 513 832 470 c 0,7,8
 865 455 865 455 911 455 c 256,9,10
 1041 455 1041 455 1075 579 c 0,11,12
 1085 616 1085 616 1085 659 c 2,13,-1
 1085 1597 l 1,14,-1
 1638 1597 l 1,15,-1
 1638 637 l 2,16,17
 1638 -39 1638 -39 901 -39 c 0,0,1
EndSplineSet
EndChar

StartChar: one
Encoding: 49 49 23
Width: 1155
Flags: W
LayerCount: 2
Fore
SplineSet
375 860 m 1,0,-1
 20 731 l 1,1,-1
 20 1217 l 1,2,-1
 850 1597 l 1,3,-1
 1034 1597 l 1,4,-1
 1034 0 l 1,5,-1
 375 0 l 1,6,-1
 375 860 l 1,0,-1
EndSplineSet
EndChar

StartChar: two
Encoding: 50 50 24
Width: 1726
Flags: W
LayerCount: 2
Fore
SplineSet
190 289 m 1,0,-1
 799 799 l 2,1,2
 922 902 922 902 922 1014 c 0,3,4
 922 1073 922 1073 883.5 1111 c 128,-1,5
 845 1149 845 1149 787 1149 c 128,-1,6
 729 1149 729 1149 672.5 1131 c 0,7,8
 616 1112 616 1112 554 1078 c 0,9,10
 422 1004 422 1004 303 877 c 1,11,-1
 68 1214 l 1,12,13
 190 1416 190 1416 440 1532 c 0,14,15
 674 1640 674 1640 936 1640 c 0,16,17
 1223 1640 1223 1640 1410 1511 c 0,18,19
 1616 1369 1616 1369 1616 1118 c 0,20,21
 1616 918 1616 918 1445 746 c 0,22,23
 1356 656 1356 656 1263 587.5 c 128,-1,24
 1170 519 1170 519 1118 479 c 1,25,-1
 1626 479 l 1,26,-1
 1626 0 l 1,27,-1
 190 0 l 1,28,-1
 190 289 l 1,0,-1
EndSplineSet
EndChar

StartChar: three
Encoding: 51 51 25
Width: 1853
Flags: W
LayerCount: 2
Fore
SplineSet
1212 1026 m 1,0,1
 1761 959 1761 959 1761 524 c 0,2,3
 1760 312 1760 312 1630 178 c 0,4,5
 1422 -37 1422 -37 936 -37 c 0,6,7
 580 -38 580 -38 292 86 c 0,8,9
 179 134 179 134 80 213 c 1,10,-1
 317 600 l 1,11,12
 496 480 496 480 726 442 c 0,13,14
 802 430 802 430 890 430 c 128,-1,15
 978 430 978 430 1027.5 469 c 128,-1,16
 1077 508 1077 508 1077 558 c 128,-1,17
 1077 608 1077 608 1060 637.5 c 128,-1,18
 1043 667 1043 667 1014.5 688 c 128,-1,19
 986 709 986 709 949 722 c 128,-1,20
 912 735 912 735 872 743 c 0,21,22
 808 756 808 756 734.5 756 c 128,-1,23
 661 756 661 756 637 752 c 1,24,-1
 516 963 l 1,25,26
 516 980 516 980 788 1161 c 1,27,-1
 184 1161 l 1,28,-1
 184 1597 l 1,29,-1
 1726 1597 l 1,30,-1
 1726 1417 l 1,31,-1
 1212 1026 l 1,0,1
EndSplineSet
EndChar

StartChar: four
Encoding: 52 52 26
Width: 1872
Flags: W
LayerCount: 2
Fore
SplineSet
47 686 m 1,0,-1
 676 1599 l 1,1,-1
 1636 1599 l 1,2,-1
 1636 702 l 1,3,-1
 1778 702 l 1,4,-1
 1778 215 l 1,5,-1
 1636 215 l 1,6,-1
 1636 0 l 1,7,-1
 961 0 l 1,8,-1
 961 215 l 1,9,-1
 47 215 l 1,10,-1
 47 686 l 1,0,-1
670 686 m 1,11,-1
 961 686 l 1,12,-1
 961 1139 l 1,13,-1
 670 686 l 1,11,-1
EndSplineSet
EndChar

StartChar: five
Encoding: 53 53 27
Width: 1800
Flags: W
LayerCount: 2
Fore
SplineSet
782 1034 m 1,0,1
 877 1047 877 1047 964.5 1047 c 128,-1,2
 1052 1047 1052 1047 1140.5 1036 c 128,-1,3
 1229 1025 1229 1025 1311 1000 c 128,-1,4
 1393 975 1393 975 1465.5 935.5 c 128,-1,5
 1538 896 1538 896 1592 839 c 0,6,7
 1708 717 1708 717 1708 532 c 0,8,9
 1708 320 1708 320 1578 184 c 0,10,11
 1368 -36 1368 -36 883 -37 c 0,12,13
 541 -37 541 -37 270 66 c 0,14,15
 162 107 162 107 68 172 c 1,16,-1
 305 559 l 1,17,18
 467 470 467 470 683 440 c 0,19,20
 753 430 753 430 838.5 430 c 128,-1,21
 924 430 924 430 974 469 c 128,-1,22
 1024 508 1024 508 1024 555.5 c 128,-1,23
 1024 603 1024 603 1011 628 c 128,-1,24
 998 653 998 653 977 669 c 128,-1,25
 956 685 956 685 929.5 694 c 128,-1,26
 903 703 903 703 875 707 c 0,27,28
 833 713 833 713 748.5 713 c 128,-1,29
 664 713 664 713 479 676 c 1,30,-1
 188 797 l 1,31,-1
 356 1599 l 1,32,-1
 1681 1599 l 1,33,-1
 1597 1196 l 1,34,-1
 811 1196 l 1,35,-1
 782 1034 l 1,0,1
EndSplineSet
EndChar

StartChar: six
Encoding: 54 54 28
Width: 1786
Flags: W
LayerCount: 2
Fore
SplineSet
735 948 m 1,0,1
 860 981 860 981 966.5 981 c 128,-1,2
 1073 981 1073 981 1161.5 972.5 c 128,-1,3
 1250 964 1250 964 1330.5 943 c 128,-1,4
 1411 922 1411 922 1480.5 887 c 128,-1,5
 1550 852 1550 852 1601 800 c 0,6,7
 1710 688 1710 688 1710 506 c 0,8,9
 1710 302 1710 302 1589 172 c 0,10,11
 1395 -38 1395 -38 958 -37 c 0,12,13
 600 -37 600 -37 346 162 c 0,14,15
 174 296 174 296 108 500 c 0,16,17
 74 604 74 604 74 739 c 128,-1,18
 74 874 74 874 104.5 999 c 128,-1,19
 135 1124 135 1124 192 1225.5 c 128,-1,20
 249 1327 249 1327 329 1405 c 0,21,22
 409 1484 409 1484 508 1536 c 0,23,24
 709 1642 709 1642 965 1642 c 0,25,26
 1191 1642 1191 1642 1389 1536 c 0,27,28
 1610 1417 1610 1417 1647 1223 c 1,29,-1
 1145 1085 l 1,30,31
 1114 1145 1114 1145 1061 1176.5 c 128,-1,32
 1008 1208 1008 1208 958.5 1208 c 128,-1,33
 909 1208 909 1208 869.5 1195 c 128,-1,34
 830 1182 830 1182 800 1156 c 0,35,36
 734 1098 734 1098 733 991 c 2,37,-1
 733 972 l 2,38,39
 733 962 733 962 735 948 c 1,0,1
931 338 m 128,-1,41
 979 313 979 313 1015 313 c 128,-1,42
 1051 313 1051 313 1070 318 c 0,43,44
 1088 323 1088 323 1104 333 c 0,45,46
 1138 355 1138 355 1138.5 398 c 128,-1,47
 1139 441 1139 441 1116 509 c 128,-1,48
 1093 577 1093 577 1036 651 c 1,49,-1
 766 651 l 1,50,51
 766 505 766 505 846 408 c 0,52,40
 883 363 883 363 931 338 c 128,-1,41
EndSplineSet
EndChar

StartChar: seven
Encoding: 55 55 29
Width: 1759
Flags: W
LayerCount: 2
Fore
SplineSet
958 1151 m 1,0,-1
 305 1137 l 1,1,2
 241 1137 241 1137 169.5 1151 c 128,-1,3
 98 1165 98 1165 98 1169 c 2,4,-1
 98 1599 l 1,5,-1
 1726 1599 l 1,6,-1
 1726 1477 l 1,7,-1
 1004 0 l 1,8,-1
 168 0 l 1,9,-1
 958 1108 l 1,10,-1
 958 1151 l 1,0,-1
EndSplineSet
EndChar

StartChar: eight
Encoding: 56 56 30
Width: 1769
Flags: W
LayerCount: 2
Fore
SplineSet
885 -37 m 256,0,1
 267 -36 267 -36 123 258 c 0,2,3
 86 334 86 334 86 426 c 128,-1,4
 86 518 86 518 104 582 c 128,-1,5
 122 646 122 646 160 696 c 0,6,7
 230 790 230 790 389 862 c 1,8,9
 248 936 248 936 200 1002 c 0,10,11
 146 1078 146 1078 145.5 1194 c 128,-1,12
 145 1310 145 1310 182 1377 c 128,-1,13
 219 1444 219 1444 279.5 1491 c 128,-1,14
 340 1538 340 1538 418 1567.5 c 0,15,16
 496 1598 496 1598 578 1614 c 0,17,18
 721 1642 721 1642 835 1642 c 128,-1,19
 949 1642 949 1642 1029 1636 c 128,-1,20
 1109 1630 1109 1630 1191 1613.5 c 128,-1,21
 1273 1597 1273 1597 1351 1567.5 c 0,22,23
 1430 1538 1430 1538 1490 1491 c 0,24,25
 1624 1387 1624 1387 1624 1219 c 0,26,27
 1624 1076 1624 1076 1570 1002 c 0,28,29
 1521 935 1521 935 1380 862 c 1,30,31
 1540 790 1540 790 1610 696 c 0,32,33
 1684 597 1684 597 1683 436 c 0,34,35
 1682 244 1682 244 1546 130 c 0,36,37
 1348 -36 1348 -36 885 -37 c 256,0,1
885 721 m 256,38,39
 821 721 821 721 775 677 c 0,40,41
 727 631 727 631 727 573.5 c 128,-1,42
 727 516 727 516 740.5 490.5 c 0,43,44
 754 466 754 466 776 452 c 0,45,46
 812 430 812 430 885 430 c 256,47,48
 958 430 958 430 986 448 c 0,49,50
 1042 482 1042 482 1042 559 c 0,51,52
 1042 631 1042 631 994 677 c 0,53,54
 948 721 948 721 885 721 c 256,38,39
885 979 m 256,55,56
 926 979 926 979 959 1008 c 0,57,58
 1020 1062 1020 1062 1020 1109 c 128,-1,59
 1020 1156 1020 1156 1008 1178.5 c 128,-1,60
 996 1201 996 1201 976 1213 c 0,61,62
 943 1233 943 1233 885 1233 c 256,63,64
 791 1232 791 1232 762 1178 c 0,65,66
 750 1156 750 1156 750 1122 c 128,-1,67
 750 1088 750 1088 764 1062.5 c 0,68,69
 778 1036 778 1036 799 1018 c 0,70,71
 844 978 844 978 885 979 c 256,55,56
EndSplineSet
EndChar

StartChar: nine
Encoding: 57 57 31
Width: 1784
Flags: W
LayerCount: 2
Fore
SplineSet
670 1208 m 0,0,1
 670 1084 670 1084 772 954 c 1,2,-1
 1042 954 l 1,3,4
 1042 1102 1042 1102 962 1198 c 0,5,6
 884 1293 884 1293 776 1292 c 0,7,8
 708 1292 708 1292 680 1246 c 0,9,10
 670 1230 670 1230 670 1208 c 0,0,1
1049 649 m 1,11,12
 958 625 958 625 834 625 c 128,-1,13
 710 625 710 625 622 633.5 c 128,-1,14
 534 642 534 642 453.5 663 c 128,-1,15
 373 684 373 684 303.5 719 c 128,-1,16
 234 754 234 754 183 806 c 0,17,18
 74 918 74 918 74 1100 c 0,19,20
 74 1302 74 1302 202 1434 c 0,21,22
 405 1642 405 1642 866 1642 c 0,23,24
 1208 1642 1208 1642 1450 1444 c 0,25,26
 1614 1311 1614 1311 1678 1105 c 0,27,28
 1710 1001 1710 1001 1710 866.5 c 128,-1,29
 1710 732 1710 732 1679.5 607 c 128,-1,30
 1649 482 1649 482 1592 380 c 128,-1,31
 1535 278 1535 278 1455 200.5 c 128,-1,32
 1375 123 1375 123 1276 70 c 0,33,34
 1076 -37 1076 -37 819 -37 c 0,35,36
 594 -38 594 -38 394 70 c 0,37,38
 258 144 258 144 186 256 c 0,39,40
 150 314 150 314 137 383 c 1,41,42
 145 385 145 385 639 520 c 1,43,44
 670 460 670 460 723 428.5 c 128,-1,45
 776 397 776 397 825 397 c 128,-1,46
 874 397 874 397 914 410 c 0,47,48
 954 424 954 424 984 450 c 0,49,50
 1050 508 1050 508 1051 614 c 2,51,-1
 1051 630 l 2,52,53
 1051 636 1051 636 1049 649 c 1,11,12
EndSplineSet
EndChar

StartChar: zero
Encoding: 48 48 32
Width: 1792
Flags: W
LayerCount: 2
Fore
SplineSet
897 -37 m 260,0,1
 715 -37 715 -37 564.5 26.5 c 132,-1,2
 414 90 414 90 306 203 c 4,3,4
 78 442 78 442 78 812.5 c 132,-1,5
 78 1183 78 1183 301.5 1412.5 c 132,-1,6
 525 1642 525 1642 897 1642 c 132,-1,7
 1269 1642 1269 1642 1492.5 1412.5 c 132,-1,8
 1716 1183 1716 1183 1716 807 c 4,9,10
 1716 625 1716 625 1656 470.5 c 132,-1,11
 1596 316 1596 316 1488 203 c 132,-1,12
 1380 90 1380 90 1229.5 26.5 c 132,-1,13
 1079 -37 1079 -37 897 -37 c 260,0,1
897 455 m 132,-1,15
 1075 455 1075 455 1075 776 c 4,16,17
 1075 932 1075 932 1057.5 995 c 132,-1,18
 1040 1058 1040 1058 1020 1089 c 4,19,20
 977 1157 977 1157 897 1157 c 260,21,22
 727 1156 727 1156 720 852 c 4,23,24
 719 810 719 810 719 776 c 4,25,14
 719 455 719 455 897 455 c 132,-1,15
EndSplineSet
EndChar

StartChar: J
Encoding: 74 74 33
Width: 1579
Flags: W
LayerCount: 2
Fore
SplineSet
702 -39 m 0,0,1
 570 -39 570 -39 439 -4 c 128,-1,2
 308 31 308 31 214 105 c 0,3,4
 14 261 14 261 14 567 c 2,5,-1
 14 719 l 1,6,-1
 569 795 l 1,7,-1
 569 641 l 2,8,9
 569 502 569 502 652 462 c 0,10,11
 676 450 676 450 702.5 450.5 c 128,-1,12
 729 451 729 451 754.5 464.5 c 128,-1,13
 780 478 780 478 800 504 c 0,14,15
 844 560 844 560 844 647 c 2,16,-1
 844 1597 l 1,17,-1
 1481 1597 l 1,18,-1
 1481 825 l 2,19,20
 1481 222 1481 222 1111 40 c 0,21,22
 953 -38 953 -38 702 -39 c 0,0,1
EndSplineSet
EndChar

StartChar: K
Encoding: 75 75 34
Width: 1956
Flags: W
LayerCount: 2
Fore
SplineSet
756 1597 m 1,0,-1
 756 1106 l 1,1,-1
 1141 1597 l 1,2,-1
 1790 1597 l 1,3,-1
 1274 924 l 1,4,-1
 1870 0 l 1,5,-1
 1141 0 l 1,6,-1
 807 565 l 1,7,-1
 770 500 l 1,8,-1
 770 0 l 1,9,-1
 123 0 l 1,10,-1
 123 1597 l 1,11,-1
 756 1597 l 1,0,-1
EndSplineSet
EndChar

StartChar: Q
Encoding: 81 81 35
Width: 2015
Flags: W
LayerCount: 2
Fore
SplineSet
1474 101 m 1,0,1
 1247 -39 1247 -39 958 -39 c 0,2,3
 730 -39 730 -39 528 66 c 0,4,5
 323 172 323 172 202 358 c 0,6,7
 72 557 72 557 72 805 c 0,8,9
 72 1050 72 1050 194 1245 c 0,10,11
 312 1430 312 1430 514 1536 c 0,12,13
 716 1642 716 1642 958 1642 c 0,14,15
 1346 1642 1346 1642 1602 1418 c 0,16,17
 1768 1272 1768 1272 1832 1043 c 0,18,19
 1864 929 1864 929 1864 769.5 c 128,-1,20
 1864 610 1864 610 1789 448 c 1,21,22
 1909 408 1909 408 1989 408 c 1,23,24
 1992 294 1992 294 1992.5 192 c 128,-1,25
 1993 90 1993 90 1993 -33 c 1,26,27
 1947 -39 1947 -39 1901 -39 c 0,28,29
 1689 -39 1689 -39 1474 101 c 1,0,1
1163 747 m 1,30,31
 1235 891 1235 891 1235 997 c 0,32,33
 1236 1113 1236 1113 1148 1147 c 0,34,35
 1118 1159 1118 1159 1077.5 1159 c 128,-1,36
 1037 1159 1037 1159 996.5 1135 c 128,-1,37
 956 1111 956 1111 917 1071 c 128,-1,38
 878 1031 878 1031 842.5 978.5 c 128,-1,39
 807 926 807 926 780 869 c 0,40,41
 721 744 721 744 721 647 c 0,42,43
 721 481 721 481 889 481 c 0,44,45
 942 481 942 481 1005 536 c 1,46,47
 968 578 968 578 932 621 c 128,-1,48
 896 664 896 664 860 707 c 1,49,-1
 969 870 l 1,50,51
 1051 814 1051 814 1163 747 c 1,30,31
EndSplineSet
EndChar

StartChar: X
Encoding: 88 88 36
Width: 1923
Flags: W
LayerCount: 2
Fore
SplineSet
909 365 m 1,0,-1
 727 0 l 1,1,-1
 131 0 l 1,2,-1
 567 831 l 1,3,-1
 96 1597 l 1,4,-1
 813 1597 l 1,5,-1
 991 1278 l 1,6,-1
 1178 1597 l 1,7,-1
 1737 1597 l 1,8,-1
 1319 846 l 1,9,-1
 1837 0 l 1,10,-1
 1100 0 l 1,11,-1
 909 365 l 1,0,-1
EndSplineSet
EndChar

StartChar: Z
Encoding: 90 90 37
Width: 1845
Flags: W
LayerCount: 2
Fore
SplineSet
721 1114 m 1,0,-1
 170 1114 l 1,1,-1
 170 1597 l 1,2,-1
 1726 1597 l 1,3,-1
 1726 1475 l 1,4,-1
 1110 457 l 1,5,-1
 1726 457 l 1,6,-1
 1726 0 l 1,7,-1
 109 0 l 1,8,-1
 109 92 l 1,9,-1
 721 1114 l 1,0,-1
EndSplineSet
EndChar

StartChar: AE
Encoding: 198 198 38
Width: 2439
Flags: W
LayerCount: 2
Fore
SplineSet
1114 1597 m 1,0,-1
 2349 1597 l 1,1,-1
 2349 1155 l 1,2,-1
 1825 1155 l 1,3,-1
 1825 1001 l 1,4,-1
 2349 1001 l 1,5,-1
 2349 618 l 1,6,-1
 1825 618 l 1,7,-1
 1825 444 l 1,8,-1
 2380 444 l 1,9,-1
 2380 0 l 1,10,-1
 1153 0 l 1,11,-1
 1153 123 l 1,12,-1
 745 123 l 1,13,-1
 674 0 l 1,14,-1
 23 0 l 1,15,-1
 1114 1597 l 1,0,-1
1153 920 m 1,16,-1
 930 494 l 1,17,-1
 1153 494 l 1,18,-1
 1153 920 l 1,16,-1
EndSplineSet
EndChar

StartChar: OE
Encoding: 338 338 39
Width: 2363
Flags: W
LayerCount: 2
Fore
SplineSet
47 739 m 0,0,1
 47 925 47 925 115.5 1082.5 c 128,-1,2
 184 1240 184 1240 307.5 1355 c 128,-1,3
 431 1470 431 1470 602.5 1534.5 c 128,-1,4
 774 1599 774 1599 979 1599 c 2,5,-1
 2302 1599 l 1,6,-1
 2302 1163 l 1,7,-1
 1798 1163 l 1,8,-1
 1798 1012 l 1,9,-1
 2281 1012 l 1,10,-1
 2281 621 l 1,11,-1
 1798 621 l 1,12,-1
 1798 469 l 1,13,-1
 2302 469 l 1,14,-1
 2302 0 l 1,15,-1
 803 0 l 2,16,17
 484 0 484 0 264 215 c 0,18,19
 126 350 126 350 74 541 c 0,20,21
 48 636 48 636 47 739 c 0,0,1
1210 997 m 0,22,23
 1210 1159 1210 1159 1049 1159 c 0,24,25
 978 1159 978 1159 892 1071 c 0,26,27
 763 940 763 940 712 754 c 0,28,29
 696 696 696 696 696 647 c 0,30,31
 696 481 696 481 864 481 c 0,32,33
 930 480 930 480 1016 570 c 0,34,35
 1141 702 1141 702 1194 890 c 0,36,37
 1210 948 1210 948 1210 997 c 0,22,23
EndSplineSet
EndChar

StartChar: sterling
Encoding: 163 163 40
Width: 1954
Flags: W
LayerCount: 2
Fore
SplineSet
1860 70 m 1,0,1
 1646 -37 1646 -37 1405 -37 c 0,2,3
 1283 -37 1283 -37 1097 -5.5 c 128,-1,4
 911 26 911 26 803.5 40.5 c 128,-1,5
 696 55 696 55 575 55 c 0,6,7
 357 55 357 55 178 -37 c 1,8,-1
 59 131 l 1,9,10
 225 239 225 239 291 418 c 0,11,12
 315 483 315 483 315 557 c 2,13,-1
 315 649 l 1,14,-1
 70 649 l 1,15,-1
 70 967 l 1,16,-1
 332 967 l 1,17,-1
 336 997 l 1,18,19
 376 1334 376 1334 608 1494 c 0,20,21
 820 1640 820 1640 1180 1640 c 0,22,23
 1408 1640 1408 1640 1585 1568 c 0,24,25
 1734 1506 1734 1506 1796 1392 c 0,26,27
 1829 1330 1829 1330 1829 1249 c 1,28,-1
 1362 1087 l 1,29,30
 1332 1174 1332 1174 1234 1198 c 0,31,32
 1204 1206 1204 1206 1164.5 1206 c 128,-1,33
 1125 1206 1125 1206 1083.5 1191 c 128,-1,34
 1042 1176 1042 1176 1012 1146 c 0,35,36
 946 1082 946 1082 946 967 c 1,37,-1
 1438 967 l 1,38,-1
 1438 649 l 1,39,-1
 920 649 l 1,40,41
 910 543 910 543 872 444 c 1,42,43
 1024 477 1024 477 1096.5 477 c 128,-1,44
 1169 477 1169 477 1213 471 c 0,45,46
 1256 466 1256 466 1300 458 c 0,47,48
 1413 438 1413 438 1477 438 c 256,49,50
 1612 438 1612 438 1759 482 c 0,51,52
 1799 494 1799 494 1823 506 c 1,53,-1
 1860 70 l 1,0,1
EndSplineSet
EndChar

StartChar: o
Encoding: 111 111 41
Width: 1587
Flags: W
LayerCount: 2
Fore
SplineSet
982 889 m 0,0,1
 962 899 962 899 930.5 899 c 128,-1,2
 899 899 899 899 861 880.5 c 128,-1,3
 823 862 823 862 786 830 c 128,-1,4
 749 798 749 798 715.5 756.5 c 128,-1,5
 682 715 682 715 657 669 c 0,6,7
 602 568 602 568 602 485 c 0,8,9
 602 405 602 405 664 377 c 0,10,11
 686 367 686 367 718 367 c 128,-1,12
 750 367 750 367 785 386.5 c 128,-1,13
 820 406 820 406 855 439 c 128,-1,14
 890 472 890 472 923 514.5 c 128,-1,15
 956 557 956 557 982 603 c 0,16,17
 1038 705 1038 705 1038 780 c 0,18,19
 1038 861 1038 861 982 889 c 0,0,1
788 -37 m 0,20,21
 696 -37 696 -37 608 -16 c 128,-1,22
 520 5 520 5 441 45 c 128,-1,23
 362 85 362 85 295 143.5 c 128,-1,24
 228 202 228 202 178 276 c 0,25,26
 74 431 74 431 74 627 c 0,27,28
 74 919 74 919 284 1107 c 0,29,30
 488 1290 488 1290 784 1290 c 0,31,32
 1096 1290 1096 1290 1300 1112 c 0,33,34
 1510 927 1510 927 1511 623 c 0,35,36
 1512 428 1512 428 1408 272 c 0,37,38
 1312 128 1312 128 1142 44 c 0,39,40
 978 -36 978 -36 788 -37 c 0,20,21
EndSplineSet
EndChar

StartChar: i
Encoding: 105 105 42
Width: 821
Flags: W
LayerCount: 2
Fore
SplineSet
293.5 1795 m 128,-1,1
 356 1819 356 1819 433.5 1819 c 128,-1,2
 511 1819 511 1819 563 1801.5 c 0,3,4
 616 1784 616 1784 650 1754 c 0,5,6
 718 1696 718 1696 717 1608 c 0,7,8
 717 1506 717 1506 631 1430 c 0,9,10
 536 1346 536 1346 385 1346 c 0,11,12
 173 1346 173 1346 121 1474 c 0,13,14
 106 1510 106 1510 106 1554 c 128,-1,15
 106 1598 106 1598 127 1646 c 128,-1,16
 148 1694 148 1694 189.5 1732.5 c 128,-1,0
 231 1771 231 1771 293.5 1795 c 128,-1,1
700 0 m 1,17,-1
 121 0 l 1,18,-1
 121 1243 l 1,19,-1
 700 1243 l 1,20,-1
 700 0 l 1,17,-1
EndSplineSet
EndChar

StartChar: C
Encoding: 67 67 43
Width: 1526
Flags: W
LayerCount: 2
Fore
SplineSet
1382 1077 m 1,0,1
 1317 1102 1317 1102 1243 1102 c 128,-1,2
 1169 1102 1169 1102 1100 1072.5 c 128,-1,3
 1031 1043 1031 1043 979 992 c 0,4,5
 866 881 866 881 866 727 c 0,6,7
 866 624 866 624 906 566 c 128,-1,8
 946 508 946 508 1024 508 c 0,9,10
 1084 508 1084 508 1138 531 c 0,11,12
 1251 579 1251 579 1413 698 c 1,13,-1
 1413 47 l 1,14,15
 1200 -39 1200 -39 952 -39 c 0,16,17
 721 -39 721 -39 519 53 c 0,18,19
 198 200 198 200 96 513 c 0,20,21
 62 620 62 620 61.5 749 c 128,-1,22
 61 878 61 878 93 996 c 128,-1,23
 125 1114 125 1114 185.5 1213.5 c 128,-1,24
 246 1313 246 1313 332 1392.5 c 128,-1,25
 418 1472 418 1472 526 1528 c 0,26,27
 749 1643 749 1643 1034 1642 c 0,28,29
 1251 1642 1251 1642 1382 1593 c 1,30,-1
 1382 1077 l 1,0,1
EndSplineSet
EndChar

StartChar: n
Encoding: 110 110 44
Width: 1681
Flags: W
LayerCount: 2
Fore
SplineSet
795 905 m 0,0,1
 715 905 715 905 715 776 c 2,2,-1
 715 0 l 1,3,-1
 121 0 l 1,4,-1
 121 1243 l 1,5,-1
 449 1243 l 1,6,-1
 592 1049 l 1,7,8
 672 1160 672 1160 816 1226 c 0,9,10
 955 1290 955 1290 1078.5 1290 c 128,-1,11
 1202 1290 1202 1290 1286 1260 c 128,-1,12
 1370 1230 1370 1230 1433 1173 c 0,13,14
 1569 1050 1569 1050 1569 848 c 2,15,-1
 1569 0 l 1,16,-1
 971 0 l 1,17,-1
 971 600 l 2,18,19
 971 905 971 905 795 905 c 0,0,1
EndSplineSet
EndChar

StartChar: r
Encoding: 114 114 45
Width: 1065
Flags: W
LayerCount: 2
Fore
SplineSet
1010 774 m 1,0,1
 918 774 918 774 820 706 c 0,2,3
 724 640 724 640 723 580 c 2,4,-1
 723 0 l 1,5,-1
 121 0 l 1,6,-1
 121 1243 l 1,7,-1
 723 1243 l 1,8,-1
 723 1110 l 1,9,10
 774 1187 774 1187 849.5 1233 c 128,-1,11
 925 1279 925 1279 1010 1288 c 1,12,-1
 1010 774 l 1,0,1
EndSplineSet
EndChar

StartChar: h
Encoding: 104 104 46
Width: 1695
Flags: W
LayerCount: 2
Fore
SplineSet
811 907 m 0,0,1
 715 907 715 907 715 776 c 2,2,-1
 715 0 l 1,3,-1
 121 0 l 1,4,-1
 121 1683 l 1,5,-1
 715 1683 l 1,6,-1
 715 1110 l 1,7,8
 812 1239 812 1239 990 1278 c 0,9,10
 1046 1290 1046 1290 1124 1290 c 128,-1,11
 1202 1290 1202 1290 1290 1254 c 128,-1,12
 1378 1218 1378 1218 1443 1150 c 0,13,14
 1583 1005 1583 1005 1583 766 c 2,15,-1
 1583 0 l 1,16,-1
 985 0 l 1,17,-1
 985 539 l 2,18,19
 985 700 985 700 932 806 c 0,20,21
 881 907 881 907 811 907 c 0,0,1
EndSplineSet
EndChar

StartChar: u
Encoding: 117 117 47
Width: 1679
Flags: W
LayerCount: 2
Fore
SplineSet
711 664 m 2,0,1
 711 336 711 336 870 336 c 0,2,3
 950 336 950 336 963 414 c 0,4,5
 967 438 967 438 967 467 c 2,6,-1
 967 1243 l 1,7,-1
 1561 1243 l 1,8,-1
 1561 0 l 1,9,-1
 1233 0 l 1,10,-1
 1090 195 l 1,11,12
 963 22 963 22 723 -30 c 0,13,14
 648 -46 648 -46 563.5 -46.5 c 128,-1,15
 479 -47 479 -47 395.5 -17 c 128,-1,16
 312 13 312 13 249 70 c 0,17,18
 113 193 113 193 113 395 c 2,19,-1
 113 1243 l 1,20,-1
 711 1243 l 1,21,-1
 711 664 l 2,0,1
EndSplineSet
EndChar

StartChar: m
Encoding: 109 109 48
Width: 2396
Flags: W
LayerCount: 2
Fore
SplineSet
795 905 m 0,0,1
 715 905 715 905 715 776 c 2,2,-1
 715 0 l 1,3,-1
 121 0 l 1,4,-1
 121 1243 l 1,5,-1
 449 1243 l 1,6,-1
 592 1049 l 1,7,8
 665 1159 665 1159 804 1226 c 0,9,10
 936 1290 936 1290 1077 1290 c 0,11,12
 1260 1290 1260 1290 1380 1166 c 0,13,14
 1419 1126 1419 1126 1446 1073 c 1,15,16
 1569 1230 1569 1230 1748 1276 c 0,17,18
 1805 1290 1805 1290 1877.5 1290 c 128,-1,19
 1950 1290 1950 1290 2026.5 1260 c 128,-1,20
 2103 1230 2103 1230 2160 1173 c 0,21,22
 2284 1049 2284 1049 2284 848 c 2,23,-1
 2284 0 l 1,24,-1
 1704 0 l 1,25,-1
 1704 641 l 2,26,27
 1704 764 1704 764 1662 840 c 0,28,29
 1626 905 1626 905 1577 905 c 256,30,31
 1519 906 1519 906 1502 836 c 0,32,33
 1497 816 1497 816 1497 791 c 2,34,-1
 1497 0 l 1,35,-1
 930 0 l 1,36,-1
 930 641 l 2,37,38
 930 764 930 764 884 840 c 0,39,40
 845 905 845 905 795 905 c 0,0,1
EndSplineSet
EndChar

StartChar: c
Encoding: 99 99 49
Width: 1243
Flags: W
LayerCount: 2
Fore
SplineSet
838 379 m 0,0,1
 939 379 939 379 1130 522 c 1,2,-1
 1130 33 l 1,3,4
 802 -91 802 -91 510 3 c 0,5,6
 248 87 248 87 132 316 c 0,7,8
 74 432 74 432 74 587.5 c 128,-1,9
 74 743 74 743 130.5 873.5 c 128,-1,10
 187 1004 187 1004 290 1097 c 0,11,12
 506 1292 506 1292 852 1292 c 0,13,14
 995 1292 995 1292 1110 1249 c 1,15,-1
 1110 864 l 1,16,17
 1083 887 1083 887 1034 887 c 128,-1,18
 985 887 985 887 929 856 c 128,-1,19
 873 825 873 825 827 773 c 0,20,21
 721 653 721 653 721 514 c 0,22,23
 722 400 722 400 798 384 c 0,24,25
 818 380 818 380 838 379 c 0,0,1
EndSplineSet
EndChar

StartChar: e
Encoding: 101 101 50
Width: 1505
Flags: W
LayerCount: 2
Fore
SplineSet
934 887 m 1,0,1
 934 975 934 975 852 975 c 1,2,3
 758 966 758 966 730 878 c 0,4,5
 716 836 716 836 710.5 780.5 c 128,-1,6
 705 725 705 725 694 662 c 1,7,-1
 913 711 l 1,8,-1
 932 864 l 1,9,-1
 934 887 l 1,0,1
799 432 m 0,10,11
 770 432 770 432 744 432 c 128,-1,12
 718 432 718 432 694 434 c 1,13,14
 694 315 694 315 821 304 c 0,15,16
 856 301 856 301 889 301 c 128,-1,17
 922 301 922 301 972.5 308 c 0,18,19
 1024 316 1024 316 1084 334 c 0,20,21
 1231 379 1231 379 1333 467 c 1,22,-1
 1395 156 l 1,23,24
 1172 -37 1172 -37 721 -37 c 0,25,26
 462 -37 462 -37 276 114 c 0,27,28
 150 217 150 217 100 379 c 0,29,30
 74 461 74 461 74 571 c 128,-1,31
 74 681 74 681 104.5 782.5 c 128,-1,32
 135 884 135 884 188.5 965.5 c 128,-1,33
 242 1047 242 1047 316.5 1108.5 c 128,-1,34
 391 1170 391 1170 479 1210 c 0,35,36
 656 1292 656 1292 866 1292 c 0,37,38
 1138 1292 1138 1292 1287 1165 c 0,39,40
 1417 1054 1417 1054 1417 885 c 0,41,42
 1416 704 1416 704 1258 575 c 0,43,44
 1082 432 1082 432 799 432 c 0,10,11
EndSplineSet
EndChar

StartChar: p
Encoding: 112 112 51
Width: 1645
Flags: W
LayerCount: 2
Fore
SplineSet
1569 788 m 0,0,1
 1568 502 1568 502 1380 278 c 0,2,3
 1240 111 1240 111 999 40 c 0,4,5
 874 3 874 3 715 0 c 1,6,-1
 715 -324 l 1,7,-1
 121 -324 l 1,8,-1
 121 1243 l 1,9,-1
 449 1243 l 1,10,-1
 588 1051 l 1,11,12
 812 1290 812 1290 1059 1290 c 128,-1,13
 1306 1290 1306 1290 1437.5 1148 c 128,-1,14
 1569 1006 1569 1006 1569 788 c 0,0,1
1014 869 m 0,15,16
 993 877 993 877 961.5 877 c 128,-1,17
 930 877 930 877 894 856.5 c 128,-1,18
 858 836 858 836 824 802 c 0,19,20
 754 732 754 732 715 639 c 1,21,-1
 715 352 l 1,22,23
 732 364 732 364 765.5 384.5 c 128,-1,24
 799 405 799 405 839 433.5 c 128,-1,25
 879 462 879 462 921 498.5 c 128,-1,26
 963 535 963 535 997 578 c 0,27,28
 1075 677 1075 677 1075 776 c 0,29,30
 1075 846 1075 846 1014 869 c 0,15,16
EndSplineSet
EndChar

StartChar: w
Encoding: 119 119 52
Width: 2079
Flags: W
LayerCount: 2
Fore
SplineSet
1421 838 m 1,0,-1
 1554 1243 l 1,1,-1
 2009 1243 l 1,2,-1
 1587 -8 l 1,3,-1
 1421 -8 l 1,4,-1
 1063 510 l 1,5,-1
 680 -8 l 1,6,-1
 514 -8 l 1,7,-1
 69 1243 l 1,8,-1
 629 1243 l 1,9,-1
 764 829 l 1,10,-1
 1071 1243 l 1,11,-1
 1135 1243 l 1,12,-1
 1421 838 l 1,0,-1
EndSplineSet
EndChar

StartChar: v
Encoding: 118 118 53
Width: 1470
Flags: W
LayerCount: 2
Fore
SplineSet
795 877 m 1,0,-1
 965 1243 l 1,1,-1
 1442 1243 l 1,2,-1
 829 2 l 2,3,4
 811 -37 811 -37 750 -37 c 0,5,6
 691 -37 691 -37 670 2 c 2,7,-1
 25 1243 l 1,8,-1
 610 1243 l 1,9,-1
 795 877 l 1,0,-1
EndSplineSet
EndChar

StartChar: z
Encoding: 122 122 54
Width: 1483
Flags: W
LayerCount: 2
Fore
SplineSet
588 866 m 1,0,-1
 156 866 l 1,1,-1
 156 1243 l 1,2,-1
 1395 1243 l 1,3,-1
 1395 1151 l 1,4,-1
 911 356 l 1,5,-1
 1395 356 l 1,6,-1
 1395 0 l 1,7,-1
 109 0 l 1,8,-1
 109 68 l 1,9,-1
 588 866 l 1,0,-1
EndSplineSet
EndChar

StartChar: s
Encoding: 115 115 55
Width: 1202
Flags: W
LayerCount: 2
Fore
SplineSet
1040 870 m 1,0,1
 818 922 818 922 717 922 c 0,2,3
 688 922 688 922 672.5 909 c 128,-1,4
 657 896 657 896 657 880 c 0,5,6
 657 847 657 847 739.5 813.5 c 128,-1,7
 822 780 822 780 890.5 748 c 0,8,9
 960 716 960 716 1010 670 c 0,10,11
 1118 570 1118 570 1118 377 c 0,12,13
 1118 175 1118 175 972 67 c 0,14,15
 832 -37 832 -37 584 -37 c 0,16,17
 344 -37 344 -37 198 8 c 0,18,19
 134 27 134 27 100 53 c 1,20,-1
 100 424 l 1,21,22
 114 423 114 423 148.5 411 c 0,23,24
 184 399 184 399 228 385 c 0,25,26
 346 348 346 348 412.5 348 c 128,-1,27
 479 348 479 348 479 397 c 0,28,29
 479 435 479 435 419 471 c 0,30,31
 392 487 392 487 357.5 504 c 128,-1,32
 323 521 323 521 287.5 543 c 128,-1,33
 252 565 252 565 217.5 594 c 0,34,35
 183 624 183 624 156 664 c 0,36,37
 96 754 96 754 96 875.5 c 128,-1,38
 96 997 96 997 144.5 1074.5 c 128,-1,39
 193 1152 193 1152 272 1200 c 0,40,41
 420 1290 420 1290 659 1290 c 0,42,43
 826 1290 826 1290 994 1257 c 0,44,45
 1030 1250 1030 1250 1040 1247 c 1,46,-1
 1040 870 l 1,0,1
EndSplineSet
EndChar

StartChar: d
Encoding: 100 100 56
Width: 1786
Flags: W
LayerCount: 2
Fore
SplineSet
838 1288 m 0,0,1
 957 1288 957 1288 1083 1249 c 1,2,-1
 1083 1683 l 1,3,-1
 1665 1683 l 1,4,-1
 1665 0 l 1,5,-1
 1294 0 l 1,6,-1
 1151 207 l 1,7,8
 968 -35 968 -35 670 -35 c 0,9,10
 431 -35 431 -35 259 122 c 0,11,12
 74 290 74 290 74 559 c 0,13,14
 74 798 74 798 184 972 c 0,15,16
 282 1127 282 1127 458 1211 c 0,17,18
 620 1288 620 1288 838 1288 c 0,0,1
1083 866 m 1,19,20
 1049 887 1049 887 1009 887 c 128,-1,21
 969 887 969 887 932 871 c 128,-1,22
 895 855 895 855 860.5 828 c 128,-1,23
 826 801 826 801 795.5 764.5 c 0,24,25
 764 728 764 728 742 687 c 0,26,27
 694 599 694 599 694 516 c 0,28,29
 694 426 694 426 747 392 c 0,30,31
 766 380 766 380 793 379 c 0,32,33
 923 379 923 379 1083 510 c 1,34,-1
 1083 866 l 1,19,20
EndSplineSet
EndChar

StartChar: b
Encoding: 98 98 57
Width: 1733
Flags: W
LayerCount: 2
Fore
SplineSet
1072 -3 m 0,0,1
 938 -39 938 -39 705 -39 c 128,-1,2
 472 -39 472 -39 123 16 c 1,3,-1
 123 1683 l 1,4,-1
 705 1683 l 1,5,-1
 705 1096 l 1,6,7
 834 1218 834 1218 1018 1251 c 0,8,9
 1068 1260 1068 1260 1106 1260 c 0,10,11
 1367 1260 1367 1260 1518 1078 c 0,12,13
 1657 910 1657 910 1657 657 c 0,14,15
 1657 522 1657 522 1580 376 c 0,16,17
 1430 92 1430 92 1072 -3 c 0,0,1
993 844 m 0,18,19
 862 844 862 844 702 713 c 1,20,-1
 702 336 l 1,21,-1
 801 336 l 2,22,23
 901 336 901 336 997 458 c 0,24,25
 1092 579 1092 579 1092 707 c 0,26,27
 1092 798 1092 798 1039 832 c 0,28,29
 1020 844 1020 844 993 844 c 0,18,19
EndSplineSet
EndChar

StartChar: k
Encoding: 107 107 58
Width: 1544
Flags: W
LayerCount: 2
Fore
SplineSet
668 403 m 1,0,1
 654 380 654 380 651 369 c 1,2,-1
 651 0 l 1,3,-1
 123 0 l 1,4,-1
 123 1683 l 1,5,-1
 641 1683 l 1,6,-1
 641 872 l 1,7,-1
 877 1243 l 1,8,-1
 1466 1243 l 1,9,-1
 1083 700 l 1,10,-1
 1528 0 l 1,11,-1
 918 0 l 1,12,-1
 668 403 l 1,0,1
EndSplineSet
EndChar

StartChar: g
Encoding: 103 103 59
Width: 1702
Flags: W
LayerCount: 2
Fore
SplineSet
573 -512 m 1,0,-1
 573 -158 l 1,1,2
 624 -164 624 -164 684.5 -175 c 128,-1,3
 745 -186 745 -186 802 -186 c 128,-1,4
 859 -186 859 -186 908 -172.5 c 0,5,6
 956 -160 956 -160 994 -122 c 0,7,8
 1076 -40 1076 -40 1077 154 c 1,9,10
 902 -37 902 -37 645 -37 c 0,11,12
 405 -38 405 -38 246 114 c 0,13,14
 74 278 74 278 74 571 c 0,15,16
 74 781 74 781 170 952 c 0,17,18
 258 1108 258 1108 416 1200 c 0,19,20
 569 1290 569 1290 748 1290 c 0,21,22
 920 1290 920 1290 1048 1175 c 0,23,24
 1090 1138 1090 1138 1120 1090 c 1,25,-1
 1264 1243 l 1,26,-1
 1591 1243 l 1,27,-1
 1591 0 l 2,28,29
 1592 -385 1592 -385 1244 -506 c 0,30,31
 1104 -555 1104 -555 923.5 -555 c 128,-1,32
 743 -555 743 -555 573 -512 c 1,0,-1
1053 866 m 1,33,34
 1017 887 1017 887 977.5 887 c 128,-1,35
 938 887 938 887 901 871 c 128,-1,36
 864 855 864 855 829.5 828 c 128,-1,37
 795 801 795 801 765 764.5 c 0,38,39
 734 728 734 728 712 687 c 0,40,41
 664 599 664 599 664 516 c 0,42,43
 664 428 664 428 716 392 c 0,44,45
 734 380 734 380 771.5 379.5 c 128,-1,46
 809 379 809 379 852 393 c 128,-1,47
 895 407 895 407 932 427 c 0,48,49
 980 453 980 453 1053 510 c 1,50,-1
 1053 866 l 1,33,34
EndSplineSet
EndChar

StartChar: q
Encoding: 113 113 60
Width: 1704
Flags: W
LayerCount: 2
Fore
SplineSet
643 1247 m 0,0,1
 786 1284 786 1284 1016.5 1284 c 128,-1,2
 1247 1284 1247 1284 1583 1229 c 1,3,-1
 1583 -326 l 1,4,-1
 1042 -326 l 1,5,-1
 1042 127 l 1,6,7
 918 6 918 6 730 -28 c 0,8,9
 680 -37 680 -37 641 -37 c 0,10,11
 370 -37 370 -37 216 145 c 0,12,13
 74 312 74 312 74 565 c 0,14,15
 74 814 74 814 235 1012 c 0,16,17
 369 1176 369 1176 643 1247 c 0,0,1
1044 866 m 1,18,19
 1010 887 1010 887 970.5 887 c 128,-1,20
 931 887 931 887 893.5 871 c 128,-1,21
 856 855 856 855 821.5 828 c 128,-1,22
 787 801 787 801 756.5 764.5 c 128,-1,23
 726 728 726 728 704 687 c 0,24,25
 656 599 656 599 655 516 c 0,26,27
 655 426 655 426 708 392 c 0,28,29
 727 380 727 380 754 379 c 0,30,31
 884 379 884 379 1044 510 c 1,32,-1
 1044 866 l 1,18,19
EndSplineSet
EndChar

StartChar: t
Encoding: 116 116 61
Width: 1124
Flags: W
LayerCount: 2
Fore
SplineSet
1061 90 m 1,0,1
 871 -39 871 -39 641 -39 c 0,2,3
 446 -39 446 -39 316 79 c 0,4,5
 180 202 180 202 180 406 c 2,6,-1
 180 926 l 1,7,-1
 66 926 l 1,8,-1
 66 1243 l 1,9,-1
 180 1243 l 1,10,-1
 180 1579 l 1,11,-1
 778 1640 l 1,12,-1
 778 1243 l 1,13,-1
 1061 1243 l 1,14,-1
 1061 926 l 1,15,-1
 778 926 l 1,16,-1
 778 612 l 2,17,18
 778 471 778 471 839 410 c 0,19,20
 905 344 905 344 1061 344 c 1,21,-1
 1061 90 l 1,0,1
EndSplineSet
EndChar

StartChar: f
Encoding: 102 102 62
Width: 1122
Flags: W
LayerCount: 2
Fore
SplineSet
1061 1413 m 1,0,1
 1012 1427 1012 1427 964.5 1427 c 128,-1,2
 917 1427 917 1427 883.5 1412.5 c 128,-1,3
 850 1398 850 1398 828 1374 c 0,4,5
 786 1328 786 1328 780 1243 c 1,6,-1
 1063 1243 l 1,7,-1
 1063 926 l 1,8,-1
 780 926 l 1,9,-1
 780 0 l 1,10,-1
 182 0 l 1,11,-1
 182 926 l 1,12,-1
 68 926 l 1,13,-1
 68 1243 l 1,14,-1
 182 1243 l 1,15,-1
 182 1454 l 2,16,17
 182 1620 182 1620 318 1720 c 0,18,19
 446 1814 446 1814 666 1814.5 c 128,-1,20
 886 1815 886 1815 1061 1712 c 1,21,-1
 1061 1413 l 1,0,1
EndSplineSet
EndChar

StartChar: x
Encoding: 120 120 63
Width: 1530
Flags: W
LayerCount: 2
Fore
SplineSet
780 1010 m 1,0,-1
 903 1243 l 1,1,-1
 1364 1243 l 1,2,-1
 1053 655 l 1,3,-1
 1454 0 l 1,4,-1
 856 0 l 1,5,-1
 715 283 l 1,6,-1
 600 0 l 1,7,-1
 100 0 l 1,8,-1
 436 645 l 1,9,-1
 90 1243 l 1,10,-1
 657 1243 l 1,11,-1
 780 1010 l 1,0,-1
EndSplineSet
EndChar

StartChar: y
Encoding: 121 121 64
Width: 1651
Flags: W
LayerCount: 2
Fore
SplineSet
201 27 m 1,0,1
 307 -2 307 -2 467 -2 c 256,2,3
 568 -2 568 -2 602 84 c 0,4,5
 612 110 612 110 612 132 c 0,6,7
 612 166 612 166 602 197 c 1,8,-1
 88 1243 l 1,9,-1
 684 1243 l 1,10,-1
 899 762 l 1,11,-1
 1100 1243 l 1,12,-1
 1624 1243 l 1,13,-1
 1157 82 l 2,14,15
 1064 -145 1064 -145 952 -253 c 0,16,17
 815 -385 815 -385 614 -385 c 0,18,19
 339 -385 339 -385 201 -328 c 1,20,-1
 201 27 l 1,0,1
EndSplineSet
EndChar

StartChar: l
Encoding: 108 108 65
Width: 811
Flags: W
LayerCount: 2
Fore
SplineSet
690 0 m 1,0,-1
 123 0 l 1,1,-1
 123 1683 l 1,2,-1
 690 1683 l 1,3,-1
 690 0 l 1,0,-1
EndSplineSet
EndChar

StartChar: a
Encoding: 97 97 66
Width: 1726
Flags: W
LayerCount: 2
Fore
SplineSet
131.5 298.5 m 128,-1,1
 84 412 84 412 84 543 c 128,-1,2
 84 674 84 674 110 770 c 128,-1,3
 136 866 136 866 182 946.5 c 128,-1,4
 228 1027 228 1027 291.5 1091 c 0,5,6
 354 1155 354 1155 430 1199 c 0,7,8
 586 1290 586 1290 764 1290 c 0,9,10
 933 1290 933 1290 1064 1175 c 0,11,12
 1106 1138 1106 1138 1137 1090 c 1,13,-1
 1280 1243 l 1,14,-1
 1608 1243 l 1,15,-1
 1608 0 l 1,16,-1
 1280 0 l 1,17,-1
 1137 207 l 1,18,19
 1018 32 1018 32 800 -20 c 0,20,21
 732 -36 732 -36 640 -36.5 c 128,-1,22
 548 -37 548 -37 443.5 -0.5 c 128,-1,23
 339 36 339 36 259 110.5 c 128,-1,0
 179 185 179 185 131.5 298.5 c 128,-1,1
1069 866 m 1,24,25
 1033 887 1033 887 983 887 c 128,-1,26
 933 887 933 887 877.5 852 c 0,27,28
 822 816 822 816 778 762 c 0,29,30
 680 641 680 641 680 516 c 0,31,32
 680 428 680 428 734 392 c 0,33,34
 752 380 752 380 777.5 379.5 c 128,-1,35
 803 379 803 379 835.5 386.5 c 128,-1,36
 868 394 868 394 906 410 c 0,37,38
 989 444 989 444 1069 512 c 1,39,-1
 1069 866 l 1,24,25
EndSplineSet
EndChar

StartChar: j
Encoding: 106 106 67
Width: 1016
Flags: W
LayerCount: 2
Fore
SplineSet
451 -332 m 0,0,1
 210 -332 210 -332 31 -188 c 1,2,-1
 33 70 l 1,3,4
 73 53 73 53 119 53 c 128,-1,5
 165 53 165 53 196 78 c 0,6,7
 227 104 227 104 253 142 c 0,8,9
 313 231 313 231 313 317 c 2,10,-1
 313 1243 l 1,11,-1
 911 1243 l 1,12,-1
 911 111 l 2,13,14
 911 -92 911 -92 775 -215 c 0,15,16
 646 -332 646 -332 451 -332 c 0,0,1
492.5 1795 m 128,-1,18
 555 1819 555 1819 632 1819 c 128,-1,19
 709 1819 709 1819 761 1801.5 c 0,20,21
 814 1784 814 1784 848 1754 c 0,22,23
 916 1696 916 1696 915 1608 c 0,24,25
 915 1506 915 1506 829 1430 c 0,26,27
 734 1346 734 1346 584 1346 c 0,28,29
 372 1346 372 1346 320 1474 c 0,30,31
 305 1510 305 1510 305 1554 c 128,-1,32
 305 1598 305 1598 326 1646 c 128,-1,33
 347 1694 347 1694 388.5 1732.5 c 128,-1,17
 430 1771 430 1771 492.5 1795 c 128,-1,18
EndSplineSet
EndChar

StartChar: period
Encoding: 46 46 68
Width: 760
Flags: W
LayerCount: 2
Fore
SplineSet
405 551 m 0,0,1
 478 551 478 551 529.5 528 c 0,2,3
 582 505 582 505 616 467 c 0,4,5
 684 392 684 392 684 279 c 0,6,7
 684 154 684 154 600 63 c 0,8,9
 508 -37 508 -37 350 -37 c 0,10,11
 216 -36 216 -36 142 46 c 0,12,13
 76 119 76 119 76 233 c 0,14,15
 76 354 76 354 165 448 c 0,16,17
 262 550 262 550 405 551 c 0,0,1
EndSplineSet
EndChar

StartChar: oslash
Encoding: 248 248 69
Width: 1587
Flags: W
LayerCount: 2
Fore
SplineSet
510 1242 m 128,-1,1
 639 1290 639 1290 756.5 1290 c 128,-1,2
 874 1290 874 1290 981 1270 c 1,3,-1
 1053 1454 l 1,4,-1
 1217 1399 l 1,5,-1
 1147 1212 l 1,6,7
 1407 1088 1407 1088 1485 818 c 0,8,9
 1511 728 1511 728 1511 625 c 128,-1,10
 1511 522 1511 522 1483.5 433.5 c 128,-1,11
 1456 345 1456 345 1407.5 271.5 c 128,-1,12
 1359 198 1359 198 1291 140.5 c 0,13,14
 1222 84 1222 84 1142 44 c 0,15,16
 978 -36 978 -36 784 -37 c 0,17,18
 726 -37 726 -37 664 -27 c 1,19,-1
 602 -184 l 1,20,-1
 438 -129 l 1,21,-1
 496 18 l 1,22,23
 309 96 309 96 196 250 c 0,24,25
 74 416 74 416 74 627 c 0,26,27
 74 919 74 919 284 1107 c 0,28,0
 381 1194 381 1194 510 1242 c 128,-1,1
982 889 m 0,29,30
 962 899 962 899 930.5 899 c 128,-1,31
 899 899 899 899 861 880.5 c 128,-1,32
 823 862 823 862 786 830 c 128,-1,33
 749 798 749 798 715.5 756.5 c 128,-1,34
 682 715 682 715 657 669 c 0,35,36
 602 568 602 568 602 485 c 0,37,38
 602 405 602 405 664 377 c 0,39,40
 686 367 686 367 718 367 c 128,-1,41
 750 367 750 367 785 386.5 c 128,-1,42
 820 406 820 406 855 439 c 128,-1,43
 890 472 890 472 923 514.5 c 128,-1,44
 956 557 956 557 982 603 c 0,45,46
 1038 705 1038 705 1038 780 c 0,47,48
 1038 861 1038 861 982 889 c 0,29,30
EndSplineSet
EndChar

StartChar: slash
Encoding: 47 47 70
Width: 1042
Flags: W
LayerCount: 2
Fore
SplineSet
584 0 m 1,0,-1
 53 0 l 1,1,-1
 340 1597 l 1,2,-1
 1014 1597 l 1,3,-1
 584 0 l 1,0,-1
EndSplineSet
EndChar

StartChar: Oslash
Encoding: 216 216 71
Width: 1858
Flags: W
LayerCount: 2
Fore
SplineSet
954 1642 m 0,0,1
 1080 1642 1080 1642 1200 1614 c 1,2,-1
 1262 1804 l 1,3,-1
 1405 1763 l 1,4,-1
 1343 1571 l 1,5,6
 1580 1477 1580 1477 1714 1281 c 0,7,8
 1856 1076 1856 1076 1855 797 c 0,9,10
 1854 425 1854 425 1582 187 c 0,11,12
 1416 42 1416 42 1184 -12 c 0,13,14
 1070 -38 1070 -38 964.5 -38.5 c 128,-1,15
 859 -39 859 -39 762 -18 c 1,16,-1
 694 -225 l 1,17,-1
 551 -184 l 1,18,-1
 616 20 l 1,19,20
 370 116 370 116 222 314 c 0,21,22
 62 529 62 529 63 805 c 0,23,24
 64 1050 64 1050 186 1245 c 0,25,26
 302 1430 302 1430 506 1536 c 0,27,28
 708 1642 708 1642 954 1642 c 0,0,1
713 647 m 0,29,30
 713 481 713 481 881 481 c 0,31,32
 948 480 948 480 1034 570 c 0,33,34
 1159 702 1159 702 1211 890 c 0,35,36
 1227 948 1227 948 1227 990 c 128,-1,37
 1227 1032 1227 1032 1218 1061.5 c 0,38,39
 1210 1091 1210 1091 1190 1113 c 0,40,41
 1149 1159 1149 1159 1065 1159 c 0,42,43
 995 1159 995 1159 909 1071 c 0,44,45
 780 938 780 938 729 754 c 0,46,47
 713 696 713 696 713 647 c 0,29,30
EndSplineSet
EndChar

StartChar: dollar
Encoding: 36 36 72
Width: 1382
Flags: W
LayerCount: 2
Fore
SplineSet
453 451 m 0,0,1
 553 451 553 451 553 512 c 0,2,3
 553 558 553 558 477 600 c 0,4,5
 443 618 443 618 399.5 639 c 128,-1,6
 356 660 356 660 310.5 687 c 128,-1,7
 265 714 265 714 221.5 750.5 c 128,-1,8
 178 787 178 787 144 839 c 0,9,10
 68 955 68 955 68 1101 c 128,-1,11
 68 1247 68 1247 112 1336 c 128,-1,12
 156 1425 156 1425 231 1486 c 0,13,14
 373 1601 373 1601 614 1632 c 1,15,-1
 623 1802 l 1,16,-1
 776 1802 l 1,17,-1
 768 1640 l 1,18,19
 969 1638 969 1638 1172 1598 c 0,20,21
 1215 1590 1215 1590 1229 1585 c 1,22,-1
 1229 1114 l 1,23,24
 962 1171 962 1171 838 1171 c 0,25,26
 791 1171 791 1171 768 1155.5 c 128,-1,27
 745 1140 745 1140 745 1124.5 c 128,-1,28
 745 1109 745 1109 749.5 1100 c 0,29,30
 754 1092 754 1092 766 1082 c 0,31,32
 788 1064 788 1064 852 1039 c 128,-1,33
 916 1014 916 1014 978 989 c 128,-1,34
 1040 964 1040 964 1093 933 c 128,-1,35
 1146 902 1146 902 1189.5 863 c 0,36,37
 1234 824 1234 824 1264 771 c 0,38,39
 1328 661 1328 661 1327.5 509 c 128,-1,40
 1327 357 1327 357 1281 260 c 0,41,42
 1235 164 1235 164 1151 98 c 0,43,44
 981 -34 981 -34 682 -37 c 1,45,-1
 674 -205 l 1,46,-1
 520 -205 l 1,47,-1
 528 -33 l 1,48,49
 304 -21 304 -21 164 27 c 0,50,51
 103 48 103 48 72 72 c 1,52,-1
 72 545 l 1,53,54
 76 544 76 544 96.5 536.5 c 128,-1,55
 117 529 117 529 148 518.5 c 128,-1,56
 179 508 179 508 217.5 496.5 c 0,57,58
 256 484 256 484 297 474 c 0,59,60
 389 450 389 450 453 451 c 0,0,1
EndSplineSet
EndChar

StartChar: colon
Encoding: 58 58 73
Width: 717
Flags: W
LayerCount: 2
Fore
SplineSet
380 1290 m 0,0,1
 446 1290 446 1290 493 1269 c 128,-1,2
 540 1248 540 1248 572 1213 c 0,3,4
 636 1142 636 1142 635 1042 c 0,5,6
 636 928 636 928 560 846 c 0,7,8
 476 755 476 755 332 756 c 0,9,10
 206 756 206 756 141 830 c 0,11,12
 82 897 82 897 82 1001 c 0,13,14
 82 1110 82 1110 162 1196 c 0,15,16
 250 1290 250 1290 380 1290 c 0,0,1
380 535 m 0,17,18
 446 535 446 535 493 514 c 0,19,20
 540 492 540 492 572 458 c 0,21,22
 636 388 636 388 635 287 c 0,23,24
 636 174 636 174 560 91 c 0,25,26
 477 0 477 0 332 0 c 0,27,28
 207 0 207 0 141 76 c 0,29,30
 82 144 82 144 82 246 c 0,31,32
 82 356 82 356 162 442 c 0,33,34
 250 536 250 536 380 535 c 0,17,18
EndSplineSet
EndChar

StartChar: exclam
Encoding: 33 33 74
Width: 770
Flags: W
LayerCount: 2
Fore
SplineSet
575 639 m 1,0,-1
 203 639 l 1,1,-1
 100 1599 l 1,2,-1
 678 1599 l 1,3,-1
 575 639 l 1,0,-1
414 479 m 0,4,5
 484 479 484 479 532.5 459 c 0,6,7
 582 440 582 440 614 406 c 0,8,9
 678 340 678 340 678 242 c 0,10,11
 678 130 678 130 600 52 c 0,12,13
 512 -36 512 -36 362 -37 c 0,14,15
 232 -37 232 -37 164 35 c 0,16,17
 102 100 102 100 102 199 c 0,18,19
 102 306 102 306 186 388 c 0,20,21
 280 479 280 479 414 479 c 0,4,5
EndSplineSet
EndChar

StartChar: acute
Encoding: 180 180 75
Width: 625
Flags: W
LayerCount: 2
Fore
SplineSet
162 939 m 2,0,1
 106 869 106 869 69.5 869 c 128,-1,2
 33 869 33 869 33 924 c 0,3,4
 33 952 33 952 41 978 c 2,5,-1
 184 1477 l 1,6,-1
 592 1477 l 1,7,-1
 162 939 l 2,0,1
EndSplineSet
EndChar

StartChar: grave
Encoding: 96 96 76
Width: 625
Flags: W
LayerCount: 2
Fore
SplineSet
592 923 m 0,0,1
 592 868 592 868 555.5 868 c 128,-1,2
 519 868 519 868 463 938 c 2,3,-1
 33 1476 l 1,4,-1
 440 1476 l 1,5,-1
 584 977 l 2,6,7
 592 951 592 951 592 923 c 0,0,1
EndSplineSet
EndChar

StartChar: tilde
Encoding: 732 732 78
Width: 1098
Flags: W
LayerCount: 2
Fore
SplineSet
1063 1247 m 0,0,1
 1079 1247 1079 1247 1079 1231 c 0,2,3
 1079 951 1079 951 938 899 c 0,4,5
 895 883 895 883 839 883 c 128,-1,6
 783 883 783 883 714 899.5 c 0,7,8
 644 916 644 916 574 936 c 0,9,10
 387 989 387 989 305 989 c 0,11,12
 259 989 259 989 228 968.5 c 128,-1,13
 197 948 197 948 184 939 c 128,-1,14
 171 930 171 930 164 930 c 0,15,16
 145 930 145 930 145 946 c 0,17,18
 144 1224 144 1224 294 1274 c 0,19,20
 340 1290 340 1290 398 1290 c 128,-1,21
 456 1290 456 1290 526 1273.5 c 0,22,23
 596 1258 596 1258 666 1238 c 0,24,25
 851 1186 851 1186 899.5 1186 c 128,-1,26
 948 1186 948 1186 970.5 1195.5 c 128,-1,27
 993 1205 993 1205 1011 1216.5 c 128,-1,28
 1029 1228 1029 1228 1041.5 1237.5 c 128,-1,29
 1054 1247 1054 1247 1063 1247 c 0,0,1
EndSplineSet
EndChar

StartChar: cedilla
Encoding: 184 184 79
Width: 709
Flags: W
LayerCount: 2
Fore
SplineSet
209 -328 m 1,0,-1
 303 0 l 1,1,-1
 440 0 l 1,2,-1
 379 -190 l 1,3,-1
 401 -192 l 2,4,5
 503 -202 503 -202 545.5 -223.5 c 128,-1,6
 588 -245 588 -245 610 -268 c 0,7,8
 658 -319 658 -319 657.5 -391 c 128,-1,9
 657 -463 657 -463 632.5 -506 c 128,-1,10
 608 -549 608 -549 566 -577 c 0,11,12
 486 -631 486 -631 362 -631 c 0,13,14
 186 -631 186 -631 59 -545 c 1,15,16
 20 -514 20 -514 20 -486.5 c 128,-1,17
 20 -459 20 -459 38.5 -440.5 c 128,-1,18
 57 -422 57 -422 72 -422 c 128,-1,19
 87 -422 87 -422 106.5 -432 c 128,-1,20
 126 -442 126 -442 155 -454 c 0,21,22
 234 -486 234 -486 271.5 -485.5 c 128,-1,23
 309 -485 309 -485 324.5 -481.5 c 128,-1,24
 340 -478 340 -478 354 -470 c 0,25,26
 386 -452 386 -452 385.5 -425 c 128,-1,27
 385 -398 385 -398 370 -380.5 c 0,28,29
 355 -364 355 -364 330 -352 c 0,30,31
 279 -328 279 -328 209 -328 c 1,0,-1
EndSplineSet
EndChar

StartChar: circumflex
Encoding: 710 710 81
Width: 819
Flags: W
LayerCount: 2
Fore
SplineSet
268 1421 m 2,0,1
 289 1465 289 1465 329.5 1488 c 128,-1,2
 370 1511 370 1511 412 1511 c 256,3,4
 509 1511 509 1511 553 1421 c 2,5,-1
 758 1004 l 2,6,7
 772 976 772 976 772 940.5 c 128,-1,8
 772 905 772 905 743 905 c 0,9,10
 701 905 701 905 637 965 c 1,11,-1
 410 1171 l 1,12,-1
 184 965 l 2,13,14
 118 905 118 905 82.5 905 c 128,-1,15
 47 905 47 905 47 940 c 0,16,17
 47 968 47 968 63 1004 c 1,18,-1
 268 1421 l 2,0,1
EndSplineSet
EndChar

StartChar: paragraph
Encoding: 182 182 84
Width: 1751
Flags: W
LayerCount: 2
Fore
SplineSet
864 453 m 1,0,-1
 707 449 l 1,1,2
 414 449 414 449 226.5 636.5 c 128,-1,3
 39 824 39 824 39 1116 c 0,4,5
 39 1313 39 1313 167 1449 c 0,6,7
 306 1597 306 1597 539 1597 c 2,8,-1
 1628 1597 l 1,9,-1
 1628 0 l 1,10,-1
 1307 0 l 1,11,-1
 1307 1292 l 1,12,-1
 1192 1292 l 1,13,-1
 1192 0 l 1,14,-1
 864 0 l 1,15,-1
 864 453 l 1,0,-1
EndSplineSet
EndChar

StartChar: dieresis
Encoding: 168 168 89
Width: 1290
Flags: W
LayerCount: 2
Fore
SplineSet
356 1284 m 0,0,1
 414 1284 414 1284 455.5 1268 c 128,-1,2
 497 1252 497 1252 525 1225 c 0,3,4
 582 1170 582 1170 582 1083 c 0,5,6
 582 924 582 924 444 863 c 0,7,8
 396 842 396 842 334.5 842 c 128,-1,9
 273 842 273 842 230 858.5 c 0,10,11
 186 875 186 875 158 903 c 0,12,13
 102 959 102 959 102 1049 c 0,14,15
 102 1143 102 1143 169 1210 c 0,16,17
 243 1284 243 1284 356 1284 c 0,0,1
961 1284 m 0,18,19
 1019 1284 1019 1284 1061 1268 c 128,-1,20
 1103 1252 1103 1252 1131 1225 c 0,21,22
 1188 1170 1188 1170 1188 1083 c 0,23,24
 1188 923 1188 923 1052 863 c 0,25,26
 1004 842 1004 842 943 842 c 128,-1,27
 882 842 882 842 839 858.5 c 128,-1,28
 796 875 796 875 767 903 c 0,29,30
 709 959 709 959 709 1049 c 0,31,32
 710 1142 710 1142 776 1210 c 0,33,34
 848 1284 848 1284 961 1284 c 0,18,19
EndSplineSet
EndChar

StartChar: asterisk
Encoding: 42 42 93
Width: 1522
Flags: W
LayerCount: 2
Fore
SplineSet
875 1271 m 128,-1,1
 860 1221 860 1221 852 1193 c 0,2,3
 841 1153 841 1153 836 1128 c 1,4,-1
 872 1163 l 2,5,6
 915 1205 915 1205 964.5 1257 c 128,-1,7
 1014 1309 1014 1309 1066 1355 c 0,8,9
 1189 1464 1189 1464 1276 1464 c 0,10,11
 1336 1464 1336 1464 1390 1411 c 0,12,13
 1448 1355 1448 1355 1448 1290 c 128,-1,14
 1448 1225 1448 1225 1420 1188.5 c 128,-1,15
 1392 1152 1392 1152 1346.5 1126 c 128,-1,16
 1301 1100 1301 1100 1243.5 1082 c 128,-1,17
 1186 1064 1186 1064 1126.5 1049.5 c 128,-1,18
 1067 1035 1067 1035 1011 1022 c 128,-1,19
 955 1009 955 1009 913 993 c 1,20,21
 952 983 952 983 1007 972 c 128,-1,22
 1062 961 1062 961 1121 946 c 128,-1,23
 1180 931 1180 931 1239 910.5 c 128,-1,24
 1298 890 1298 890 1344 862 c 0,25,26
 1448 799 1448 799 1448 713 c 0,27,28
 1448 634 1448 634 1390 576 c 0,29,30
 1336 522 1336 522 1279.5 522 c 128,-1,31
 1223 522 1223 522 1170.5 554.5 c 128,-1,32
 1118 587 1118 587 1066.5 634 c 128,-1,33
 1015 681 1015 681 966 733 c 128,-1,34
 917 785 917 785 872 825 c 2,35,-1
 840 854 l 1,36,-1
 850 813 l 1,37,38
 859 765 859 765 874 715 c 128,-1,39
 889 665 889 665 903 614 c 0,40,41
 938 486 938 486 938 431.5 c 128,-1,42
 938 377 938 377 926 343.5 c 128,-1,43
 914 310 914 310 892 286 c 0,44,45
 844 234 844 234 760 233 c 256,46,47
 634 234 634 234 596 344 c 0,48,49
 584 378 584 378 584 423 c 128,-1,50
 584 468 584 468 596 528 c 128,-1,51
 608 588 608 588 624 647.5 c 128,-1,52
 640 707 640 707 657 762 c 128,-1,53
 674 817 674 817 684 858 c 1,54,-1
 649 825 l 1,55,56
 602 785 602 785 554 733 c 128,-1,57
 506 681 506 681 456 634 c 0,58,59
 338 522 338 522 246 522 c 0,60,61
 186 522 186 522 132 572 c 0,62,63
 74 627 74 627 74 692.5 c 128,-1,64
 74 758 74 758 103 795.5 c 128,-1,65
 132 833 132 833 179 860 c 128,-1,66
 226 887 226 887 285.5 906.5 c 128,-1,67
 345 926 345 926 405 940.5 c 128,-1,68
 465 955 465 955 520.5 967.5 c 128,-1,69
 576 980 576 980 616 993 c 1,70,71
 576 1006 576 1006 520.5 1018.5 c 128,-1,72
 465 1031 465 1031 405 1046 c 128,-1,73
 345 1061 345 1061 285.5 1080.5 c 128,-1,74
 226 1100 226 1100 179 1128 c 0,75,76
 74 1189 74 1189 74 1280 c 0,77,78
 74 1360 74 1360 132 1416 c 0,79,80
 185 1466 185 1466 243.5 1466 c 128,-1,81
 302 1466 302 1466 354.5 1434 c 128,-1,82
 407 1402 407 1402 457 1355.5 c 128,-1,83
 507 1309 507 1309 555 1256.5 c 128,-1,84
 603 1204 603 1204 649 1163 c 2,85,-1
 678 1137 l 1,86,87
 675 1146 675 1146 673.5 1155.5 c 128,-1,88
 672 1165 672 1165 665.5 1193.5 c 128,-1,89
 659 1222 659 1222 644.5 1272.5 c 0,90,91
 630 1322 630 1322 616 1374 c 0,92,93
 584 1498 584 1498 584 1556 c 128,-1,94
 584 1614 584 1614 595.5 1647 c 128,-1,95
 607 1680 607 1680 629 1704 c 0,96,97
 676 1755 676 1755 760 1755 c 256,98,99
 887 1755 887 1755 926 1647 c 0,100,101
 938 1614 938 1614 938 1570.5 c 128,-1,102
 938 1527 938 1527 928 1475.5 c 128,-1,103
 918 1424 918 1424 904 1372.5 c 128,-1,0
 890 1321 890 1321 875 1271 c 128,-1,1
EndSplineSet
EndChar

StartChar: ring
Encoding: 730 730 94
Width: 735
Flags: W
LayerCount: 2
Fore
SplineSet
367 1327 m 256,0,1
 266 1326 266 1326 234 1242 c 0,2,3
 225 1218 225 1218 225 1193 c 128,-1,4
 225 1168 225 1168 234 1143 c 0,5,6
 244 1118 244 1118 262 1098 c 0,7,8
 303 1055 303 1055 354.5 1055 c 128,-1,9
 406 1055 406 1055 432.5 1066.5 c 0,10,11
 458 1078 458 1078 476 1097 c 0,12,13
 512 1136 512 1136 512 1175.5 c 128,-1,14
 512 1215 512 1215 503 1239.5 c 128,-1,15
 494 1264 494 1264 476 1284 c 0,16,17
 434 1328 434 1328 367 1327 c 256,0,1
43 1192 m 0,18,19
 43 1272 43 1272 71 1330.5 c 0,20,21
 98 1388 98 1388 144 1428 c 0,22,23
 234 1506 234 1506 367 1507 c 0,24,25
 497 1508 497 1508 590 1428 c 0,26,27
 692 1340 692 1340 692 1192 c 0,28,29
 692 1041 692 1041 590 952 c 0,30,31
 499 872 499 872 369 872 c 0,32,33
 234 872 234 872 144 952 c 0,34,35
 42 1042 42 1042 43 1192 c 0,18,19
EndSplineSet
EndChar

StartChar: yen
Encoding: 165 165 97
Width: 1739
Flags: W
LayerCount: 2
Fore
SplineSet
178 932 m 1,0,-1
 377 932 l 1,1,-1
 53 1597 l 1,2,-1
 766 1597 l 1,3,-1
 926 1270 l 1,4,-1
 1090 1597 l 1,5,-1
 1686 1597 l 1,6,-1
 1356 932 l 1,7,-1
 1565 932 l 1,8,-1
 1565 748 l 1,9,-1
 1264 748 l 1,10,-1
 1208 635 l 1,11,-1
 1565 635 l 1,12,-1
 1565 451 l 1,13,-1
 1188 451 l 1,14,-1
 1188 0 l 1,15,-1
 541 0 l 1,16,-1
 541 451 l 1,17,-1
 178 451 l 1,18,-1
 178 635 l 1,19,-1
 520 635 l 1,20,-1
 465 748 l 1,21,-1
 178 748 l 1,22,-1
 178 932 l 1,0,-1
EndSplineSet
EndChar

StartChar: cent
Encoding: 162 162 98
Width: 1167
Flags: W
LayerCount: 2
Fore
SplineSet
778 401 m 0,0,1
 869 401 869 401 1085 561 c 1,2,-1
 1085 33 l 1,3,4
 929 -24 929 -24 784 -35 c 1,5,-1
 774 -205 l 1,6,-1
 623 -205 l 1,7,-1
 631 -31 l 1,8,9
 376 -6 376 -6 210 150 c 0,10,11
 29 319 29 319 29 584 c 0,12,13
 29 878 29 878 213 1070 c 0,14,15
 395 1259 395 1259 696 1288 c 1,16,-1
 705 1452 l 1,17,-1
 858 1452 l 1,18,-1
 848 1290 l 1,19,20
 986 1276 986 1276 1065 1249 c 1,21,-1
 1065 829 l 1,22,23
 1022 842 1022 842 967 842 c 128,-1,24
 912 842 912 842 857.5 824 c 128,-1,25
 803 806 803 806 761 772 c 0,26,27
 668 696 668 696 668 569 c 0,28,29
 668 401 668 401 778 401 c 0,0,1
EndSplineSet
EndChar

StartChar: germandbls
Encoding: 223 223 99
Width: 1806
Flags: W
LayerCount: 2
Fore
SplineSet
817 950 m 1,0,1
 975 1033 975 1033 975 1147 c 0,2,3
 974 1189 974 1189 954 1206 c 0,4,5
 922 1233 922 1233 890 1233 c 128,-1,6
 858 1233 858 1233 822 1217.5 c 128,-1,7
 786 1202 786 1202 754 1182 c 0,8,9
 680 1134 680 1134 680 1112 c 2,10,-1
 680 -55 l 1,11,-1
 55 -55 l 1,12,-1
 55 989 l 2,13,14
 55 1299 55 1299 345 1457 c 0,15,16
 598 1595 598 1595 975 1595 c 0,17,18
 1257 1595 1257 1595 1443 1497 c 0,19,20
 1640 1393 1640 1393 1640 1219 c 0,21,22
 1640 1072 1640 1072 1504 988 c 0,23,24
 1460 961 1460 961 1407 936 c 1,25,26
 1525 898 1525 898 1570.5 872 c 128,-1,27
 1616 846 1616 846 1650 814.5 c 128,-1,28
 1684 783 1684 783 1708 738 c 0,29,30
 1760 642 1760 642 1760.5 501.5 c 128,-1,31
 1761 361 1761 361 1718.5 272 c 128,-1,32
 1676 183 1676 183 1605 122 c 128,-1,33
 1534 61 1534 61 1441 25.5 c 128,-1,34
 1348 -10 1348 -10 1246 -29 c 0,35,36
 1085 -59 1085 -59 846 -59 c 2,37,-1
 834 -59 l 2,38,39
 825 -59 825 -59 817 -57 c 1,40,-1
 817 373 l 1,41,42
 857 396 857 396 899 419 c 128,-1,43
 941 442 941 442 975 472 c 0,44,45
 1053 541 1053 541 1053 649.5 c 128,-1,46
 1053 758 1053 758 961 758 c 0,47,48
 931 758 931 758 882 743.5 c 128,-1,49
 833 729 833 729 817 725 c 1,50,-1
 817 950 l 1,0,1
EndSplineSet
EndChar

StartChar: registered
Encoding: 174 174 100
Width: 2384
Flags: W
LayerCount: 2
Fore
SplineSet
1761 1008 m 0,0,1
 1761 800 1761 800 1540 680 c 1,2,-1
 1845 281 l 1,3,-1
 1288 281 l 1,4,-1
 1110 575 l 1,5,-1
 1092 575 l 1,6,-1
 1092 281 l 1,7,-1
 633 281 l 1,8,-1
 633 1405 l 1,9,-1
 1247 1405 l 2,10,11
 1480 1404 1480 1404 1626 1282 c 0,12,13
 1761 1168 1761 1168 1761 1008 c 0,0,1
1327 1014 m 0,14,15
 1327 1110 1327 1110 1246 1110 c 0,16,17
 1201 1110 1201 1110 1090 1047 c 1,18,-1
 1090 795 l 1,19,-1
 1178 844 l 1,20,21
 1205 862 1205 862 1231.5 877 c 128,-1,22
 1258 892 1258 892 1279 911 c 0,23,24
 1327 954 1327 954 1327 1014 c 0,14,15
1577.5 1638 m 128,-1,26
 1412 1710 1412 1710 1228.5 1710 c 128,-1,27
 1045 1710 1045 1710 923 1677 c 128,-1,28
 801 1644 801 1644 703 1584.5 c 128,-1,29
 605 1525 605 1525 531.5 1442 c 0,30,31
 458 1358 458 1358 409 1258 c 0,32,33
 311 1057 311 1057 311 805 c 256,34,35
 312 417 312 417 532 168 c 0,36,37
 682 -2 682 -2 923 -66 c 0,38,39
 1045 -98 1045 -98 1228.5 -98 c 128,-1,40
 1412 -98 1412 -98 1577.5 -26.5 c 128,-1,41
 1743 45 1743 45 1853 168 c 0,42,43
 2073 414 2073 414 2073 805 c 256,44,45
 2073 1194 2073 1194 1853 1442 c 0,46,25
 1743 1566 1743 1566 1577.5 1638 c 128,-1,26
76 805 m 256,47,48
 76 1151 76 1151 242 1409 c 0,49,50
 392 1644 392 1644 654 1772 c 0,51,52
 901 1893 901 1893 1192 1892 c 0,53,54
 1641 1892 1641 1892 1959 1620 c 0,55,56
 2177 1433 2177 1433 2264 1137 c 0,57,58
 2308 986 2308 986 2308 805 c 256,59,60
 2308 459 2308 459 2142 201 c 0,61,62
 1991 -34 1991 -34 1729 -162 c 0,63,64
 1482 -282 1482 -282 1192 -283 c 0,65,66
 740 -283 740 -283 424 -11 c 0,67,68
 206 177 206 177 120 473 c 0,69,70
 76 624 76 624 76 805 c 256,47,48
EndSplineSet
EndChar

StartChar: copyright
Encoding: 169 169 101
Width: 2384
Flags: W
LayerCount: 2
Fore
SplineSet
1149 786 m 0,0,1
 1149 633 1149 633 1257 633 c 0,2,3
 1321 633 1321 633 1392.5 676 c 128,-1,4
 1464 719 1464 719 1528 766 c 1,5,-1
 1528 293 l 1,6,7
 1375 233 1375 233 1232 233 c 128,-1,8
 1089 233 1089 233 978.5 270 c 0,9,10
 868 306 868 306 782 378 c 0,11,12
 590 536 590 536 590 797 c 0,13,14
 590 1084 590 1084 778 1262 c 0,15,16
 965 1440 965 1440 1264 1440 c 0,17,18
 1415 1440 1415 1440 1507 1405 c 1,19,-1
 1507 1026 l 1,20,21
 1464 1042 1464 1042 1410.5 1042 c 128,-1,22
 1357 1042 1357 1042 1309.5 1022 c 128,-1,23
 1262 1002 1262 1002 1226 968 c 0,24,25
 1148 892 1148 892 1149 786 c 0,0,1
1577.5 1638 m 128,-1,27
 1412 1710 1412 1710 1228.5 1710 c 128,-1,28
 1045 1710 1045 1710 923 1677 c 128,-1,29
 801 1644 801 1644 703 1584.5 c 128,-1,30
 605 1525 605 1525 531.5 1442 c 0,31,32
 458 1358 458 1358 409 1258 c 0,33,34
 311 1057 311 1057 311 805 c 256,35,36
 312 417 312 417 532 168 c 0,37,38
 682 -2 682 -2 923 -66 c 0,39,40
 1045 -98 1045 -98 1228.5 -98 c 128,-1,41
 1412 -98 1412 -98 1577.5 -26.5 c 128,-1,42
 1743 45 1743 45 1853 168 c 0,43,44
 2073 414 2073 414 2073 805 c 256,45,46
 2073 1194 2073 1194 1853 1442 c 0,47,26
 1743 1566 1743 1566 1577.5 1638 c 128,-1,27
76 805 m 256,48,49
 76 1151 76 1151 242 1409 c 0,50,51
 392 1644 392 1644 654 1772 c 0,52,53
 901 1893 901 1893 1192 1892 c 0,54,55
 1641 1892 1641 1892 1959 1620 c 0,56,57
 2177 1433 2177 1433 2264 1137 c 0,58,59
 2308 986 2308 986 2308 805 c 256,60,61
 2308 459 2308 459 2142 201 c 0,62,63
 1991 -34 1991 -34 1729 -162 c 0,64,65
 1482 -282 1482 -282 1192 -283 c 0,66,67
 740 -283 740 -283 424 -11 c 0,68,69
 206 177 206 177 120 473 c 0,70,71
 76 624 76 624 76 805 c 256,48,49
EndSplineSet
EndChar

StartChar: oe
Encoding: 339 339 102
Width: 2544
Flags: W
LayerCount: 2
Fore
SplineSet
1210 137 m 1,0,1
 994 -37 994 -37 721 -37 c 0,2,3
 414 -38 414 -38 236 162 c 0,4,5
 74 344 74 344 74 606 c 0,6,7
 74 880 74 880 251 1075 c 0,8,9
 446 1290 446 1290 782 1290 c 0,10,11
 1045 1290 1045 1290 1233 1106 c 1,12,13
 1447 1292 1447 1292 1759 1292 c 0,14,15
 2004 1292 2004 1292 2138 1173 c 0,16,17
 2258 1067 2258 1067 2258 903 c 0,18,19
 2258 716 2258 716 2108 570 c 0,20,21
 1947 412 1947 412 1692 412 c 0,22,23
 1673 412 1673 412 1654 412 c 128,-1,24
 1635 412 1635 412 1612 414 c 1,25,26
 1612 334 1612 334 1718 328 c 0,27,28
 1748 326 1748 326 1777.5 326 c 128,-1,29
 1807 326 1807 326 1841.5 329 c 128,-1,30
 1876 332 1876 332 1922 346 c 0,31,32
 2027 377 2027 377 2165 467 c 1,33,-1
 2226 156 l 1,34,35
 2150 60 2150 60 1971 8 c 0,36,37
 1816 -37 1816 -37 1634 -37 c 0,38,39
 1390 -37 1390 -37 1210 137 c 1,0,1
606 508 m 0,40,41
 606 381 606 381 721 381 c 0,42,43
 798 382 798 382 886 522 c 0,44,45
 974 661 974 661 973 776 c 0,46,47
 973 827 973 827 946.5 862 c 128,-1,48
 920 897 920 897 876.5 897 c 128,-1,49
 833 897 833 897 804 879 c 128,-1,50
 775 861 775 861 747 830.5 c 128,-1,51
 719 800 719 800 693.5 760.5 c 0,52,53
 668 722 668 722 648 678 c 0,54,55
 606 584 606 584 606 508 c 0,40,41
1784 864 m 1,56,-1
 1786 887 l 1,57,58
 1786 975 1786 975 1704 975 c 1,59,60
 1622 966 1622 966 1594 878 c 0,61,62
 1580 836 1580 836 1574 780.5 c 128,-1,63
 1568 725 1568 725 1559 662 c 1,64,-1
 1765 711 l 1,65,-1
 1784 864 l 1,56,-1
EndSplineSet
EndChar

StartChar: Thorn
Encoding: 222 222 103
Width: 1661
Flags: W
LayerCount: 2
Fore
SplineSet
715 1468 m 1,0,1
 930 1536 930 1536 1086 1536 c 128,-1,2
 1242 1536 1242 1536 1341.5 1494 c 128,-1,3
 1441 1452 1441 1452 1505 1382 c 0,4,5
 1628 1247 1628 1247 1628 1020 c 0,6,7
 1628 653 1628 653 1395 438 c 0,8,9
 1155 217 1155 217 715 207 c 1,10,-1
 715 0 l 1,11,-1
 61 0 l 1,12,-1
 61 1599 l 1,13,-1
 715 1599 l 1,14,-1
 715 1468 l 1,0,1
948 1116 m 0,15,16
 869 1116 869 1116 711 1006 c 1,17,-1
 711 649 l 1,18,-1
 821 702 l 2,19,20
 930 754 930 754 974 805 c 0,21,22
 1055 899 1055 899 1055 999 c 0,23,24
 1055 1049 1055 1049 1027 1082.5 c 128,-1,25
 999 1116 999 1116 948 1116 c 0,15,16
EndSplineSet
EndChar

StartChar: dotlessi
Encoding: 305 305 108
Width: 700
Flags: W
LayerCount: 2
Fore
SplineSet
639 0 m 1,0,-1
 61 0 l 1,1,-1
 61 1243 l 1,2,-1
 639 1243 l 1,3,-1
 639 0 l 1,0,-1
EndSplineSet
EndChar

StartChar: eth
Encoding: 240 240 124
Width: 1663
Flags: W
LayerCount: 2
Fore
SplineSet
714 983 m 0,0,1
 860 983 860 983 1028 928 c 1,2,3
 1028 1167 1028 1167 813 1245 c 1,4,-1
 760 1063 l 1,5,-1
 551 1104 l 1,6,-1
 602 1278 l 1,7,8
 432 1278 432 1278 264 1229 c 1,9,-1
 207 1532 l 1,10,11
 475 1597 475 1597 688 1597 c 2,12,-1
 698 1597 l 1,13,-1
 776 1855 l 1,14,-1
 983 1815 l 1,15,-1
 911 1573 l 1,16,17
 1212 1507 1212 1507 1394 1289 c 0,18,19
 1586 1059 1586 1059 1587 727 c 0,20,21
 1587 344 1587 344 1334 142 c 0,22,23
 1109 -38 1109 -38 766 -37 c 0,24,25
 490 -37 490 -37 304 75 c 0,26,27
 74 214 74 214 74 506 c 0,28,29
 74 750 74 750 265 876 c 0,30,31
 428 984 428 984 714 983 c 0,0,1
1022 694 m 1,32,33
 997 715 997 715 943.5 715 c 128,-1,34
 890 715 890 715 834.5 688.5 c 128,-1,35
 779 662 779 662 734 620 c 0,36,37
 633 526 633 526 633 426 c 0,38,39
 634 338 634 338 686 302 c 0,40,41
 704 290 704 290 731 289 c 0,42,43
 862 289 862 289 1022 420 c 1,44,-1
 1022 694 l 1,32,33
EndSplineSet
EndChar

StartChar: fi
Encoding: 64257 64257 125
Width: 1882
Flags: W
LayerCount: 2
Fore
SplineSet
1081 1454 m 1,0,1
 1041 1468 1041 1468 995.5 1468 c 128,-1,2
 950 1468 950 1468 913 1452.5 c 128,-1,3
 876 1437 876 1437 848 1408 c 0,4,5
 788 1346 788 1346 780 1243 c 1,6,-1
 1778 1243 l 1,7,-1
 1778 0 l 1,8,-1
 1200 0 l 1,9,-1
 1200 926 l 1,10,-1
 780 926 l 1,11,-1
 780 0 l 1,12,-1
 182 0 l 1,13,-1
 182 926 l 1,14,-1
 68 926 l 1,15,-1
 68 1243 l 1,16,-1
 182 1243 l 1,17,-1
 182 1495 l 2,18,19
 182 1662 182 1662 318 1761 c 0,20,21
 447 1855 447 1855 643 1855 c 0,22,23
 899 1855 899 1855 1081 1753 c 1,24,-1
 1081 1454 l 1,0,1
1514 1882 m 0,25,26
 1584 1882 1584 1882 1632.5 1862 c 0,27,28
 1682 1842 1682 1842 1714 1808 c 0,29,30
 1778 1742 1778 1742 1778 1645 c 0,31,32
 1778 1532 1778 1532 1700 1454 c 0,33,34
 1612 1366 1612 1366 1462 1366 c 0,35,36
 1332 1366 1332 1366 1264 1438 c 0,37,38
 1202 1503 1202 1503 1202 1602 c 0,39,40
 1202 1709 1202 1709 1286 1791 c 0,41,42
 1380 1882 1380 1882 1514 1882 c 0,25,26
EndSplineSet
Ligature2: "'liga' Standard Ligatures lookup 0 subtable" f i
EndChar

StartChar: fl
Encoding: 64258 64258 126
Width: 1896
Flags: W
LayerCount: 2
Fore
SplineSet
741 1335 m 0,0,1
 741 1292 741 1292 756 1243 c 1,2,-1
 1063 1243 l 1,3,-1
 1063 926 l 1,4,-1
 780 926 l 1,5,-1
 780 0 l 1,6,-1
 182 0 l 1,7,-1
 182 926 l 1,8,-1
 68 926 l 1,9,-1
 68 1243 l 1,10,-1
 182 1243 l 1,11,-1
 182 1352 l 2,12,13
 182 1738 182 1738 681 1814 c 0,14,15
 833 1837 833 1837 968.5 1837 c 128,-1,16
 1104 1837 1104 1837 1213 1826 c 0,17,18
 1322 1816 1322 1816 1428 1798 c 0,19,20
 1655 1761 1655 1761 1776 1712 c 1,21,-1
 1776 0 l 1,22,-1
 1198 0 l 1,23,-1
 1198 1475 l 1,24,25
 1096 1507 1096 1507 979 1507 c 0,26,27
 741 1507 741 1507 741 1335 c 0,0,1
EndSplineSet
Ligature2: "'liga' Standard Ligatures lookup 0 subtable" f l
EndChar

StartChar: Eth
Encoding: 208 208 148
Width: 1812
Flags: W
LayerCount: 2
Fore
SplineSet
123 1597 m 1,0,1
 730 1642 730 1642 915.5 1642 c 128,-1,2
 1101 1642 1101 1642 1208.5 1607.5 c 128,-1,3
 1316 1573 1316 1573 1401 1512.5 c 128,-1,4
 1486 1452 1486 1452 1549 1370.5 c 128,-1,5
 1612 1289 1612 1289 1653 1195 c 0,6,7
 1735 1007 1735 1007 1735 808 c 128,-1,8
 1735 609 1735 609 1670.5 461 c 0,9,10
 1606 312 1606 312 1492 210 c 0,11,12
 1259 -1 1259 -1 889 0 c 2,13,-1
 123 0 l 1,14,-1
 123 748 l 1,15,-1
 49 748 l 1,16,-1
 49 983 l 1,17,-1
 123 983 l 1,18,-1
 123 1597 l 1,0,1
745 1090 m 1,19,-1
 745 983 l 1,20,-1
 922 983 l 1,21,-1
 922 748 l 1,22,-1
 745 748 l 1,23,-1
 745 481 l 1,24,25
 798 526 798 526 860 570.5 c 128,-1,26
 922 615 922 615 975 667 c 0,27,28
 1098 788 1098 788 1098 928 c 0,29,30
 1098 1019 1098 1019 1047 1092 c 0,31,32
 990 1174 990 1174 903.5 1174 c 128,-1,33
 817 1174 817 1174 745 1090 c 1,19,-1
EndSplineSet
EndChar

StartChar: ae
Encoding: 230 230 149
Width: 2468
Flags: W
LayerCount: 2
Fore
SplineSet
1288 1126 m 1,0,1
 1503 1292 1503 1292 1815 1292 c 0,2,3
 2086 1292 2086 1292 2235 1165 c 0,4,5
 2365 1054 2365 1054 2365 885 c 0,6,7
 2364 704 2364 704 2206 575 c 0,8,9
 2031 432 2031 432 1747 432 c 0,10,11
 1722 432 1722 432 1694 432 c 128,-1,12
 1666 432 1666 432 1642 434 c 1,13,14
 1642 315 1642 315 1769 304 c 0,15,16
 1804 301 1804 301 1837 301 c 128,-1,17
 1870 301 1870 301 1920.5 308 c 0,18,19
 1972 316 1972 316 2032 334 c 0,20,21
 2179 379 2179 379 2281 467 c 1,22,-1
 2343 156 l 1,23,24
 2120 -37 2120 -37 1669 -37 c 0,25,26
 1440 -37 1440 -37 1264 83 c 0,27,28
 1206 123 1206 123 1159 176 c 1,29,30
 888 -37 888 -37 651 -37 c 0,31,32
 407 -38 407 -38 249 110 c 0,33,34
 74 273 74 273 74 565 c 0,35,36
 74 774 74 774 184 946 c 0,37,38
 341 1190 341 1190 642 1266 c 0,39,40
 737 1290 737 1290 798 1290 c 128,-1,41
 859 1290 859 1290 894.5 1285.5 c 128,-1,42
 930 1281 930 1281 972 1272.5 c 128,-1,43
 1014 1264 1014 1264 1059 1250.5 c 128,-1,44
 1104 1237 1104 1237 1146 1219 c 0,45,46
 1240 1179 1240 1179 1288 1126 c 1,0,1
1018 866 m 1,47,48
 982 887 982 887 932 887 c 128,-1,49
 882 887 882 887 826.5 852 c 0,50,51
 771 816 771 816 727 762 c 0,52,53
 629 641 629 641 629 516 c 0,54,55
 628 428 628 428 682 392 c 0,56,57
 700 380 700 380 726 379.5 c 128,-1,58
 752 379 752 379 784.5 386.5 c 128,-1,59
 817 394 817 394 855 410 c 0,60,61
 938 444 938 444 1018 512 c 1,62,-1
 1018 866 l 1,47,48
1882 887 m 1,63,64
 1882 975 1882 975 1800 975 c 1,65,66
 1706 966 1706 966 1678 878 c 0,67,68
 1664 836 1664 836 1658.5 780.5 c 128,-1,69
 1653 725 1653 725 1642 662 c 1,70,-1
 1862 711 l 1,71,-1
 1880 864 l 1,72,-1
 1882 887 l 1,63,64
EndSplineSet
EndChar

StartChar: plus
Encoding: 43 43 150
Width: 1087
Flags: W
LayerCount: 2
Fore
SplineSet
360 963 m 1,0,-1
 360 1290 l 1,1,-1
 729 1290 l 1,2,-1
 729 963 l 1,3,-1
 1055 963 l 1,4,-1
 1055 594 l 1,5,-1
 729 594 l 1,6,-1
 729 268 l 1,7,-1
 360 268 l 1,8,-1
 360 594 l 1,9,-1
 33 594 l 1,10,-1
 33 963 l 1,11,-1
 360 963 l 1,0,-1
EndSplineSet
EndChar

StartChar: multiply
Encoding: 215 215 151
Width: 1171
Flags: W
LayerCount: 2
Fore
SplineSet
326 651 m 1,0,-1
 66 911 l 1,1,-1
 326 1171 l 1,2,-1
 588 911 l 1,3,-1
 846 1171 l 1,4,-1
 1108 909 l 1,5,-1
 848 651 l 1,6,-1
 1108 391 l 1,7,-1
 846 131 l 1,8,-1
 588 389 l 1,9,-1
 326 129 l 1,10,-1
 66 389 l 1,11,-1
 326 651 l 1,0,-1
EndSplineSet
EndChar

StartChar: bracketleft
Encoding: 91 91 152
Width: 1188
Flags: W
LayerCount: 2
Fore
SplineSet
123 -37 m 1,0,-1
 123 1640 l 1,1,-1
 1067 1640 l 1,2,-1
 1067 1354 l 1,3,-1
 745 1354 l 1,4,-1
 745 236 l 1,5,-1
 1067 236 l 1,6,-1
 1067 -37 l 1,7,-1
 123 -37 l 1,0,-1
EndSplineSet
EndChar

StartChar: bracketright
Encoding: 93 93 153
Width: 1188
Flags: W
LayerCount: 2
Fore
SplineSet
123 -37 m 1,0,-1
 123 236 l 1,1,-1
 444 236 l 1,2,-1
 444 1354 l 1,3,-1
 123 1354 l 1,4,-1
 123 1640 l 1,5,-1
 1067 1640 l 1,6,-1
 1067 -37 l 1,7,-1
 123 -37 l 1,0,-1
EndSplineSet
EndChar

StartChar: comma
Encoding: 44 44 154
Width: 809
Flags: W
LayerCount: 2
Fore
SplineSet
123 -207 m 1,0,1
 234 -207 234 -207 280 -104 c 1,2,3
 299 -58 299 -58 303 0 c 1,4,-1
 123 0 l 1,5,-1
 123 422 l 1,6,-1
 731 422 l 1,7,-1
 731 18 l 2,8,9
 731 -336 731 -336 397 -432 c 0,10,11
 282 -465 282 -465 123 -465 c 1,12,-1
 123 -207 l 1,0,1
EndSplineSet
EndChar

StartChar: semicolon
Encoding: 59 59 155
Width: 778
Flags: W
LayerCount: 2
Fore
SplineSet
94 -78 m 1,0,1
 205 -78 205 -78 251 25 c 1,2,3
 270 71 270 71 274 129 c 1,4,-1
 94 129 l 1,5,-1
 94 551 l 1,6,-1
 702 551 l 1,7,-1
 702 147 l 2,8,9
 702 -207 702 -207 368 -303 c 0,10,11
 253 -336 253 -336 94 -336 c 1,12,-1
 94 -78 l 1,0,1
427 1290 m 0,13,14
 493 1290 493 1290 540 1269 c 0,15,16
 586 1248 586 1248 618 1213 c 0,17,18
 682 1142 682 1142 682 1042 c 0,19,20
 682 928 682 928 606 846 c 0,21,22
 522 756 522 756 379 756 c 0,23,24
 253 756 253 756 188 830 c 0,25,26
 129 897 129 897 129 1001 c 0,27,28
 129 1110 129 1110 209 1196 c 0,29,30
 297 1290 297 1290 427 1290 c 0,13,14
EndSplineSet
EndChar

StartChar: caron
Encoding: 711 711 157
Width: 786
Flags: W
LayerCount: 2
Fore
SplineSet
47 1407 m 1,0,1
 31 1445 31 1445 31 1475 c 128,-1,2
 31 1505 31 1505 61 1505 c 0,3,4
 103 1505 103 1505 168 1446 c 2,5,-1
 393 1239 l 1,6,-1
 621 1446 l 1,7,8
 684 1505 684 1505 720 1505 c 128,-1,9
 756 1505 756 1505 756 1470 c 0,10,11
 756 1437 756 1437 741 1407 c 2,12,-1
 537 989 l 2,13,14
 493 899 493 899 395 899 c 0,15,16
 354 899 354 899 313.5 922.5 c 128,-1,17
 273 946 273 946 252 989 c 2,18,-1
 47 1407 l 1,0,1
EndSplineSet
EndChar

StartChar: Lslash
Encoding: 321 321 160
Width: 1321
Flags: W
LayerCount: 2
Fore
SplineSet
0 911 m 1,0,-1
 123 954 l 1,1,-1
 123 1597 l 1,2,-1
 745 1597 l 1,3,-1
 745 1176 l 1,4,-1
 928 1241 l 1,5,-1
 928 870 l 1,6,-1
 745 805 l 1,7,-1
 745 481 l 1,8,-1
 1282 481 l 1,9,-1
 1282 0 l 1,10,-1
 123 0 l 1,11,-1
 123 584 l 1,12,-1
 0 541 l 1,13,-1
 0 911 l 1,0,-1
EndSplineSet
EndChar

StartChar: lslash
Encoding: 322 322 161
Width: 741
Flags: W
LayerCount: 2
Fore
SplineSet
690 1176 m 1,0,-1
 872 1241 l 1,1,-1
 872 870 l 1,2,-1
 690 805 l 1,3,-1
 690 0 l 1,4,-1
 123 0 l 1,5,-1
 123 604 l 1,6,-1
 -55 541 l 1,7,-1
 -55 911 l 1,8,-1
 123 973 l 1,9,-1
 123 1774 l 1,10,-1
 690 1774 l 1,11,-1
 690 1176 l 1,0,-1
EndSplineSet
EndChar

StartChar: ogonek
Encoding: 731 731 162
Width: 696
Flags: W
LayerCount: 2
Fore
SplineSet
311 -387 m 0,0,1
 311 -483 311 -483 401 -483 c 0,2,3
 486 -483 486 -483 590 -430 c 0,4,5
 610 -420 610 -420 624.5 -420 c 128,-1,6
 639 -420 639 -420 657.5 -438.5 c 128,-1,7
 676 -457 676 -457 676 -476 c 0,8,9
 676 -512 676 -512 637 -543 c 1,10,11
 506 -629 506 -629 334 -629 c 0,12,13
 136 -629 136 -629 64 -504 c 0,14,15
 40 -461 40 -461 39.5 -412 c 128,-1,16
 39 -363 39 -363 51 -325.5 c 0,17,18
 62 -288 62 -288 82 -252 c 0,19,20
 155 -120 155 -120 317 0 c 1,21,-1
 455 0 l 1,22,23
 311 -256 311 -256 311 -387 c 0,0,1
EndSplineSet
EndChar

StartChar: currency
Encoding: 164 164 163
Width: 1620
Flags: W
LayerCount: 2
Fore
SplineSet
1190 360 m 1,0,1
 1024 276 1024 276 810 276 c 128,-1,2
 596 276 596 276 436 356 c 1,3,-1
 313 217 l 1,4,-1
 184 315 l 1,5,-1
 299 446 l 1,6,7
 90 627 90 627 90 907 c 256,8,9
 90 1106 90 1106 208 1269 c 0,10,11
 247 1323 247 1323 299 1368 c 1,12,-1
 184 1501 l 1,13,-1
 313 1599 l 1,14,-1
 436 1458 l 1,15,16
 605 1538 605 1538 814.5 1538 c 128,-1,17
 1024 1538 1024 1538 1188 1454 c 1,18,-1
 1317 1599 l 1,19,-1
 1446 1501 l 1,20,-1
 1323 1364 l 1,21,22
 1474 1230 1474 1230 1515 1032 c 0,23,24
 1528 970 1528 970 1528 907 c 0,25,26
 1528 780 1528 780 1477.5 661 c 128,-1,27
 1427 542 1427 542 1325 451 c 1,28,-1
 1446 315 l 1,29,-1
 1317 217 l 1,30,-1
 1190 360 l 1,0,1
809 635 m 256,31,32
 922 635 922 635 1000 705 c 0,33,34
 1086 783 1086 783 1085 915 c 0,35,36
 1085 1044 1085 1044 999 1118 c 0,37,38
 920 1186 920 1186 809 1186 c 256,39,40
 697 1186 697 1186 618 1118 c 0,41,42
 532 1044 532 1044 532 915 c 0,43,44
 532 783 532 783 618 705 c 0,45,46
 696 635 696 635 809 635 c 256,31,32
EndSplineSet
EndChar

StartChar: mu
Encoding: 181 181 164
Width: 1649
Flags: W
LayerCount: 2
Fore
SplineSet
848 0 m 0,0,1
 787 0 787 0 721 27 c 1,2,-1
 721 -233 l 1,3,-1
 123 -233 l 1,4,-1
 123 1243 l 1,5,-1
 721 1243 l 1,6,-1
 721 438 l 2,7,8
 721 386 721 386 745 362 c 0,9,10
 785 322 785 322 829 322 c 128,-1,11
 873 322 873 322 914 356 c 128,-1,12
 955 390 955 390 977 467 c 1,13,-1
 977 1243 l 1,14,-1
 1571 1243 l 1,15,-1
 1571 0 l 1,16,-1
 1243 0 l 1,17,-1
 1100 195 l 1,18,19
 1030 0 1030 0 848 0 c 0,0,1
EndSplineSet
EndChar

StartChar: percent
Encoding: 37 37 165
Width: 3320
Flags: W
LayerCount: 2
Fore
SplineSet
2640 313 m 256,0,1
 2727 314 2727 314 2778 390 c 0,2,3
 2824 459 2824 459 2824 559 c 256,4,5
 2824 721 2824 721 2720 787 c 0,6,7
 2686 809 2686 809 2639.5 809 c 128,-1,8
 2593 809 2593 809 2558 788 c 0,9,10
 2523 766 2523 766 2500 732 c 0,11,12
 2454 663 2454 663 2454 563 c 128,-1,13
 2454 463 2454 463 2501 391 c 0,14,15
 2552 313 2552 313 2640 313 c 256,0,1
2639 -37 m 0,16,17
 2485 -37 2485 -37 2369.5 14.5 c 128,-1,18
 2254 66 2254 66 2177 150 c 0,19,20
 2023 318 2023 318 2023 561 c 256,21,22
 2023 804 2023 804 2177 972 c 0,23,24
 2348 1159 2348 1159 2640 1159 c 0,25,26
 2930 1159 2930 1159 3102 972 c 0,27,28
 3256 805 3256 805 3256 561 c 256,29,30
 3256 317 3256 317 3102 150 c 0,31,32
 2930 -37 2930 -37 2639 -37 c 0,16,17
676 795 m 256,33,34
 763 796 763 796 814 872 c 0,35,36
 860 941 860 941 860 1040 c 256,37,38
 860 1202 860 1202 756 1268 c 0,39,40
 722 1290 722 1290 675.5 1290 c 128,-1,41
 629 1290 629 1290 594 1269 c 0,42,43
 560 1248 560 1248 536 1214 c 0,44,45
 490 1146 490 1146 489 1044 c 0,46,47
 488 944 488 944 536 873 c 0,48,49
 588 795 588 795 676 795 c 256,33,34
675 444 m 0,50,51
 521 444 521 444 405.5 495.5 c 128,-1,52
 290 547 290 547 213 631 c 0,53,54
 59 799 59 799 59 1042 c 256,55,56
 59 1285 59 1285 213 1453 c 0,57,58
 384 1640 384 1640 676 1640 c 0,59,60
 966 1640 966 1640 1138 1453 c 0,61,62
 1292 1286 1292 1286 1292 1042 c 256,63,64
 1292 798 1292 798 1138 631 c 0,65,66
 966 444 966 444 675 444 c 0,50,51
1430 0 m 1,67,-1
 1165 0 l 1,68,-1
 1718 1597 l 1,69,-1
 2310 1597 l 1,70,-1
 1430 0 l 1,67,-1
EndSplineSet
EndChar

StartChar: fraction
Encoding: 8260 8260 166
Width: 1171
Flags: W
LayerCount: 2
Fore
SplineSet
285 0 m 1,0,-1
 20 0 l 1,1,-1
 573 1597 l 1,2,-1
 1165 1597 l 1,3,-1
 285 0 l 1,0,-1
EndSplineSet
EndChar

StartChar: breve
Encoding: 728 728 168
Width: 1317
Flags: W
LayerCount: 2
Fore
SplineSet
1274 1465 m 1,0,1
 1274 1213 1274 1213 1119 1042 c 0,2,3
 950 855 950 855 657 855 c 256,4,5
 364 855 364 855 195 1044 c 0,6,7
 41 1216 41 1216 41 1472 c 1,8,-1
 471 1472 l 1,9,10
 470 1360 470 1360 518 1285 c 0,11,12
 569 1205 569 1205 657 1205 c 256,13,14
 744 1205 744 1205 796 1284 c 0,15,16
 842 1355 842 1355 842 1465 c 1,17,-1
 1274 1465 l 1,0,1
EndSplineSet
EndChar

StartChar: uni0326
Encoding: 806 806 181
Width: 715
Flags: W
LayerCount: 2
Fore
SplineSet
53 -764 m 1,0,1
 164 -764 164 -764 210 -661 c 1,2,3
 229 -615 229 -615 233 -557 c 1,4,-1
 53 -557 l 1,5,-1
 53 -135 l 1,6,-1
 662 -135 l 1,7,-1
 662 -539 l 2,8,9
 662 -893 662 -893 327 -989 c 0,10,11
 212 -1022 212 -1022 53 -1022 c 1,12,-1
 53 -764 l 1,0,1
EndSplineSet
EndChar

StartChar: kgreenlandic
Encoding: 312 312 183
Width: 1556
Flags: W
LayerCount: 2
Fore
SplineSet
641 1243 m 1,0,-1
 641 852 l 1,1,-1
 877 1243 l 1,2,-1
 1466 1243 l 1,3,-1
 1071 668 l 1,4,-1
 1528 0 l 1,5,-1
 918 0 l 1,6,-1
 651 416 l 1,7,-1
 651 0 l 1,8,-1
 123 0 l 1,9,-1
 123 1243 l 1,10,-1
 641 1243 l 1,0,-1
EndSplineSet
EndChar

StartChar: hbar
Encoding: 295 295 189
Width: 1649
Flags: W
LayerCount: 2
Fore
SplineSet
836 907 m 0,0,1
 740 907 740 907 740 776 c 2,2,-1
 740 0 l 1,3,-1
 146 0 l 1,4,-1
 146 1336 l 1,5,-1
 -10 1336 l 1,6,-1
 -10 1539 l 1,7,-1
 146 1539 l 1,8,-1
 146 1683 l 1,9,-1
 740 1683 l 1,10,-1
 740 1539 l 1,11,-1
 903 1539 l 1,12,-1
 903 1336 l 1,13,-1
 740 1336 l 1,14,-1
 740 1110 l 1,15,16
 836 1239 836 1239 1014 1278 c 0,17,18
 1070 1290 1070 1290 1148.5 1290 c 128,-1,19
 1227 1290 1227 1290 1315 1254 c 128,-1,20
 1403 1218 1403 1218 1468 1150 c 0,21,22
 1608 1005 1608 1005 1608 766 c 2,23,-1
 1608 0 l 1,24,-1
 1010 0 l 1,25,-1
 1010 539 l 2,26,27
 1010 700 1010 700 957 806 c 0,28,29
 906 907 906 907 836 907 c 0,0,1
EndSplineSet
EndChar

StartChar: ij
Encoding: 307 307 190
Width: 1721
Flags: W
LayerCount: 2
Fore
SplineSet
1156 -402 m 0,0,1
 915 -402 915 -402 736 -258 c 1,2,-1
 738 -70 l 1,3,4
 778 -87 778 -87 824 -87 c 128,-1,5
 870 -87 870 -87 901 -62 c 0,6,7
 932 -36 932 -36 958 2 c 0,8,9
 1018 91 1018 91 1018 177 c 2,10,-1
 1018 1243 l 1,11,-1
 1616 1243 l 1,12,-1
 1616 41 l 2,13,14
 1616 -162 1616 -162 1480 -285 c 0,15,16
 1351 -402 1351 -402 1156 -402 c 0,0,1
1197.5 1795 m 128,-1,18
 1260 1819 1260 1819 1337 1819 c 128,-1,19
 1414 1819 1414 1819 1466 1801.5 c 128,-1,20
 1518 1784 1518 1784 1552 1754 c 0,21,22
 1620 1696 1620 1696 1620 1608 c 0,23,24
 1620 1506 1620 1506 1534 1430 c 0,25,26
 1439 1346 1439 1346 1289 1346 c 0,27,28
 1077 1346 1077 1346 1025 1474 c 0,29,30
 1010 1510 1010 1510 1010 1554 c 128,-1,31
 1010 1598 1010 1598 1031 1646 c 128,-1,32
 1052 1694 1052 1694 1093.5 1732.5 c 128,-1,17
 1135 1771 1135 1771 1197.5 1795 c 128,-1,18
293.5 1795 m 128,-1,34
 356 1819 356 1819 433.5 1819 c 128,-1,35
 511 1819 511 1819 563 1801.5 c 0,36,37
 616 1784 616 1784 650 1754 c 0,38,39
 718 1696 718 1696 717 1608 c 0,40,41
 717 1506 717 1506 631 1430 c 0,42,43
 536 1346 536 1346 385 1346 c 0,44,45
 173 1346 173 1346 121 1474 c 0,46,47
 106 1510 106 1510 106 1554 c 128,-1,48
 106 1598 106 1598 127 1646 c 128,-1,49
 148 1694 148 1694 189.5 1732.5 c 128,-1,33
 231 1771 231 1771 293.5 1795 c 128,-1,34
700 0 m 1,50,-1
 121 0 l 1,51,-1
 121 1243 l 1,52,-1
 700 1243 l 1,53,-1
 700 0 l 1,50,-1
EndSplineSet
EndChar

StartChar: commaaccent
Encoding: 63171 63171 191
Width: 715
Flags: W
LayerCount: 2
Fore
SplineSet
53 -764 m 1,0,1
 164 -764 164 -764 210 -661 c 1,2,3
 229 -615 229 -615 233 -557 c 1,4,-1
 53 -557 l 1,5,-1
 53 -135 l 1,6,-1
 662 -135 l 1,7,-1
 662 -539 l 2,8,9
 662 -893 662 -893 327 -989 c 0,10,11
 212 -1022 212 -1022 53 -1022 c 1,12,-1
 53 -764 l 1,0,1
EndSplineSet
EndChar

StartChar: dotlessj
Encoding: 567 567 192
Width: 965
Flags: W
LayerCount: 2
Fore
SplineSet
449 -332 m 0,0,1
 208 -332 208 -332 29 -188 c 1,2,-1
 31 70 l 1,3,4
 71 53 71 53 117 53 c 128,-1,5
 163 53 163 53 194 78 c 0,6,7
 225 104 225 104 251 142 c 0,8,9
 311 231 311 231 311 317 c 2,10,-1
 311 1243 l 1,11,-1
 909 1243 l 1,12,-1
 909 111 l 2,13,14
 909 -92 909 -92 773 -215 c 0,15,16
 644 -332 644 -332 449 -332 c 0,0,1
EndSplineSet
EndChar

StartChar: hungarumlaut
Encoding: 733 733 193
Width: 1274
Flags: W
LayerCount: 2
Fore
SplineSet
145 958 m 1,0,-1
 188 1485 l 1,1,-1
 596 1485 l 1,2,-1
 268 946 l 2,3,4
 225 877 225 877 185 877 c 128,-1,5
 145 877 145 877 145 958 c 1,0,-1
594 930 m 1,6,-1
 596 985 l 1,7,-1
 725 1485 l 1,8,-1
 1153 1485 l 1,9,-1
 723 946 l 2,10,11
 671 881 671 881 627 881 c 0,12,13
 594 881 594 881 594 930 c 1,6,-1
EndSplineSet
EndChar

StartChar: uni030F
Encoding: 783 783 194
Width: 1274
Flags: W
LayerCount: 2
Fore
SplineSet
682 883 m 0,0,1
 641 883 641 883 586 946 c 2,2,-1
 115 1485 l 1,3,-1
 563 1485 l 1,4,-1
 707 985 l 2,5,6
 715 958 715 958 715 920.5 c 128,-1,7
 715 883 715 883 682 883 c 0,0,1
1143 950 m 2,8,9
 1143 877 1143 877 1104 877 c 128,-1,10
 1065 877 1065 877 1020 946 c 2,11,-1
 672 1485 l 1,12,-1
 1079 1485 l 1,13,-1
 1141 985 l 2,14,15
 1143 976 1143 976 1143 967 c 2,16,-1
 1143 950 l 2,8,9
EndSplineSet
EndChar

StartChar: uni0311
Encoding: 785 785 195
Width: 1319
Flags: W
LayerCount: 2
Fore
SplineSet
844 926 m 1,0,1
 844 1014 844 1014 798 1074 c 0,2,3
 746 1141 746 1141 659 1141 c 256,4,5
 572 1141 572 1141 520 1075 c 0,6,7
 472 1014 472 1014 473 926 c 1,8,-1
 104 926 l 1,9,10
 104 1140 104 1140 244 1288 c 0,11,12
 398 1450 398 1450 659 1450 c 256,13,14
 918 1450 918 1450 1074 1286 c 0,15,16
 1214 1139 1214 1139 1214 926 c 1,17,-1
 844 926 l 1,0,1
EndSplineSet
EndChar

StartChar: dotaccent
Encoding: 729 729 196
Width: 694
Flags: W
LayerCount: 2
Fore
SplineSet
372 1516 m 0,0,1
 445 1516 445 1516 496.5 1493 c 128,-1,2
 548 1470 548 1470 582 1432 c 0,3,4
 650 1356 650 1356 651 1243 c 0,5,6
 651 1117 651 1117 568 1028 c 0,7,8
 475 928 475 928 317 928 c 0,9,10
 182 928 182 928 108 1010 c 0,11,12
 42 1083 42 1083 43 1198 c 0,13,14
 43 1320 43 1320 132 1414 c 0,15,16
 229 1516 229 1516 372 1516 c 0,0,1
EndSplineSet
EndChar

StartChar: periodcentered
Encoding: 183 183 197
Width: 760
Flags: W
LayerCount: 2
Fore
SplineSet
405 1241 m 0,0,1
 478 1241 478 1241 529.5 1218 c 0,2,3
 582 1195 582 1195 616 1157 c 0,4,5
 684 1082 684 1082 684 969 c 0,6,7
 684 844 684 844 600 753 c 0,8,9
 508 653 508 653 350 653 c 0,10,11
 216 654 216 654 142 736 c 0,12,13
 76 809 76 809 76 924 c 0,14,15
 76 1044 76 1044 165 1138 c 0,16,17
 262 1240 262 1240 405 1241 c 0,0,1
EndSplineSet
EndChar

StartChar: uni00AD
Encoding: 173 173 203
Width: 1036
Flags: W
LayerCount: 2
Fore
SplineSet
61 911 m 1,0,-1
 975 911 l 1,1,-1
 975 614 l 1,2,-1
 61 614 l 1,3,-1
 61 911 l 1,0,-1
EndSplineSet
EndChar

StartChar: hyphen
Encoding: 45 45 204
Width: 1008
Flags: W
LayerCount: 2
Fore
SplineSet
123 911 m 1,0,-1
 887 911 l 1,1,-1
 887 479 l 1,2,-1
 123 479 l 1,3,-1
 123 911 l 1,0,-1
EndSplineSet
EndChar

StartChar: macron
Encoding: 175 175 205
Width: 1157
Flags: W
LayerCount: 2
Fore
SplineSet
123 1243 m 1,0,-1
 1036 1243 l 1,1,-1
 1036 946 l 1,2,-1
 123 946 l 1,3,-1
 123 1243 l 1,0,-1
EndSplineSet
EndChar

StartChar: dotaccentcmb
Encoding: 775 775 206
Width: 694
Flags: W
LayerCount: 2
Fore
SplineSet
372 1516 m 0,0,1
 445 1516 445 1516 496.5 1493 c 128,-1,2
 548 1470 548 1470 582 1432 c 0,3,4
 650 1356 650 1356 651 1243 c 0,5,6
 651 1117 651 1117 568 1028 c 0,7,8
 475 928 475 928 317 928 c 0,9,10
 182 928 182 928 108 1010 c 0,11,12
 42 1083 42 1083 43 1198 c 0,13,14
 43 1320 43 1320 132 1414 c 0,15,16
 229 1516 229 1516 372 1516 c 0,0,1
EndSplineSet
EndChar

StartChar: trademark
Encoding: 8482 8482 207
Width: 2699
Flags: W
LayerCount: 2
Fore
SplineSet
49 1599 m 1,0,-1
 1116 1599 l 1,1,-1
 1116 1235 l 1,2,-1
 803 1235 l 1,3,-1
 803 469 l 1,4,-1
 360 469 l 1,5,-1
 360 1235 l 1,6,-1
 49 1235 l 1,7,-1
 49 1599 l 1,0,-1
1212 1599 m 1,8,-1
 1370 1599 l 1,9,-1
 1919 1087 l 1,10,-1
 2482 1599 l 1,11,-1
 2638 1599 l 1,12,-1
 2638 469 l 1,13,-1
 2173 469 l 1,14,-1
 2173 834 l 1,15,-1
 1882 520 l 1,16,-1
 1602 827 l 1,17,-1
 1602 469 l 1,18,-1
 1212 469 l 1,19,-1
 1212 1599 l 1,8,-1
EndSplineSet
EndChar

StartChar: Euro
Encoding: 8364 8364 208
Width: 1663
Flags: W
LayerCount: 2
Fore
SplineSet
201 776 m 1,0,1
 207 879 207 879 211 901 c 1,2,-1
 33 901 l 1,3,-1
 33 1034 l 1,4,-1
 240 1034 l 1,5,6
 328 1330 328 1330 574 1500 c 0,7,8
 825 1673 825 1673 1174 1673 c 0,9,10
 1391 1673 1391 1673 1522 1624 c 1,11,-1
 1522 1200 l 1,12,13
 1449 1223 1449 1223 1387.5 1223 c 128,-1,14
 1326 1223 1326 1223 1273 1209.5 c 128,-1,15
 1220 1196 1220 1196 1172 1172 c 0,16,17
 1074 1122 1074 1122 1014 1034 c 1,18,-1
 1419 1034 l 1,19,-1
 1419 901 l 1,20,-1
 954 901 l 1,21,22
 944 855 944 855 944 809 c 2,23,-1
 944 776 l 1,24,-1
 1419 776 l 1,25,-1
 1419 643 l 1,26,-1
 969 643 l 1,27,28
 1003 544 1003 544 1078 496.5 c 128,-1,29
 1153 449 1153 449 1270.5 449 c 128,-1,30
 1388 449 1388 449 1552 535 c 1,31,-1
 1552 18 l 1,32,33
 1335 -68 1335 -68 1092 -68 c 0,34,35
 756 -68 756 -68 510 113 c 0,36,37
 245 308 245 308 207 643 c 1,38,-1
 33 643 l 1,39,-1
 33 776 l 1,40,-1
 201 776 l 1,0,1
EndSplineSet
EndChar

StartChar: quoteright
Encoding: 8217 8217 209
Width: 809
Flags: W
LayerCount: 2
Fore
SplineSet
123 971 m 1,0,1
 234 971 234 971 280 1074 c 1,2,3
 299 1120 299 1120 303 1178 c 1,4,-1
 123 1178 l 1,5,-1
 123 1599 l 1,6,-1
 731 1599 l 1,7,-1
 731 1196 l 2,8,9
 731 842 731 842 397 746 c 0,10,11
 282 713 282 713 123 713 c 1,12,-1
 123 971 l 1,0,1
EndSplineSet
EndChar

StartChar: quoteleft
Encoding: 8216 8216 210
Width: 811
Flags: W
LayerCount: 2
Fore
SplineSet
690 1341 m 1,0,1
 575 1341 575 1341 532 1238 c 0,2,3
 512 1192 512 1192 510 1135 c 1,4,-1
 690 1135 l 1,5,-1
 690 713 l 1,6,-1
 82 713 l 1,7,-1
 82 1116 l 2,8,9
 82 1470 82 1470 416 1566 c 0,10,11
 531 1599 531 1599 690 1599 c 1,12,-1
 690 1341 l 1,0,1
EndSplineSet
EndChar

StartChar: quotedblleft
Encoding: 8220 8220 211
Width: 1587
Flags: W
LayerCount: 2
Fore
SplineSet
713 1341 m 1,0,1
 604 1341 604 1341 555 1238 c 1,2,3
 535 1192 535 1192 532 1135 c 1,4,-1
 713 1135 l 1,5,-1
 713 713 l 1,6,-1
 104 713 l 1,7,-1
 104 1116 l 2,8,9
 104 1470 104 1470 439 1566 c 0,10,11
 554 1599 554 1599 713 1599 c 1,12,-1
 713 1341 l 1,0,1
1464 1341 m 1,13,14
 1349 1341 1349 1341 1306 1238 c 0,15,16
 1286 1192 1286 1192 1284 1135 c 1,17,-1
 1464 1135 l 1,18,-1
 1464 713 l 1,19,-1
 856 713 l 1,20,-1
 856 1116 l 2,21,22
 856 1470 856 1470 1190 1566 c 0,23,24
 1305 1599 1305 1599 1464 1599 c 1,25,-1
 1464 1341 l 1,13,14
EndSplineSet
EndChar

StartChar: quotedblright
Encoding: 8221 8221 212
Width: 1585
Flags: W
LayerCount: 2
Fore
SplineSet
874 971 m 1,0,1
 986 971 986 971 1032 1074 c 0,2,3
 1052 1120 1052 1120 1055 1178 c 1,4,-1
 874 1178 l 1,5,-1
 874 1599 l 1,6,-1
 1483 1599 l 1,7,-1
 1483 1196 l 2,8,9
 1483 842 1483 842 1148 746 c 0,10,11
 1033 713 1033 713 874 713 c 1,12,-1
 874 971 l 1,0,1
123 971 m 1,13,14
 234 971 234 971 280 1074 c 1,15,16
 299 1120 299 1120 303 1178 c 1,17,-1
 123 1178 l 1,18,-1
 123 1599 l 1,19,-1
 731 1599 l 1,20,-1
 731 1196 l 2,21,22
 731 842 731 842 397 746 c 0,23,24
 282 713 282 713 123 713 c 1,25,-1
 123 971 l 1,13,14
EndSplineSet
EndChar

StartChar: thorn
Encoding: 254 254 213
Width: 1722
Flags: W
LayerCount: 2
Fore
SplineSet
102 1597 m 1,0,-1
 684 1597 l 1,1,-1
 684 1096 l 1,2,3
 812 1218 812 1218 996 1251 c 0,4,5
 1046 1260 1046 1260 1085 1260 c 0,6,7
 1346 1260 1346 1260 1497 1078 c 0,8,9
 1636 910 1636 910 1636 657 c 0,10,11
 1636 430 1636 430 1451 224 c 0,12,13
 1308 66 1308 66 1052 -3 c 0,14,15
 918 -39 918 -39 745 -39 c 2,16,-1
 680 -39 l 1,17,-1
 680 -354 l 1,18,-1
 102 -354 l 1,19,-1
 102 1597 l 1,0,-1
973 844 m 0,20,21
 842 844 842 844 682 713 c 1,22,-1
 682 336 l 1,23,-1
 780 336 l 2,24,25
 880 336 880 336 976 458 c 0,26,27
 1071 579 1071 579 1071 707 c 0,28,29
 1070 796 1070 796 1018 832 c 0,30,31
 1000 844 1000 844 973 844 c 0,20,21
EndSplineSet
EndChar

StartChar: O
Encoding: 79 79 214
Width: 1942
Flags: W
LayerCount: 2
Fore
SplineSet
723 647 m 0,0,1
 723 481 723 481 891 481 c 0,2,3
 958 480 958 480 1044 570 c 0,4,5
 1169 702 1169 702 1221 890 c 0,6,7
 1237 948 1237 948 1237 990 c 128,-1,8
 1237 1032 1237 1032 1228 1061.5 c 0,9,10
 1220 1091 1220 1091 1200 1113 c 0,11,12
 1159 1159 1159 1159 1075 1159 c 0,13,14
 1005 1159 1005 1159 919 1071 c 0,15,16
 790 938 790 938 739 754 c 0,17,18
 723 696 723 696 723 647 c 0,0,1
964 -39 m 0,19,20
 848 -39 848 -39 738.5 -12 c 128,-1,21
 629 15 629 15 530.5 66 c 128,-1,22
 432 117 432 117 348.5 191 c 0,23,24
 265 264 265 264 204 358 c 0,25,26
 74 557 74 557 74 805 c 0,27,28
 74 1050 74 1050 196 1245 c 0,29,30
 314 1430 314 1430 516 1536 c 128,-1,31
 718 1642 718 1642 934.5 1642 c 128,-1,32
 1151 1642 1151 1642 1316 1584 c 128,-1,33
 1481 1526 1481 1526 1603.5 1417.5 c 128,-1,34
 1726 1309 1726 1309 1796 1152 c 128,-1,35
 1866 995 1866 995 1866 797 c 0,36,37
 1866 551 1866 551 1738 353 c 0,38,39
 1616 168 1616 168 1408 64 c 0,40,41
 1200 -39 1200 -39 964 -39 c 0,19,20
EndSplineSet
EndChar

StartChar: T
Encoding: 84 84 215
Width: 1624
Flags: W
LayerCount: 2
Fore
SplineSet
57 1597 m 1,0,-1
 1569 1597 l 1,1,-1
 1569 1079 l 1,2,-1
 1124 1079 l 1,3,-1
 1124 0 l 1,4,-1
 502 0 l 1,5,-1
 502 1079 l 1,6,-1
 57 1079 l 1,7,-1
 57 1597 l 1,0,-1
EndSplineSet
EndChar

StartChar: parenleft
Encoding: 40 40 217
Width: 1022
Flags: W
LayerCount: 2
Fore
SplineSet
897 1333 m 1,0,1
 674 1162 674 1162 617 892 c 0,2,3
 600 812 600 812 600 732 c 128,-1,4
 600 652 600 652 621.5 574 c 0,5,6
 642 496 642 496 682 436 c 0,7,8
 769 304 769 304 901 303 c 1,9,-1
 901 -66 l 1,10,11
 545 -66 545 -66 303 146 c 0,12,13
 138 292 138 292 74 516 c 0,14,15
 42 630 42 630 41.5 799 c 128,-1,16
 41 968 41 968 103.5 1134 c 128,-1,17
 166 1300 166 1300 279 1419 c 0,18,19
 516 1669 516 1669 897 1673 c 1,20,-1
 897 1333 l 1,0,1
EndSplineSet
EndChar

StartChar: parenright
Encoding: 41 41 218
Width: 1024
Flags: W
LayerCount: 2
Fore
SplineSet
127 1673 m 1,0,1
 508 1669 508 1669 745 1419 c 0,2,3
 983 1168 983 1168 983 766 c 0,4,5
 983 375 983 375 721 146 c 0,6,7
 479 -66 479 -66 123 -66 c 1,8,-1
 123 303 l 1,9,10
 254 304 254 304 342 436 c 0,11,12
 424 560 424 560 424 737 c 0,13,14
 424 992 424 992 262 1200 c 0,15,16
 206 1272 206 1272 127 1333 c 1,17,-1
 127 1673 l 1,0,1
EndSplineSet
EndChar

StartChar: quotedblbase
Encoding: 8222 8222 219
Width: 1585
Flags: W
LayerCount: 2
Fore
SplineSet
874 -207 m 1,0,1
 986 -207 986 -207 1032 -104 c 0,2,3
 1052 -58 1052 -58 1055 0 c 1,4,-1
 874 0 l 1,5,-1
 874 422 l 1,6,-1
 1483 422 l 1,7,-1
 1483 18 l 2,8,9
 1483 -336 1483 -336 1148 -432 c 0,10,11
 1033 -465 1033 -465 874 -465 c 1,12,-1
 874 -207 l 1,0,1
123 -207 m 1,13,14
 234 -207 234 -207 280 -104 c 1,15,16
 299 -58 299 -58 303 0 c 1,17,-1
 123 0 l 1,18,-1
 123 422 l 1,19,-1
 731 422 l 1,20,-1
 731 18 l 2,21,22
 731 -336 731 -336 397 -432 c 0,23,24
 282 -465 282 -465 123 -465 c 1,25,-1
 123 -207 l 1,13,14
EndSplineSet
EndChar

StartChar: quotesinglbase
Encoding: 8218 8218 220
Width: 809
Flags: W
LayerCount: 2
Fore
SplineSet
123 -207 m 1,0,1
 234 -207 234 -207 280 -104 c 1,2,3
 299 -58 299 -58 303 0 c 1,4,-1
 123 0 l 1,5,-1
 123 422 l 1,6,-1
 731 422 l 1,7,-1
 731 18 l 2,8,9
 731 -336 731 -336 397 -432 c 0,10,11
 282 -465 282 -465 123 -465 c 1,12,-1
 123 -207 l 1,0,1
EndSplineSet
EndChar

StartChar: onesuperior
Encoding: 185 185 221
Width: 952
Flags: W
LayerCount: 2
Fore
SplineSet
303 688 m 1,0,-1
 20 586 l 1,1,-1
 20 973 l 1,2,-1
 684 1278 l 1,3,-1
 831 1278 l 1,4,-1
 831 0 l 1,5,-1
 303 0 l 1,6,-1
 303 688 l 1,0,-1
EndSplineSet
EndChar

StartChar: twosuperior
Encoding: 178 178 222
Width: 1413
Flags: W
LayerCount: 2
Fore
SplineSet
166 231 m 1,0,-1
 651 639 l 1,1,2
 750 721 750 721 750 811 c 0,3,4
 750 857 750 857 719.5 888.5 c 128,-1,5
 689 920 689 920 642.5 920 c 128,-1,6
 596 920 596 920 551 905.5 c 0,7,8
 506 890 506 890 457 862 c 0,9,10
 351 800 351 800 256 700 c 1,11,-1
 68 971 l 1,12,13
 162 1132 162 1132 364 1226 c 0,14,15
 550 1313 550 1313 762 1313 c 0,16,17
 991 1313 991 1313 1141 1209 c 0,18,19
 1305 1095 1305 1095 1305 895 c 0,20,21
 1305 680 1305 680 1040 483 c 0,22,23
 970 431 970 431 907 383 c 1,24,-1
 1313 383 l 1,25,-1
 1313 0 l 1,26,-1
 166 0 l 1,27,-1
 166 231 l 1,0,-1
EndSplineSet
EndChar

StartChar: threesuperior
Encoding: 179 179 223
Width: 1518
Flags: W
LayerCount: 2
Fore
SplineSet
985 821 m 1,0,1
 1425 768 1425 768 1425 420 c 0,2,3
 1426 100 1426 100 1070 6 c 0,4,5
 876 -46 876 -46 608 -22 c 0,6,7
 422 -6 422 -6 250 69 c 0,8,9
 160 108 160 108 80 170 c 1,10,-1
 270 479 l 1,11,12
 412 384 412 384 596 354 c 0,13,14
 656 344 656 344 727 344 c 128,-1,15
 798 344 798 344 838.5 375.5 c 128,-1,16
 879 407 879 407 879 455 c 256,17,18
 878 540 878 540 776 578 c 0,19,20
 703 605 703 605 635 605 c 128,-1,21
 567 605 567 605 537 602 c 1,22,-1
 526 602 l 1,23,-1
 428 770 l 1,24,25
 428 772 428 772 437 782 c 128,-1,26
 446 792 446 792 453 795 c 1,27,-1
 647 930 l 1,28,-1
 164 930 l 1,29,-1
 164 1278 l 1,30,-1
 1397 1278 l 1,31,-1
 1397 1135 l 1,32,-1
 985 821 l 1,0,1
EndSplineSet
EndChar

StartChar: foursuperior
Encoding: 8308 8308 224
Width: 1526
Flags: W
LayerCount: 2
Fore
SplineSet
47 549 m 1,0,-1
 549 1280 l 1,1,-1
 1317 1280 l 1,2,-1
 1317 561 l 1,3,-1
 1432 561 l 1,4,-1
 1432 172 l 1,5,-1
 1317 172 l 1,6,-1
 1317 0 l 1,7,-1
 776 0 l 1,8,-1
 776 172 l 1,9,-1
 47 172 l 1,10,-1
 47 549 l 1,0,-1
545 549 m 1,11,-1
 776 549 l 1,12,-1
 776 911 l 1,13,-1
 545 549 l 1,11,-1
EndSplineSet
EndChar

StartChar: question
Encoding: 63 63 228
Width: 1155
Flags: W
LayerCount: 2
Fore
SplineSet
82 1585 m 1,0,1
 269 1638 269 1638 473 1638 c 0,2,3
 980 1638 980 1638 1094 1358 c 0,4,5
 1120 1294 1120 1294 1120 1214 c 256,6,7
 1120 1007 1120 1007 1006 902 c 0,8,9
 963 862 963 862 893 814 c 0,10,11
 822 766 822 766 788 734 c 0,12,13
 708 659 708 659 676 553 c 1,14,-1
 311 553 l 1,15,16
 281 643 281 643 281 717.5 c 128,-1,17
 281 792 281 792 301.5 839 c 128,-1,18
 322 886 322 886 353.5 919.5 c 128,-1,19
 385 953 385 953 421 976.5 c 128,-1,20
 457 1000 457 1000 488.5 1020.5 c 128,-1,21
 520 1041 520 1041 540.5 1061.5 c 128,-1,22
 561 1082 561 1082 561 1110 c 0,23,24
 561 1227 561 1227 401 1227 c 0,25,26
 288 1227 288 1227 133 1174 c 0,27,28
 98 1162 98 1162 82 1155 c 1,29,-1
 82 1585 l 1,0,1
522 479 m 0,30,31
 592 479 592 479 640.5 459 c 0,32,33
 690 440 690 440 722 406 c 0,34,35
 786 340 786 340 786 242 c 0,36,37
 786 130 786 130 708 52 c 0,38,39
 620 -36 620 -36 471 -37 c 0,40,41
 342 -37 342 -37 274 35 c 0,42,43
 212 100 212 100 211 199 c 0,44,45
 211 306 211 306 295 388 c 0,46,47
 389 479 389 479 522 479 c 0,30,31
EndSplineSet
EndChar

StartChar: exclamdown
Encoding: 161 161 229
Width: 774
Flags: W
LayerCount: 2
Fore
SplineSet
416 1083 m 0,0,1
 346 1083 346 1083 287.5 1108.5 c 128,-1,2
 229 1134 229 1134 188 1174 c 0,3,4
 104 1257 104 1257 104 1364 c 0,5,6
 104 1522 104 1522 248 1580 c 0,7,8
 297 1600 297 1600 370.5 1599.5 c 128,-1,9
 444 1599 444 1599 503 1574.5 c 128,-1,10
 562 1550 562 1550 602 1510 c 0,11,12
 680 1432 680 1432 680 1321 c 0,13,14
 680 1222 680 1222 616 1156 c 0,15,16
 546 1082 546 1082 416 1083 c 0,0,1
680 -37 m 1,17,-1
 102 -37 l 1,18,-1
 205 924 l 1,19,-1
 578 924 l 1,20,-1
 680 -37 l 1,17,-1
EndSplineSet
EndChar

StartChar: at
Encoding: 64 64 231
Width: 2370
Flags: W
LayerCount: 2
Fore
SplineSet
1755 -90 m 1,0,1
 1498 -246 1498 -246 1192 -246 c 0,2,3
 740 -246 740 -246 424 -3 c 0,4,5
 205 165 205 165 120 430 c 0,6,7
 76 566 76 566 76 734.5 c 128,-1,8
 76 903 76 903 120 1048 c 128,-1,9
 164 1193 164 1193 241.5 1309 c 128,-1,10
 319 1425 319 1425 424.5 1512.5 c 128,-1,11
 530 1600 530 1600 654 1658 c 0,12,13
 902 1774 902 1774 1192 1774 c 0,14,15
 1481 1774 1481 1774 1729 1658 c 0,16,17
 2137 1467 2137 1467 2264 1048 c 0,18,19
 2308 903 2308 903 2308 757.5 c 128,-1,20
 2308 612 2308 612 2268 518.5 c 0,21,22
 2228 426 2228 426 2162 360 c 0,23,24
 2025 226 2025 226 1823 225 c 0,25,26
 1578 225 1578 225 1391 424 c 1,27,28
 1294 272 1294 272 1114 224 c 0,29,30
 1058 209 1058 209 986 209 c 128,-1,31
 914 209 914 209 835 243 c 0,32,33
 756 276 756 276 696 344 c 0,34,35
 566 491 566 491 567 743 c 0,36,37
 568 983 568 983 692 1130 c 0,38,39
 810 1270 810 1270 985 1270 c 0,40,41
 1152 1270 1152 1270 1280 1158 c 0,42,43
 1321 1122 1321 1122 1350 1077 c 1,44,-1
 1464 1233 l 1,45,-1
 1726 1233 l 1,46,-1
 1726 594 l 2,47,48
 1726 540 1726 540 1781 503 c 0,49,50
 1832 469 1832 469 1875 469 c 128,-1,51
 1918 469 1918 469 1940 482 c 128,-1,52
 1962 495 1962 495 1978 523 c 0,53,54
 2014 585 2014 585 2014.5 697 c 128,-1,55
 2015 809 2015 809 1993.5 913 c 128,-1,56
 1972 1017 1972 1017 1928 1109.5 c 128,-1,57
 1884 1202 1884 1202 1817 1279.5 c 128,-1,58
 1750 1357 1750 1357 1658 1413 c 0,59,60
 1464 1532 1464 1532 1192 1532 c 0,61,62
 932 1532 932 1532 738 1414 c 0,63,64
 471 1251 471 1251 396 932 c 0,65,66
 373 834 373 834 373 714 c 128,-1,67
 373 594 373 594 424 462 c 128,-1,68
 475 330 475 330 577 227 c 0,69,70
 802 0 802 0 1192 0 c 0,71,72
 1464 0 1464 0 1667 117 c 1,73,-1
 1755 -90 l 1,0,1
1251 622 m 0,74,75
 1278 648 1278 648 1296 674 c 1,76,-1
 1296 920 l 1,77,78
 1196 920 1196 920 1090 837 c 0,79,80
 972 746 972 746 972.5 639 c 128,-1,81
 973 532 973 532 1064.5 532 c 128,-1,82
 1156 532 1156 532 1251 622 c 0,74,75
EndSplineSet
EndChar

StartChar: ordfeminine
Encoding: 170 170 232
Width: 1362
Flags: W
LayerCount: 2
Fore
SplineSet
123 883 m 128,-1,1
 88 983 88 983 88 1110.5 c 128,-1,2
 88 1238 88 1238 121.5 1335.5 c 0,3,4
 155 1432 155 1432 212 1500 c 0,5,6
 330 1640 330 1640 506 1640 c 0,7,8
 674 1640 674 1640 798 1529 c 0,9,10
 838 1493 838 1493 868 1448 c 1,11,-1
 983 1604 l 1,12,-1
 1245 1604 l 1,13,-1
 1245 608 l 1,14,-1
 983 608 l 1,15,-1
 868 774 l 1,16,17
 784 638 784 638 622 594 c 0,18,19
 572 580 572 580 503 580 c 128,-1,20
 434 580 434 580 355 614 c 128,-1,21
 276 648 276 648 217 715.5 c 128,-1,0
 158 783 158 783 123 883 c 128,-1,1
584 903 m 128,-1,23
 676 903 676 903 770 992 c 0,24,25
 796 1017 796 1017 815 1044 c 1,26,-1
 815 1290 l 1,27,28
 714 1290 714 1290 608 1207 c 0,29,30
 492 1117 492 1117 492 1010 c 128,-1,22
 492 903 492 903 584 903 c 128,-1,23
EndSplineSet
EndChar

StartChar: ordmasculine
Encoding: 186 186 233
Width: 1303
Flags: W
LayerCount: 2
Fore
SplineSet
723 1325 m 0,0,1
 683 1325 683 1325 646.5 1286 c 128,-1,2
 610 1247 610 1247 590 1215.5 c 128,-1,3
 570 1184 570 1184 554 1150 c 0,4,5
 520 1077 520 1077 520 1014 c 0,6,7
 520 913 520 913 612 913 c 0,8,9
 673 913 673 913 743 1025 c 128,-1,10
 813 1137 813 1137 813 1231 c 128,-1,11
 813 1325 813 1325 723 1325 c 0,0,1
648 580 m 0,12,13
 537 580 537 580 435 617 c 128,-1,14
 333 654 333 654 253 723 c 0,15,16
 76 876 76 876 76 1110 c 0,17,18
 76 1342 76 1342 244 1494 c 0,19,20
 406 1640 406 1640 645 1640 c 0,21,22
 896 1640 896 1640 1058 1497 c 0,23,24
 1226 1349 1226 1349 1227 1106 c 0,25,26
 1226 872 1226 872 1050 722 c 0,27,28
 884 580 884 580 648 580 c 0,12,13
EndSplineSet
EndChar

StartChar: degree
Encoding: 176 176 234
Width: 803
Flags: W
LayerCount: 2
Fore
SplineSet
464.5 1448 m 128,-1,1
 437 1460 437 1460 401.5 1460 c 128,-1,2
 366 1460 366 1460 339.5 1448.5 c 0,3,4
 314 1437 314 1437 296 1418 c 0,5,6
 260 1379 260 1379 260 1340 c 128,-1,7
 260 1301 260 1301 269 1276 c 0,8,9
 278 1252 278 1252 296 1232 c 0,10,11
 337 1188 337 1188 389 1188 c 128,-1,12
 441 1188 441 1188 467.5 1199.5 c 128,-1,13
 494 1211 494 1211 512 1230 c 0,14,15
 548 1269 548 1269 547.5 1308.5 c 128,-1,16
 547 1348 547 1348 538 1373 c 128,-1,17
 529 1398 529 1398 510.5 1417 c 128,-1,0
 492 1436 492 1436 464.5 1448 c 128,-1,1
78 1324 m 0,18,19
 78 1404 78 1404 106 1463 c 128,-1,20
 134 1522 134 1522 180 1562 c 0,21,22
 270 1640 270 1640 401 1640 c 128,-1,23
 532 1640 532 1640 625 1560 c 0,24,25
 727 1472 727 1472 727 1325 c 0,26,27
 728 1174 728 1174 626 1086 c 0,28,29
 534 1006 534 1006 403 1006 c 256,30,31
 272 1006 272 1006 180 1086 c 0,32,33
 78 1174 78 1174 78 1324 c 0,18,19
EndSplineSet
EndChar

StartChar: plusminus
Encoding: 177 177 235
Width: 936
Flags: W
LayerCount: 2
Fore
SplineSet
322 979 m 1,0,-1
 322 1241 l 1,1,-1
 616 1241 l 1,2,-1
 616 979 l 1,3,-1
 877 979 l 1,4,-1
 877 684 l 1,5,-1
 616 684 l 1,6,-1
 616 424 l 1,7,-1
 322 424 l 1,8,-1
 322 684 l 1,9,-1
 59 684 l 1,10,-1
 59 979 l 1,11,-1
 322 979 l 1,0,-1
102 238 m 1,12,-1
 831 238 l 1,13,-1
 831 0 l 1,14,-1
 102 0 l 1,15,-1
 102 238 l 1,12,-1
EndSplineSet
EndChar

StartChar: quotesingle
Encoding: 39 39 236
Width: 672
Flags: W
LayerCount: 2
Fore
SplineSet
508 844 m 1,0,-1
 176 844 l 1,1,-1
 74 1597 l 1,2,-1
 590 1597 l 1,3,-1
 508 844 l 1,0,-1
EndSplineSet
EndChar

StartChar: quotedbl
Encoding: 34 34 237
Width: 1317
Flags: W
LayerCount: 2
Fore
SplineSet
1133 844 m 1,0,-1
 801 844 l 1,1,-1
 698 1597 l 1,2,-1
 1214 1597 l 1,3,-1
 1133 844 l 1,0,-1
532 844 m 1,4,-1
 201 844 l 1,5,-1
 98 1597 l 1,6,-1
 614 1597 l 1,7,-1
 532 844 l 1,4,-1
EndSplineSet
EndChar

StartChar: braceleft
Encoding: 123 123 238
Width: 1044
Flags: W
LayerCount: 2
Fore
SplineSet
190 432 m 0,0,1
 190 556 190 556 98 604 c 0,2,3
 69 619 69 619 33 621 c 1,4,-1
 33 950 l 1,5,6
 104 952 104 952 148 1006 c 0,7,8
 190 1059 190 1059 190 1163 c 128,-1,9
 190 1267 190 1267 231.5 1373 c 0,10,11
 274 1478 274 1478 362 1554 c 0,12,13
 549 1714 549 1714 924 1714 c 1,14,-1
 924 1333 l 1,15,16
 810 1332 810 1332 772 1254 c 0,17,18
 750 1208 750 1208 750 1135 c 128,-1,19
 750 1062 750 1062 733.5 1009.5 c 128,-1,20
 717 957 717 957 686 912 c 0,21,22
 618 813 618 813 510 784 c 1,23,24
 616 755 616 755 684 659 c 0,25,26
 750 568 750 568 750 460 c 0,27,28
 750 365 750 365 770 325 c 0,29,30
 812 238 812 238 924 238 c 1,31,-1
 924 -143 l 1,32,33
 548 -143 548 -143 362 16 c 0,34,35
 190 163 190 163 190 432 c 0,0,1
EndSplineSet
EndChar

StartChar: braceright
Encoding: 125 125 239
Width: 1044
Flags: W
LayerCount: 2
Fore
SplineSet
856 432 m 0,0,1
 856 18 856 18 457 -102 c 0,2,3
 318 -144 318 -144 123 -143 c 1,4,-1
 123 238 l 1,5,6
 236 238 236 238 274 318 c 0,7,8
 296 364 296 364 296.5 437 c 128,-1,9
 297 510 297 510 313.5 561.5 c 0,10,11
 330 614 330 614 361 658 c 0,12,13
 429 756 429 756 537 784 c 1,14,15
 429 813 429 813 361 912 c 0,16,17
 297 1005 297 1005 297 1114 c 0,18,19
 298 1209 298 1209 278 1248 c 0,20,21
 236 1333 236 1333 123 1333 c 1,22,-1
 123 1714 l 1,23,24
 498 1714 498 1714 684 1554 c 0,25,26
 856 1408 856 1408 856 1139 c 0,27,28
 856 1014 856 1014 949 966 c 0,29,30
 978 951 978 951 1014 950 c 1,31,-1
 1014 621 l 1,32,33
 944 617 944 617 899 564 c 0,34,35
 856 513 856 513 856 432 c 0,0,1
EndSplineSet
EndChar

StartChar: guilsinglleft
Encoding: 8249 8249 240
Width: 1010
Flags: W
LayerCount: 2
Fore
SplineSet
891 901 m 1,0,-1
 668 766 l 1,1,-1
 891 637 l 1,2,-1
 891 139 l 1,3,-1
 39 711 l 1,4,5
 0 732 0 732 0 791 c 0,6,7
 0 847 0 847 39 870 c 1,8,-1
 891 1466 l 1,9,-1
 891 901 l 1,0,-1
EndSplineSet
EndChar

StartChar: guilsinglright
Encoding: 8250 8250 241
Width: 1014
Flags: W
LayerCount: 2
Fore
SplineSet
123 705 m 1,0,-1
 346 840 l 1,1,-1
 123 969 l 1,2,-1
 123 1466 l 1,3,-1
 975 895 l 1,4,5
 1014 874 1014 874 1014 815 c 0,6,7
 1014 763 1014 763 975 735 c 2,8,-1
 123 139 l 1,9,-1
 123 705 l 1,0,-1
EndSplineSet
EndChar

StartChar: guillemotleft
Encoding: 171 171 242
Width: 1606
Flags: W
LayerCount: 2
Fore
SplineSet
1485 963 m 1,0,-1
 1249 797 l 1,1,-1
 1485 616 l 1,2,-1
 1485 160 l 1,3,-1
 797 711 l 2,4,5
 758 743 758 743 758 780 c 0,6,7
 758 838 758 838 797 870 c 2,8,-1
 1485 1446 l 1,9,-1
 1485 963 l 1,0,-1
754 963 m 1,10,-1
 518 797 l 1,11,-1
 754 616 l 1,12,-1
 754 160 l 1,13,-1
 66 711 l 2,14,15
 27 743 27 743 27 780 c 0,16,17
 27 838 27 838 66 870 c 2,18,-1
 754 1446 l 1,19,-1
 754 963 l 1,10,-1
EndSplineSet
EndChar

StartChar: guillemotright
Encoding: 187 187 243
Width: 1608
Flags: W
LayerCount: 2
Fore
SplineSet
123 643 m 1,0,-1
 358 809 l 1,1,-1
 123 989 l 1,2,-1
 123 1446 l 1,3,-1
 811 895 l 2,4,5
 850 863 850 863 850 826 c 0,6,7
 850 767 850 767 811 735 c 2,8,-1
 123 160 l 1,9,-1
 123 643 l 1,0,-1
854 643 m 1,10,-1
 1090 809 l 1,11,-1
 854 989 l 1,12,-1
 854 1446 l 1,13,-1
 1542 895 l 2,14,15
 1581 863 1581 863 1581 826 c 0,16,17
 1581 767 1581 767 1542 735 c 2,18,-1
 854 160 l 1,19,-1
 854 643 l 1,10,-1
EndSplineSet
EndChar

StartChar: endash
Encoding: 8211 8211 244
Width: 1157
Flags: W
LayerCount: 2
Fore
SplineSet
123 911 m 1,0,-1
 1036 911 l 1,1,-1
 1036 614 l 1,2,-1
 123 614 l 1,3,-1
 123 911 l 1,0,-1
EndSplineSet
EndChar

StartChar: emdash
Encoding: 8212 8212 245
Width: 1157
Flags: W
LayerCount: 2
Fore
SplineSet
123 911 m 1,0,-1
 1036 911 l 1,1,-1
 1036 614 l 1,2,-1
 123 614 l 1,3,-1
 123 911 l 1,0,-1
EndSplineSet
EndChar

StartChar: underscore
Encoding: 95 95 246
Width: 1157
Flags: W
LayerCount: 2
Fore
SplineSet
123 0 m 1,0,-1
 1036 0 l 1,1,-1
 1036 -297 l 1,2,-1
 123 -297 l 1,3,-1
 123 0 l 1,0,-1
EndSplineSet
EndChar

StartChar: asciicircum
Encoding: 94 94 247
Width: 819
Flags: W
LayerCount: 2
Fore
SplineSet
268 1882 m 2,0,1
 289 1925 289 1925 329.5 1948.5 c 128,-1,2
 370 1972 370 1972 410 1972 c 128,-1,3
 450 1972 450 1972 490 1950.5 c 128,-1,4
 530 1929 530 1929 553 1882 c 2,5,-1
 758 1464 l 1,6,7
 772 1429 772 1429 772 1397.5 c 128,-1,8
 772 1366 772 1366 743 1366 c 0,9,10
 700 1366 700 1366 637 1425 c 2,11,-1
 410 1632 l 1,12,-1
 184 1425 l 2,13,14
 121 1366 121 1366 84 1366 c 128,-1,15
 47 1366 47 1366 47 1401 c 0,16,17
 47 1430 47 1430 63 1464 c 2,18,-1
 268 1882 l 2,0,1
EndSplineSet
EndChar

StartChar: less
Encoding: 60 60 248
Width: 1010
Flags: W
LayerCount: 2
Fore
SplineSet
891 901 m 1,0,-1
 668 766 l 1,1,-1
 891 637 l 1,2,-1
 891 139 l 1,3,-1
 39 711 l 1,4,5
 0 732 0 732 0 791 c 0,6,7
 0 847 0 847 39 870 c 1,8,-1
 891 1466 l 1,9,-1
 891 901 l 1,0,-1
EndSplineSet
EndChar

StartChar: greater
Encoding: 62 62 249
Width: 1014
Flags: W
LayerCount: 2
Fore
SplineSet
123 705 m 1,0,-1
 346 840 l 1,1,-1
 123 969 l 1,2,-1
 123 1466 l 1,3,-1
 975 895 l 1,4,5
 1014 874 1014 874 1014 815 c 0,6,7
 1014 763 1014 763 975 735 c 2,8,-1
 123 139 l 1,9,-1
 123 705 l 1,0,-1
EndSplineSet
EndChar

StartChar: equal
Encoding: 61 61 250
Width: 1157
Flags: W
LayerCount: 2
Fore
SplineSet
123 911 m 1,0,-1
 1036 911 l 1,1,-1
 1036 614 l 1,2,-1
 123 614 l 1,3,-1
 123 911 l 1,0,-1
123 352 m 1,4,-1
 1036 352 l 1,5,-1
 1036 55 l 1,6,-1
 123 55 l 1,7,-1
 123 352 l 1,4,-1
EndSplineSet
EndChar

StartChar: bullet
Encoding: 8226 8226 251
Width: 760
Flags: W
LayerCount: 2
Fore
SplineSet
406 715 m 0,0,1
 500 715 500 715 566.5 685 c 0,2,3
 634 656 634 656 678 606 c 0,4,5
 766 508 766 508 766 360 c 0,6,7
 766 200 766 200 664 88 c 0,8,9
 550 -37 550 -37 350 -37 c 0,10,11
 174 -37 174 -37 78 71 c 0,12,13
 -6 166 -6 166 -6 315 c 0,14,15
 -6 470 -6 470 105 587 c 0,16,17
 226 715 226 715 406 715 c 0,0,1
EndSplineSet
EndChar

StartChar: section
Encoding: 167 167 252
Width: 1434
Flags: W
LayerCount: 2
Fore
SplineSet
563 -82 m 0,0,1
 337 -82 337 -82 201 -14 c 1,2,-1
 201 334 l 1,3,4
 366 291 366 291 479 291 c 0,5,6
 555 292 555 292 574 316 c 0,7,8
 582 326 582 326 582 346.5 c 128,-1,9
 582 367 582 367 559.5 382 c 128,-1,10
 537 397 537 397 500 409.5 c 128,-1,11
 463 422 463 422 416 435.5 c 128,-1,12
 369 449 369 449 319.5 468.5 c 128,-1,13
 270 488 270 488 223 517.5 c 0,14,15
 176 546 176 546 139 592 c 0,16,17
 57 693 57 693 57 854 c 0,18,19
 58 1004 58 1004 160 1118 c 0,20,21
 252 1220 252 1220 364 1233 c 1,22,23
 362 1244 362 1244 362 1256 c 128,-1,24
 362 1268 362 1268 362 1280 c 0,25,26
 362 1490 362 1490 528 1588 c 0,27,28
 666 1670 666 1670 899 1669 c 0,29,30
 1059 1669 1059 1669 1219 1634 c 1,31,-1
 1219 1278 l 1,32,33
 1072 1298 1072 1298 964 1298 c 128,-1,34
 856 1298 856 1298 856 1247 c 0,35,36
 856 1229 856 1229 878 1219 c 128,-1,37
 900 1209 900 1209 936.5 1200.5 c 128,-1,38
 973 1192 973 1192 1019.5 1182 c 128,-1,39
 1066 1172 1066 1172 1114 1154.5 c 128,-1,40
 1162 1137 1162 1137 1208.5 1108.5 c 0,41,42
 1256 1080 1256 1080 1292 1034 c 0,43,44
 1372 933 1372 933 1372 764 c 0,45,46
 1372 614 1372 614 1282 490 c 0,47,48
 1194 367 1194 367 1079 354 c 1,49,50
 1092 293 1092 293 1092 242.5 c 128,-1,51
 1092 192 1092 192 1070.5 142.5 c 128,-1,52
 1049 93 1049 93 1011.5 55.5 c 128,-1,53
 974 18 974 18 923 -8 c 128,-1,54
 872 -34 872 -34 813 -50 c 0,55,56
 700 -82 700 -82 563 -82 c 0,0,1
563 920 m 0,57,58
 469 920 469 920 469 854 c 0,59,60
 469 823 469 823 491.5 809 c 128,-1,61
 514 795 514 795 531 788 c 128,-1,62
 548 781 548 781 586 765 c 128,-1,63
 624 749 624 749 680 731 c 0,64,65
 821 686 821 686 876.5 686 c 128,-1,66
 932 686 932 686 952.5 696 c 128,-1,67
 973 706 973 706 973 736 c 0,68,69
 973 806 973 806 879 836 c 1,70,71
 861 854 861 854 757 881 c 0,72,73
 611 920 611 920 563 920 c 0,57,58
EndSplineSet
EndChar

StartChar: backslash
Encoding: 92 92 253
Width: 1057
Flags: W
LayerCount: 2
Fore
SplineSet
1030 0 m 1,0,-1
 356 0 l 1,1,-1
 49 1597 l 1,2,-1
 580 1597 l 1,3,-1
 1030 0 l 1,0,-1
EndSplineSet
EndChar

StartChar: bar
Encoding: 124 124 254
Width: 815
Flags: W
LayerCount: 2
Fore
SplineSet
647 -205 m 1,0,-1
 162 -205 l 1,1,-1
 96 1802 l 1,2,-1
 725 1802 l 1,3,-1
 647 -205 l 1,0,-1
EndSplineSet
EndChar

StartChar: brokenbar
Encoding: 166 166 255
Width: 801
Flags: W
LayerCount: 2
Fore
SplineSet
127 918 m 1,0,-1
 156 1802 l 1,1,-1
 641 1802 l 1,2,-1
 676 918 l 1,3,-1
 127 918 l 1,0,-1
672 680 m 1,4,-1
 707 -205 l 1,5,-1
 98 -205 l 1,6,-1
 127 680 l 1,7,-1
 672 680 l 1,4,-1
EndSplineSet
EndChar

StartChar: numbersign
Encoding: 35 35 256
Width: 2056
Flags: W
LayerCount: 2
Fore
SplineSet
211 1241 m 1,0,-1
 373 1241 l 1,1,-1
 424 1597 l 1,2,-1
 1057 1597 l 1,3,-1
 975 1241 l 1,4,-1
 1206 1241 l 1,5,-1
 1284 1597 l 1,6,-1
 1958 1597 l 1,7,-1
 1825 1241 l 1,8,-1
 1997 1241 l 1,9,-1
 1915 942 l 1,10,-1
 1714 942 l 1,11,-1
 1616 680 l 1,12,-1
 1841 680 l 1,13,-1
 1759 381 l 1,14,-1
 1505 381 l 1,15,-1
 1364 0 l 1,16,-1
 936 0 l 1,17,-1
 1018 381 l 1,18,-1
 776 381 l 1,19,-1
 688 0 l 1,20,-1
 199 0 l 1,21,-1
 252 381 l 1,22,-1
 76 381 l 1,23,-1
 117 680 l 1,24,-1
 293 680 l 1,25,-1
 330 942 l 1,26,-1
 170 942 l 1,27,-1
 211 1241 l 1,0,-1
844 680 m 1,28,-1
 1083 680 l 1,29,-1
 1141 942 l 1,30,-1
 905 942 l 1,31,-1
 844 680 l 1,28,-1
EndSplineSet
EndChar

StartChar: logicalnot
Encoding: 172 172 258
Width: 1219
Flags: W
LayerCount: 2
Fore
SplineSet
39 911 m 1,0,-1
 1098 911 l 1,1,-1
 1098 305 l 1,2,-1
 801 305 l 1,3,-1
 801 479 l 1,4,-1
 39 479 l 1,5,-1
 39 911 l 1,0,-1
EndSplineSet
EndChar

StartChar: asciitilde
Encoding: 126 126 259
Width: 1098
Flags: W
LayerCount: 2
Fore
SplineSet
995 1686 m 256,0,1
 1012 1686 1012 1686 1012 1669 c 0,2,3
 1012 1390 1012 1390 870 1337 c 0,4,5
 827 1321 827 1321 771 1321 c 128,-1,6
 715 1321 715 1321 646 1337.5 c 0,7,8
 576 1354 576 1354 506 1374 c 0,9,10
 319 1427 319 1427 238 1427 c 0,11,12
 193 1427 193 1427 161 1406.5 c 128,-1,13
 129 1386 129 1386 116.5 1377 c 128,-1,14
 104 1368 104 1368 96 1368 c 256,15,16
 78 1368 78 1368 78 1384 c 0,17,18
 78 1660 78 1660 228 1713 c 0,19,20
 274 1729 274 1729 331.5 1729 c 128,-1,21
 389 1729 389 1729 459 1712.5 c 128,-1,22
 529 1696 529 1696 599 1676 c 0,23,24
 787 1624 787 1624 833.5 1624 c 128,-1,25
 880 1624 880 1624 903 1633.5 c 128,-1,26
 926 1643 926 1643 943.5 1655 c 128,-1,27
 961 1667 961 1667 974 1676.5 c 128,-1,28
 987 1686 987 1686 995 1686 c 256,0,1
EndSplineSet
EndChar

StartChar: ffi
Encoding: 64259 64259 260
Width: 3052
Flags: W
LayerCount: 2
Fore
SplineSet
2204 1454 m 1,0,1
 2164 1468 2164 1468 2118.5 1468 c 128,-1,2
 2073 1468 2073 1468 2035.5 1452.5 c 128,-1,3
 1998 1437 1998 1437 1970 1408 c 0,4,5
 1911 1347 1911 1347 1903 1243 c 1,6,-1
 2935 1243 l 1,7,-1
 2935 0 l 1,8,-1
 2367 0 l 1,9,-1
 2367 926 l 1,10,-1
 1903 926 l 1,11,-1
 1903 0 l 1,12,-1
 1305 0 l 1,13,-1
 1305 926 l 1,14,-1
 862 926 l 1,15,-1
 862 0 l 1,16,-1
 264 0 l 1,17,-1
 264 926 l 1,18,-1
 68 926 l 1,19,-1
 68 1243 l 1,20,-1
 264 1243 l 1,21,-1
 264 1454 l 2,22,23
 264 1620 264 1620 400 1720 c 0,24,25
 528 1814 528 1814 748 1814.5 c 128,-1,26
 968 1815 968 1815 1143 1712 c 1,27,-1
 1143 1413 l 1,28,29
 1094 1427 1094 1427 1046.5 1427 c 128,-1,30
 999 1427 999 1427 965.5 1412.5 c 128,-1,31
 932 1398 932 1398 910 1374 c 0,32,33
 868 1328 868 1328 862 1243 c 1,34,-1
 1305 1243 l 1,35,-1
 1305 1495 l 2,36,37
 1304 1661 1304 1661 1440 1761 c 0,38,39
 1568 1855 1568 1855 1765 1855 c 0,40,41
 2020 1855 2020 1855 2204 1753 c 1,42,-1
 2204 1454 l 1,0,1
2664 1819 m 0,43,44
 2741 1819 2741 1819 2793 1801.5 c 0,45,46
 2846 1784 2846 1784 2880 1754 c 0,47,48
 2948 1696 2948 1696 2947 1608 c 0,49,50
 2947 1506 2947 1506 2861 1430 c 0,51,52
 2766 1346 2766 1346 2615 1346 c 0,53,54
 2471 1346 2471 1346 2399 1408 c 0,55,56
 2337 1462 2337 1462 2337 1550 c 0,57,58
 2337 1656 2337 1656 2420 1732 c 0,59,60
 2514 1818 2514 1818 2664 1819 c 0,43,44
EndSplineSet
Ligature2: "'liga' Standard Ligatures lookup 0 subtable" f f i
EndChar

StartChar: ffl
Encoding: 64260 64260 261
Width: 2834
Flags: W
LayerCount: 2
Fore
SplineSet
1720 1335 m 0,0,1
 1720 1292 1720 1292 1735 1243 c 1,2,-1
 2042 1243 l 1,3,-1
 2042 926 l 1,4,-1
 1759 926 l 1,5,-1
 1759 0 l 1,6,-1
 1161 0 l 1,7,-1
 1161 926 l 1,8,-1
 780 926 l 1,9,-1
 780 0 l 1,10,-1
 182 0 l 1,11,-1
 182 926 l 1,12,-1
 68 926 l 1,13,-1
 68 1243 l 1,14,-1
 182 1243 l 1,15,-1
 182 1454 l 2,16,17
 182 1620 182 1620 318 1720 c 0,18,19
 446 1814 446 1814 666 1814.5 c 128,-1,20
 886 1815 886 1815 1061 1712 c 1,21,-1
 1061 1413 l 1,22,23
 1012 1427 1012 1427 964.5 1427 c 128,-1,24
 917 1427 917 1427 883.5 1412.5 c 128,-1,25
 850 1398 850 1398 828 1374 c 0,26,27
 786 1328 786 1328 780 1243 c 1,28,-1
 1161 1243 l 1,29,-1
 1161 1352 l 2,30,31
 1161 1738 1161 1738 1660 1814 c 0,32,33
 1812 1837 1812 1837 1947.5 1837 c 128,-1,34
 2083 1837 2083 1837 2185.5 1826 c 0,35,36
 2288 1816 2288 1816 2386 1798 c 0,37,38
 2589 1762 2589 1762 2714 1712 c 1,39,-1
 2714 0 l 1,40,-1
 2148 0 l 1,41,-1
 2148 1475 l 1,42,43
 2055 1507 2055 1507 1958 1507 c 0,44,45
 1720 1507 1720 1507 1720 1335 c 0,0,1
EndSplineSet
Ligature2: "'liga' Standard Ligatures lookup 0 subtable" f f l
EndChar

StartChar: ff
Encoding: 64256 64256 262
Width: 2116
Flags: W
LayerCount: 2
Fore
SplineSet
2054 1413 m 1,0,1
 2005 1427 2005 1427 1957.5 1427 c 128,-1,2
 1910 1427 1910 1427 1876.5 1412.5 c 0,3,4
 1844 1398 1844 1398 1822 1374 c 0,5,6
 1781 1327 1781 1327 1774 1243 c 1,7,-1
 2056 1243 l 1,8,-1
 2056 926 l 1,9,-1
 1774 926 l 1,10,-1
 1774 0 l 1,11,-1
 1176 0 l 1,12,-1
 1176 926 l 1,13,-1
 780 926 l 1,14,-1
 780 0 l 1,15,-1
 182 0 l 1,16,-1
 182 926 l 1,17,-1
 68 926 l 1,18,-1
 68 1243 l 1,19,-1
 182 1243 l 1,20,-1
 182 1454 l 2,21,22
 182 1620 182 1620 318 1720 c 0,23,24
 446 1814 446 1814 666 1814.5 c 128,-1,25
 886 1815 886 1815 1061 1712 c 1,26,-1
 1061 1413 l 1,27,28
 1012 1427 1012 1427 964.5 1427 c 128,-1,29
 917 1427 917 1427 883.5 1412.5 c 128,-1,30
 850 1398 850 1398 828 1374 c 0,31,32
 786 1328 786 1328 780 1243 c 1,33,-1
 1176 1243 l 1,34,-1
 1176 1454 l 2,35,36
 1176 1620 1176 1620 1312 1720 c 0,37,38
 1439 1814 1439 1814 1659 1814.5 c 128,-1,39
 1879 1815 1879 1815 2054 1712 c 1,40,-1
 2054 1413 l 1,0,1
EndSplineSet
Ligature2: "'liga' Standard Ligatures lookup 0 subtable" f f
EndChar

StartChar: Hbar
Encoding: 294 294 280
Width: 1823
Flags: W
LayerCount: 2
Fore
SplineSet
745 1426 m 1,0,-1
 1077 1426 l 1,1,-1
 1077 1597 l 1,2,-1
 1700 1597 l 1,3,-1
 1700 0 l 1,4,-1
 1077 0 l 1,5,-1
 1077 590 l 1,6,-1
 745 561 l 1,7,-1
 745 0 l 1,8,-1
 123 0 l 1,9,-1
 123 1597 l 1,10,-1
 745 1597 l 1,11,-1
 745 1426 l 1,0,-1
1077 1233 m 1,12,-1
 745 1233 l 1,13,-1
 745 1020 l 1,14,-1
 1077 1047 l 1,15,-1
 1077 1233 l 1,12,-1
EndSplineSet
EndChar

StartChar: LJ
Encoding: 455 455 290
Width: 2892
Flags: W
LayerCount: 2
Fore
SplineSet
123 1597 m 1,0,-1
 745 1597 l 1,1,-1
 745 481 l 1,2,-1
 1282 481 l 1,3,-1
 1282 0 l 1,4,-1
 123 0 l 1,5,-1
 123 1597 l 1,0,-1
2014 -39 m 0,6,7
 1882 -39 1882 -39 1751.5 -4 c 0,8,9
 1620 31 1620 31 1526 105 c 0,10,11
 1326 261 1326 261 1327 567 c 2,12,-1
 1327 719 l 1,13,-1
 1882 795 l 1,14,-1
 1882 641 l 2,15,16
 1882 502 1882 502 1965 462 c 0,17,18
 1989 450 1989 450 2015.5 450.5 c 128,-1,19
 2042 451 2042 451 2067.5 464.5 c 128,-1,20
 2093 478 2093 478 2113 504 c 0,21,22
 2157 560 2157 560 2157 647 c 2,23,-1
 2157 1597 l 1,24,-1
 2794 1597 l 1,25,-1
 2794 825 l 2,26,27
 2794 222 2794 222 2424 40 c 0,28,29
 2265 -38 2265 -38 2014 -39 c 0,6,7
EndSplineSet
EndChar

StartChar: dcroat
Encoding: 273 273 291
Width: 1786
Flags: W
LayerCount: 2
Fore
SplineSet
838 1288 m 0,0,1
 957 1288 957 1288 1083 1249 c 1,2,-1
 1083 1364 l 1,3,-1
 896 1364 l 1,4,-1
 896 1513 l 1,5,-1
 1083 1513 l 1,6,-1
 1083 1683 l 1,7,-1
 1665 1683 l 1,8,-1
 1665 1513 l 1,9,-1
 1809 1513 l 1,10,-1
 1809 1364 l 1,11,-1
 1665 1364 l 1,12,-1
 1665 0 l 1,13,-1
 1294 0 l 1,14,-1
 1151 207 l 1,15,16
 968 -35 968 -35 670 -35 c 0,17,18
 431 -35 431 -35 259 122 c 0,19,20
 74 290 74 290 74 559 c 0,21,22
 74 798 74 798 184 972 c 0,23,24
 282 1127 282 1127 458 1211 c 0,25,26
 620 1288 620 1288 838 1288 c 0,0,1
1083 866 m 1,27,28
 1049 887 1049 887 1009 887 c 128,-1,29
 969 887 969 887 932 871 c 128,-1,30
 895 855 895 855 860.5 828 c 128,-1,31
 826 801 826 801 795.5 764.5 c 0,32,33
 764 728 764 728 742 687 c 0,34,35
 694 599 694 599 694 516 c 0,36,37
 694 426 694 426 747 392 c 0,38,39
 766 380 766 380 793 379 c 0,40,41
 923 379 923 379 1083 510 c 1,42,-1
 1083 866 l 1,27,28
EndSplineSet
EndChar

StartChar: Lj
Encoding: 456 456 292
Width: 2329
Flags: W
LayerCount: 2
Fore
SplineSet
123 1597 m 1,0,-1
 745 1597 l 1,1,-1
 745 481 l 1,2,-1
 1282 481 l 1,3,-1
 1282 0 l 1,4,-1
 123 0 l 1,5,-1
 123 1597 l 1,0,-1
1764 -332 m 0,6,7
 1523 -332 1523 -332 1344 -188 c 1,8,-1
 1346 70 l 1,9,10
 1386 53 1386 53 1432 53 c 128,-1,11
 1478 53 1478 53 1509 78 c 0,12,13
 1540 104 1540 104 1566 142 c 0,14,15
 1626 231 1626 231 1626 317 c 2,16,-1
 1626 1241 l 1,17,-1
 2224 1241 l 1,18,-1
 2224 111 l 2,19,20
 2224 -92 2224 -92 2088 -215 c 0,21,22
 1959 -332 1959 -332 1764 -332 c 0,6,7
1805.5 1795 m 128,-1,24
 1868 1819 1868 1819 1945 1819 c 128,-1,25
 2022 1819 2022 1819 2074 1801.5 c 128,-1,26
 2126 1784 2126 1784 2160 1754 c 0,27,28
 2228 1696 2228 1696 2228 1608 c 0,29,30
 2228 1506 2228 1506 2142 1430 c 0,31,32
 2047 1346 2047 1346 1897 1346 c 0,33,34
 1685 1346 1685 1346 1633 1474 c 0,35,36
 1618 1510 1618 1510 1618 1554 c 128,-1,37
 1618 1598 1618 1598 1639 1646 c 128,-1,38
 1660 1694 1660 1694 1701.5 1732.5 c 128,-1,23
 1743 1771 1743 1771 1805.5 1795 c 128,-1,24
EndSplineSet
EndChar

StartChar: lj
Encoding: 457 457 293
Width: 1827
Flags: W
LayerCount: 2
Fore
SplineSet
690 0 m 1,0,-1
 123 0 l 1,1,-1
 123 1683 l 1,2,-1
 690 1683 l 1,3,-1
 690 0 l 1,0,-1
1262 -332 m 0,4,5
 1021 -332 1021 -332 842 -188 c 1,6,-1
 844 70 l 1,7,8
 884 53 884 53 930 53 c 128,-1,9
 976 53 976 53 1007 78 c 0,10,11
 1038 104 1038 104 1064 142 c 0,12,13
 1124 231 1124 231 1124 317 c 2,14,-1
 1124 1241 l 1,15,-1
 1722 1241 l 1,16,-1
 1722 111 l 2,17,18
 1722 -92 1722 -92 1586 -215 c 0,19,20
 1457 -332 1457 -332 1262 -332 c 0,4,5
1303.5 1795 m 128,-1,22
 1366 1819 1366 1819 1443 1819 c 128,-1,23
 1520 1819 1520 1819 1572 1801.5 c 128,-1,24
 1624 1784 1624 1784 1658 1754 c 0,25,26
 1726 1696 1726 1696 1726 1608 c 0,27,28
 1726 1506 1726 1506 1640 1430 c 0,29,30
 1545 1346 1545 1346 1395 1346 c 0,31,32
 1183 1346 1183 1346 1131 1474 c 0,33,34
 1116 1510 1116 1510 1116 1554 c 128,-1,35
 1116 1598 1116 1598 1137 1646 c 128,-1,36
 1158 1694 1158 1694 1199.5 1732.5 c 128,-1,21
 1241 1771 1241 1771 1303.5 1795 c 128,-1,22
EndSplineSet
EndChar

StartChar: nj
Encoding: 460 460 296
Width: 2586
Flags: W
LayerCount: 2
Fore
SplineSet
795 905 m 0,0,1
 715 905 715 905 715 776 c 2,2,-1
 715 0 l 1,3,-1
 121 0 l 1,4,-1
 121 1243 l 1,5,-1
 449 1243 l 1,6,-1
 592 1049 l 1,7,8
 672 1160 672 1160 816 1226 c 0,9,10
 955 1290 955 1290 1078.5 1290 c 128,-1,11
 1202 1290 1202 1290 1286 1260 c 128,-1,12
 1370 1230 1370 1230 1433 1173 c 0,13,14
 1569 1050 1569 1050 1569 848 c 2,15,-1
 1569 0 l 1,16,-1
 971 0 l 1,17,-1
 971 600 l 2,18,19
 971 905 971 905 795 905 c 0,0,1
2021 -412 m 0,20,21
 1773 -412 1773 -412 1601 -338 c 1,22,-1
 1603 -80 l 1,23,24
 1643 -97 1643 -97 1689 -97 c 128,-1,25
 1735 -97 1735 -97 1766 -72 c 0,26,27
 1797 -46 1797 -46 1823 -8 c 0,28,29
 1883 81 1883 81 1883 167 c 2,30,-1
 1883 1241 l 1,31,-1
 2481 1241 l 1,32,-1
 2481 31 l 2,33,34
 2481 -172 2481 -172 2345 -295 c 0,35,36
 2216 -412 2216 -412 2021 -412 c 0,20,21
2062.5 1795 m 128,-1,38
 2125 1819 2125 1819 2202 1819 c 128,-1,39
 2279 1819 2279 1819 2331 1801.5 c 0,40,41
 2384 1784 2384 1784 2418 1754 c 0,42,43
 2486 1696 2486 1696 2485 1608 c 0,44,45
 2485 1506 2485 1506 2399 1430 c 0,46,47
 2304 1346 2304 1346 2154 1346 c 0,48,49
 1942 1346 1942 1346 1890 1474 c 0,50,51
 1875 1510 1875 1510 1875 1554 c 128,-1,52
 1875 1598 1875 1598 1896 1646 c 128,-1,53
 1917 1694 1917 1694 1958.5 1732.5 c 128,-1,37
 2000 1771 2000 1771 2062.5 1795 c 128,-1,38
EndSplineSet
EndChar

